<svg width="16" height="16" viewBox="0 0 16 16" fill="none" xmlns="http://www.w3.org/2000/svg">
<path fill-rule="evenodd" clip-rule="evenodd" d="M10.7928 9.79254C11.1832 9.40224 11.8163 9.40239 12.2068 9.79254C12.5973 10.183 12.5972 10.8161 12.2068 11.2066L8.70681 14.7066C8.31629 15.0971 7.68328 15.0971 7.29275 14.7066L3.79275 11.2066C3.40257 10.8161 3.40234 10.183 3.79275 9.79254C4.18317 9.40223 4.81629 9.40239 5.20681 9.79254L7.99978 12.5855L10.7928 9.79254ZM7.36892 1.22418C7.76159 0.904038 8.34073 0.926744 8.70681 1.29254L12.2068 4.79254C12.5973 5.18302 12.5972 5.81607 12.2068 6.2066C11.8163 6.59713 11.1833 6.59712 10.7928 6.2066L7.99978 3.41364L5.20681 6.2066C4.81629 6.59713 4.18328 6.59713 3.79275 6.2066C3.40251 5.81606 3.40232 5.18297 3.79275 4.79254L7.29275 1.29254L7.36892 1.22418Z" fill="white"/>
</svg>
