<svg width="16" height="16" viewBox="0 0 16 16" fill="none" xmlns="http://www.w3.org/2000/svg">
<path d="M8 0.5C8.55224 0.500052 9 0.947747 9 1.5V11.8936L11.7568 8.83105C12.1263 8.42064 12.7585 8.38741 13.1689 8.75684C13.5793 9.12629 13.6125 9.75847 13.2432 10.1689L8.74316 15.1689C8.55355 15.3796 8.28343 15.5 8 15.5C7.71656 15.5 7.44647 15.3796 7.25684 15.1689L2.75684 10.1689C2.38739 9.75845 2.4206 9.1263 2.83105 8.75684C3.24155 8.38744 3.87371 8.42061 4.24316 8.83105L7 11.8936V1.5C7 0.947715 7.44772 0.5 8 0.5Z" fill="white"/>
</svg>
