<svg width="16" height="16" viewBox="0 0 16 16" fill="none" xmlns="http://www.w3.org/2000/svg">
<path d="M9.12744 3.16541C9.31217 2.96021 9.62924 2.94362 9.83447 3.1283L14.8345 7.6283C14.9398 7.72311 14.9995 7.85865 14.9995 8.00037C14.9994 8.14194 14.9397 8.27771 14.8345 8.37244L9.83447 12.8724C9.62922 13.0567 9.31205 13.0404 9.12744 12.8353C8.94286 12.6302 8.95975 12.3131 9.16455 12.1283L13.1958 8.50037H1.49951C1.2237 8.50014 0.999725 8.27618 0.999512 8.00037C0.999512 7.72437 1.22357 7.5006 1.49951 7.50037H13.1958L9.16455 3.87244C8.95953 3.68782 8.94315 3.37064 9.12744 3.16541Z" fill="white"/>
</svg>
