<svg width="16" height="16" viewBox="0 0 24 24" fill="none" xmlns="http://www.w3.org/2000/svg">
<path d="M8 18.7568C7.99997 19.0253 7.9569 19.2922 7.87207 19.5469L6.99609 22.1738C6.67692 23.1309 5.32307 23.1309 5.00391 22.1738L4.12793 19.5469C4.0431 19.2922 4.00003 19.0253 4 18.7568V6H8V18.7568ZM6 1C7.10457 1 8 1.89543 8 3V4H4V3C4 1.89543 4.89543 1 6 1Z" fill="white"/>
<path d="M18 0.999817C19.1046 0.999817 20 1.89525 20 2.99982V5.49982H17C16.4478 5.49982 16.0001 5.94762 16 6.49982C16 7.0521 16.4477 7.49982 17 7.49982H20V10.4998H17C16.4478 10.4998 16.0001 10.9476 16 11.4998C16 12.0521 16.4477 12.4998 17 12.4998H20V15.4998H17C16.4478 15.4998 16.0001 15.9476 16 16.4998C16 17.0521 16.4477 17.4998 17 17.4998H20V20.9998C20 22.1044 19.1046 22.9998 18 22.9998H14C12.8954 22.9998 12 22.1044 12 20.9998V2.99982C12 1.89525 12.8954 0.999817 14 0.999817H18Z" fill="white"/>
</svg>
