<svg width="48" height="48" viewBox="0 0 32 32" fill="none" xmlns="http://www.w3.org/2000/svg">
<g transform="translate(0.0000 0.0000)">
<g id="Superficial">
<path id="Vector" fill-rule="evenodd" clip-rule="evenodd" d="M10.0929 12.8873C9.88917 12.8933 9.1236 12.9176 8.11999 12.962C7.43109 12.9923 6.71494 13.0075 6.14909 13.1378C5.64275 13.2549 5.23929 13.4701 4.9841 13.7882C4.7158 14.1236 4.54837 14.6023 4.46465 15.1791C4.36378 15.879 4.37689 16.7426 4.3537 17.6052C4.31234 19.1778 4.33151 19.8677 4.33151 21.2696C4.33151 22.2847 4.27401 24.2644 4.31436 25.3098C4.32848 25.6684 4.41018 26.1875 4.60485 26.635C4.7622 26.9956 4.99318 27.3077 5.29275 27.5046C5.75269 27.8087 6.50212 27.9561 7.29895 27.9905C8.31769 28.0339 9.41712 27.9147 9.86496 27.9147C10.6073 27.9147 25.0936 27.8056 25.3598 27.7763C25.7119 27.738 27.5647 27.2471 27.6404 25.5098C27.6918 24.3321 27.706 22.0393 27.6979 21.1949C27.6888 20.2333 27.6939 16.8699 27.6767 16.3729C27.6353 15.1286 27.7856 14.4347 27.3438 13.5872C27.1472 13.2125 26.8264 12.9893 26.4542 12.8711C26.0588 12.7469 25.5999 12.758 25.2953 12.757C24.5136 12.7549 23.047 12.756 22.2724 12.757C22.577 11.6459 23.1469 9.86117 23.2397 9.46018C23.4727 8.45417 23.0531 7.72795 22.6022 7.42898C22.3339 7.25121 21.9819 7.23202 21.6107 7.46635C21.2456 7.69664 20.8017 8.27438 20.5698 8.70466C20.1925 9.40261 19.9555 10.3298 19.668 11.3692C19.5692 11.7257 19.4028 12.2843 19.2444 12.8115L13.1532 12.8549C13.2581 12.455 13.363 12.0893 13.4366 11.7944C13.6323 11.0126 14.0266 9.65815 14.2617 9.03091C14.5047 8.38044 15.0857 6.5967 15.2814 5.96845C15.6112 4.90992 15.1261 4.20996 14.5572 4.04027C14.3363 3.97361 14.064 3.98371 13.7795 4.11603C13.3751 4.30389 12.8859 4.78872 12.6166 5.59574C12.3291 6.45529 11.8177 7.68553 11.6079 8.31883C11.3961 8.95616 10.9331 10.2551 10.8101 10.6621C10.7213 10.9591 10.333 12.0873 10.0929 12.8873ZM21.3585 20.4848C21.409 21.1676 21.5774 21.7494 21.6732 22.0191C21.7398 22.2039 21.8659 22.5342 21.878 22.8817C21.8891 23.1958 21.8154 23.52 21.5966 23.8099C21.3192 24.1755 20.7422 24.5402 19.5349 24.5745C18.5999 24.6008 18.0764 24.3573 17.7818 24.0664C17.444 23.7331 17.3391 23.2958 17.3764 22.8392C17.4107 22.409 17.5993 21.9645 17.6356 21.7292C17.6759 21.4666 17.795 21.1252 17.9079 20.7666C17.4672 20.9858 16.9215 21.1939 16.2073 21.1818C15.1452 21.1626 13.5516 20.7192 12.8647 20.5121C12.8717 20.5515 12.8788 20.5879 12.8859 20.6202C12.9746 20.9898 13.3236 21.6696 13.4719 22.1474C13.599 22.5574 13.5697 22.8968 13.479 23.0746C13.368 23.2917 13.3327 23.5675 12.9827 23.8281C12.6912 24.0462 12.1142 24.2775 10.8413 24.3291C9.49882 24.3836 8.8553 24.0422 8.51942 23.6927C8.14017 23.2978 8.09478 22.8291 8.05241 22.5413C8.02518 22.3534 8.06149 22.0716 8.16236 21.7635C8.23901 21.5292 8.35097 21.2696 8.45688 21.0404C8.38426 21.0646 8.31063 21.0909 8.23498 21.1161C7.82345 21.2535 7.34636 21.3969 6.66754 21.4424C6.15514 21.4767 5.79304 21.4828 5.54088 21.4777C5.53482 22.5241 5.48742 24.2967 5.52373 25.2634C5.53382 25.5027 5.58425 25.8512 5.71436 26.1502C5.77387 26.2865 5.84549 26.4178 5.95846 26.4926C6.27517 26.7017 6.80169 26.7552 7.35039 26.7794C8.34896 26.8219 9.4262 26.7027 9.86496 26.7027C10.6013 26.7027 24.9634 26.6007 25.2287 26.5714C25.3245 26.5613 25.6281 26.4855 25.9156 26.3007C26.1678 26.137 26.4129 25.8765 26.431 25.4573C26.4764 24.427 26.4915 22.5332 26.4895 21.5383C26.0629 21.5757 25.5353 21.5535 24.5882 21.1393C23.7238 20.7616 22.2128 20.5687 21.3585 20.4848ZM22.0827 8.6885C22.112 8.82183 22.1049 8.99253 22.0605 9.18545C21.9536 9.64704 21.2153 11.9378 20.9773 12.9246C20.6414 14.3195 20.5365 15.0073 20.3418 15.9962C20.1441 16.9951 20.2409 18.5162 20.1522 19.6313C20.0564 20.8333 20.3751 21.9807 20.5334 22.4271C20.5627 22.5079 20.6141 22.6312 20.6464 22.7726C20.6686 22.8675 20.7039 22.9827 20.6323 23.0766C20.5829 23.1423 20.4971 23.1877 20.3771 23.2311C20.1653 23.3079 19.8798 23.3523 19.5006 23.3624C19.0487 23.3756 18.7744 23.3443 18.6321 23.2039C18.5232 23.0968 18.5757 22.9362 18.6029 22.7908C18.6674 22.4403 18.8026 22.1049 18.8319 21.912C18.9176 21.3525 19.321 20.4475 19.3432 19.7525C19.3634 19.0889 19.4794 17.884 19.5157 17.4547C19.549 17.0577 19.9343 14.8356 19.9908 14.5155C20.0755 14.2387 20.6162 12.4782 20.834 11.6934C21.0943 10.7551 21.294 9.91167 21.6339 9.2814C21.7216 9.11979 21.9304 8.86425 22.0827 8.6885ZM14.1779 5.29273C14.18 5.38666 14.1618 5.49171 14.1255 5.60685C13.9339 6.22197 13.366 7.96935 13.1279 8.60467C12.8818 9.26322 12.4673 10.6813 12.2625 11.5005C12.0557 12.3307 11.6271 13.6943 11.5776 14.8518C11.5292 15.9608 11.6331 17.1335 11.5787 17.8627C11.5191 18.6455 11.5716 20.3262 11.7088 20.902C11.7834 21.2131 12.0204 21.7292 12.201 22.1878C12.2625 22.3453 12.3251 22.5615 12.3483 22.6433C12.3382 22.6706 12.3281 22.6978 12.319 22.7261C12.3079 22.7605 12.3079 22.8039 12.2766 22.8413C12.2333 22.8938 12.1495 22.9221 12.0154 22.9625C11.7511 23.0413 11.3638 23.0948 10.7919 23.118C9.99709 23.1503 9.59061 23.0594 9.3919 22.8524C9.24565 22.6999 9.26481 22.5049 9.25271 22.3857C9.25775 22.3655 9.31524 22.1221 9.37475 21.9666C9.53109 21.5646 9.75502 21.1363 9.82461 20.9848C9.95372 20.699 10.3188 19.4687 10.3874 19.0071C10.451 18.5779 10.6124 16.9588 10.6124 16.9588C10.6134 16.9487 10.6144 16.9386 10.6144 16.9285C10.6255 16.7153 11.0531 14.2195 11.1066 13.7731C11.1591 13.3357 11.851 11.4035 11.969 11.0136C12.09 10.6116 12.547 9.33089 12.7557 8.70163C12.9666 8.06935 13.4769 6.83911 13.7644 5.97956C13.8673 5.6715 14.0135 5.43818 14.1719 5.29677L14.1779 5.29273ZM21.5653 16.0467C21.5532 16.1073 21.5411 16.1689 21.529 16.2315C21.3535 17.1194 21.4301 18.4344 21.3747 19.4758C22.2804 19.5667 24.0143 19.7869 24.9917 20.2141C25.7149 20.5293 26.1436 20.5606 26.4835 20.5333C26.4794 19.192 26.4804 16.8234 26.4673 16.4133C26.4633 16.2851 26.4613 16.1639 26.4613 16.0477C25.7663 16.2032 25.0754 16.3285 23.9538 16.3921C22.9653 16.4487 22.0928 16.2275 21.5653 16.0467ZM9.5321 16.0043C9.04795 16.1144 8.43772 16.28 7.74982 16.4295C7.01451 16.5891 6.13699 16.5507 5.58425 16.4992C5.57517 16.8679 5.57416 17.2527 5.56408 17.6375C5.53079 18.8647 5.53583 19.5495 5.53987 20.4636C5.76278 20.4687 6.1148 20.4666 6.60097 20.4343C7.29391 20.3889 7.73772 20.2162 8.13613 20.0838C8.40242 19.995 8.65155 19.9222 8.92288 19.8899C9.03686 19.5091 9.15588 19.0566 9.19017 18.8294C9.2517 18.4122 9.40804 16.8376 9.40804 16.8376L9.40602 16.8679L9.40703 16.8497C9.41611 16.7477 9.46654 16.4184 9.5321 16.0043ZM18.5202 15.9558C17.6699 16.0325 16.5916 16.1285 15.7635 16.2144C14.9899 16.2941 13.607 16.1174 12.7759 15.9911C12.788 16.7456 12.8233 17.4527 12.785 17.9537C12.7588 18.3132 12.7547 18.891 12.7739 19.4313C12.7971 19.4354 12.8203 19.4404 12.8435 19.4485C12.8435 19.4485 14.9496 20.1495 16.2255 20.1717C17.0546 20.1859 17.5821 19.7828 17.9906 19.5879C18.0421 19.5637 18.0915 19.5414 18.1409 19.5223C18.1742 18.8203 18.2751 17.7547 18.3094 17.3517C18.3255 17.1628 18.4183 16.5709 18.5202 15.9558ZM9.8347 14.1084C9.48369 14.1195 8.88959 14.1407 8.17446 14.1731C7.654 14.1963 7.11639 14.2034 6.65543 14.2751C6.34679 14.3225 6.07244 14.368 5.9282 14.5468C5.77488 14.7387 5.71033 15.0235 5.66292 15.3528C5.65586 15.3992 5.64981 15.4457 5.64376 15.4932C6.11782 15.5417 6.89045 15.5821 7.53599 15.4417C8.40342 15.2538 9.15789 15.0457 9.70257 14.9417C9.75199 14.6367 9.79839 14.3448 9.8347 14.1084ZM26.4714 15.0094C26.4633 14.7104 26.424 14.4407 26.2706 14.1488C26.2152 14.0428 26.0951 14.0226 25.9862 14.0013C25.7381 13.9529 25.4758 13.969 25.2933 13.969C24.3956 13.967 22.5951 13.968 21.9778 13.969C21.8881 14.3761 21.8185 14.7185 21.7559 15.0437C22.1584 15.1952 22.9653 15.4376 23.8963 15.3841C25.0663 15.3164 25.7411 15.178 26.4714 15.0094ZM18.9368 13.8236L12.9181 13.866C12.8506 14.2165 12.8011 14.57 12.786 14.9043C12.785 14.9276 12.785 14.9508 12.784 14.974C13.5294 15.0942 14.9072 15.2871 15.6607 15.2094C16.5805 15.1144 17.8081 15.0063 18.6917 14.9265C18.7572 14.5417 18.8046 14.269 18.8046 14.269C18.8087 14.2438 18.8147 14.2185 18.8228 14.1943C18.8228 14.1943 18.8672 14.0508 18.9368 13.8236Z" fill="white"/>
</g>
</g>
</svg>
