<svg width="24" height="24" viewBox="0 0 24 24" fill="none" xmlns="http://www.w3.org/2000/svg">
<path d="M15 4C16.1046 4 17 4.89543 17 6V20C17 21.1046 16.1046 22 15 22H9C7.89543 22 7 21.1046 7 20V6C7 4.89543 7.89543 4 9 4H15ZM9 5C8.44772 5 8 5.44772 8 6V20C8 20.5523 8.44772 21 9 21H15C15.5523 21 16 20.5523 16 20V6C16 5.44772 15.5523 5 15 5H9Z" fill="white"/>
<path d="M12.5 2C13.3284 2 14 2.67157 14 3.5V5H10V3.5C10 2.67157 10.6716 2 11.5 2H12.5Z" fill="white"/>
<rect x="9" y="6" width="6" height="14" rx="0.5" fill="white" fill-opacity="0.25"/>
<path d="M9 8.5C9 8.22386 9.22386 8 9.5 8H14.5C14.7761 8 15 8.22386 15 8.5V19.5C15 19.7761 14.7761 20 14.5 20H9.5C9.22386 20 9 19.7761 9 19.5V8.5Z" fill="#00B2B2"/>
</svg>
