<svg width="32" height="32" viewBox="0 0 32 32" fill="none" xmlns="http://www.w3.org/2000/svg">
<path d="M17.0002 1.99951C18.1047 1.99964 19.0002 2.896 19.0002 4.00049V6.00049H13.0002V4.00049C13.0002 2.89592 13.8957 1.99951 15.0002 1.99951H17.0002Z" fill="white"/>
<path d="M19.4998 5C21.4328 5 22.9998 6.567 22.9998 8.5V25.5C22.9998 27.433 21.4328 29 19.4998 29H12.4998C10.5669 28.9999 8.99982 27.4329 8.99982 25.5V8.5C8.99982 6.56706 10.5669 5.00009 12.4998 5H19.4998ZM12.4998 6C11.1192 6.00009 9.99982 7.11935 9.99982 8.5V25.5L10.0125 25.7559C10.1321 26.9322 11.0676 27.8677 12.244 27.9873L12.4998 28H19.4998C20.7942 28 21.859 27.0164 21.9871 25.7559L21.9998 25.5V8.5C21.9998 7.11929 20.8805 6 19.4998 6H12.4998Z" fill="white"/>
<path d="M11.5 8.5C11.5 7.94771 11.9477 7.5 12.5 7.5H19.5C20.0523 7.5 20.5 7.94772 20.5 8.5V25.5C20.5 26.0523 20.0523 26.5 19.5 26.5H12.5C11.9477 26.5 11.5 26.0523 11.5 25.5V8.5Z" fill="white" fill-opacity="0.25"/>
<path d="M11.5 11.5C11.5 10.9477 11.9477 10.5 12.5 10.5H19.5C20.0523 10.5 20.5 10.9477 20.5 11.5V25.5C20.5 26.0523 20.0523 26.5 19.5 26.5H12.5C11.9477 26.5 11.5 26.0523 11.5 25.5V11.5Z" fill="#00B2B2"/>
</svg>
