<svg width="16" height="16" viewBox="0 0 16 16" fill="none" xmlns="http://www.w3.org/2000/svg">
<path d="M8.75684 2.83118C9.1263 2.42072 9.75845 2.38752 10.1689 2.75696L15.1689 7.25696C15.3796 7.44659 15.5 7.71671 15.5 8.00012C15.5 8.28354 15.3796 8.55367 15.1689 8.74329L10.1689 13.2433C9.75849 13.6127 9.12631 13.5794 8.75684 13.1691C8.3874 12.7586 8.4206 12.1264 8.83105 11.757L11.8945 9.00012H1.5C0.947757 9.00012 0.500067 8.55235 0.5 8.00012C0.5 7.44784 0.947715 7.00012 1.5 7.00012H11.8945L8.83105 4.24329C8.4206 3.87383 8.38741 3.24167 8.75684 2.83118Z" fill="white"/>
</svg>
