<svg width="16" height="16" viewBox="0 0 16 16" fill="none" xmlns="http://www.w3.org/2000/svg">
<g clip-path="url(#clip0_283_3562)">
<path fill-rule="evenodd" clip-rule="evenodd" d="M8.99973 12.5002C8.9996 13.0524 8.55194 13.5002 7.99973 13.5002C7.44761 13.5001 6.99986 13.0524 6.99973 12.5002V12.0002H8.99973V12.5002ZM8.83665 3.00024C10.5836 3.00026 11.9997 4.41641 11.9997 6.16333C11.9996 7.36118 11.323 8.45658 10.2517 8.99243L9.947 9.14478C9.36671 9.43503 8.99984 10.0282 8.99973 10.677V11.0002H6.99973V10.677C6.99984 9.27063 7.79461 7.98475 9.05247 7.35571L9.35715 7.20337C9.75088 7.0063 9.99964 6.60363 9.99973 6.16333C9.99971 5.52098 9.47899 5.00026 8.83665 5.00024H8.16184C7.28897 5.00047 6.67214 5.85569 6.94797 6.68384C7.12248 7.20764 6.83984 7.77374 6.31614 7.94849C5.79241 8.12292 5.22629 7.84023 5.05149 7.31665C4.34372 5.19335 5.92375 3.00047 8.16184 3.00024H8.83665Z" fill="white"/>
<path d="M8 0C12.4183 0 16 3.58172 16 8C16 12.4183 12.4183 16 8 16C3.58172 16 0 12.4183 0 8C0 3.58172 3.58172 0 8 0ZM8 2C4.68629 2 2 4.68629 2 8C2 11.3137 4.68629 14 8 14C11.3137 14 14 11.3137 14 8C14 4.68629 11.3137 2 8 2Z" fill="white"/>
</g>
<defs>
<clipPath id="clip0_283_3562">
<rect width="16" height="16" fill="white"/>
</clipPath>
</defs>
</svg>
