<svg width="16" height="16" viewBox="0 0 16 16" fill="none" xmlns="http://www.w3.org/2000/svg">
<path fill-rule="evenodd" clip-rule="evenodd" d="M7.7242 9.58236C7.91828 9.4542 8.18225 9.47595 8.35311 9.64681L11.8531 13.1468C12.0484 13.3421 12.0484 13.6586 11.8531 13.8538C11.6578 14.0489 11.3413 14.049 11.1461 13.8538L7.99959 10.7074L4.85311 13.8538C4.65783 14.0489 4.34126 14.049 4.14608 13.8538C3.9509 13.6587 3.95107 13.3421 4.14608 13.1468L7.64608 9.64681L7.7242 9.58236ZM11.1471 2.14681C11.3423 1.95156 11.6588 1.95155 11.8541 2.14681C12.049 2.3421 12.0492 2.65869 11.8541 2.85384L8.35408 6.35384C8.15893 6.54899 7.84234 6.54878 7.64705 6.35384L4.14705 2.85384C3.95179 2.65858 3.9518 2.34208 4.14705 2.14681C4.34231 1.95155 4.65882 1.95155 4.85408 2.14681L8.00057 5.2933L11.1471 2.14681Z" fill="white"/>
</svg>
