<svg width="16" height="16" viewBox="0 0 16 16" fill="none" xmlns="http://www.w3.org/2000/svg">
<path d="M13 1.00003C14.1046 1.00003 15 1.89546 15 3.00003V10C15 11.1046 14.1046 12 13 12H6C4.89544 12 4.00002 11.1046 4 10V3.00003C4 1.89546 4.89543 1.00003 6 1.00003H13ZM6 10H13V3.00003H6V10Z" fill="white"/>
<path fill-rule="evenodd" clip-rule="evenodd" d="M12.0005 8.99976H7.00049L12.0005 4.99976V8.99976ZM8.00049 3.99976C8.55247 4.00002 9.00036 4.44775 9.00049 4.99976C9.00049 5.55188 8.55255 5.99949 8.00049 5.99976C7.4482 5.99976 7.00049 5.55204 7.00049 4.99976C7.00062 4.44758 7.44828 3.99976 8.00049 3.99976Z" fill="#00B2B2"/>
<path fill-rule="evenodd" clip-rule="evenodd" d="M2.00049 2.99957C2.55241 2.99984 3.00026 3.44765 3.00049 3.99957V9.99957C3.00049 11.6564 4.34363 12.9996 6.00049 12.9996H12.0005C12.5524 12.9998 13.0003 13.4476 13.0005 13.9996C13.0005 14.5517 12.5525 14.9993 12.0005 14.9996H6.00049C3.23906 14.9996 0.999512 12.761 0.999512 9.99957V3.99957C0.999742 3.44748 1.44835 2.99957 2.00049 2.99957Z" fill="white"/>
</svg>
