<svg width="48" height="48" viewBox="0 0 24 24" fill="none" xmlns="http://www.w3.org/2000/svg">
<path d="M2 5C2.55228 5 3 5.44772 3 6V16C3 18.7614 5.23858 21 8 21H18C18.5523 21 19 21.4477 19 22C19 22.5523 18.5523 23 18 23H8C4.13401 23 1 19.866 1 16V6C1 5.44772 1.44772 5 2 5Z" fill="white"/>
<path d="M18.9995 2C20.6564 2 21.9995 3.34315 21.9995 5V16C21.9995 17.6569 20.6564 19 18.9995 19H7.99951C6.34287 18.9997 4.99951 17.6567 4.99951 16V5C4.99951 3.3433 6.34287 2.00025 7.99951 2H18.9995ZM7.99951 4C7.44744 4.00025 6.99951 4.44787 6.99951 5V16C6.99951 16.5521 7.44744 16.9997 7.99951 17H18.9995C19.5518 17 19.9995 16.5523 19.9995 16V5C19.9995 4.44772 19.5518 4 18.9995 4H7.99951Z" fill="white"/>
<path fill-rule="evenodd" clip-rule="evenodd" d="M15.0004 7.99976C15.3515 7.99989 15.6772 8.1841 15.8578 8.48511L18.8578 13.4851C19.0431 13.7939 19.0479 14.1795 18.8705 14.4929C18.693 14.8061 18.3604 14.9996 18.0004 14.9998H9.00043C8.62166 14.9998 8.27529 14.7858 8.1059 14.447C7.93656 14.1083 7.97347 13.7031 8.20062 13.4001L9.70062 11.4001L9.77582 11.3103C9.96336 11.1133 10.2251 10.9998 10.5004 10.9998C10.815 10.9999 11.1115 11.1484 11.3002 11.4001L11.9077 12.2097L14.143 8.48511L14.2172 8.37769C14.4054 8.1409 14.6933 7.99976 15.0004 7.99976ZM10.5004 5.99976C11.3285 6.00002 12.0003 6.6716 12.0004 7.49976C12.0004 8.32802 11.3286 8.99949 10.5004 8.99976C9.672 8.99976 9.00043 8.32818 9.00043 7.49976C9.00056 6.67144 9.67208 5.99976 10.5004 5.99976Z" fill="#00B2B2"/>
</svg>
