<svg width="18" height="18" viewBox="0 0 18 18" fill="none" xmlns="http://www.w3.org/2000/svg">
<path d="M17.5 0.5V17.5H0.5V0.5H17.5Z" stroke="white" stroke-opacity="0.1"/>
<path d="M8.99951 2.99973C9.27557 2.99973 9.49937 3.2237 9.49951 3.49973V14.4997C9.49951 14.7759 9.27565 14.9997 8.99951 14.9997C8.72348 14.9996 8.49951 14.7758 8.49951 14.4997V3.49973C8.49965 3.22379 8.72357 2.99986 8.99951 2.99973Z" fill="white"/>
<path d="M7 9.49973H3.5C3.22397 9.49959 3 9.27579 3 8.99973C3.00016 8.7238 3.22407 8.49986 3.5 8.49973H7V9.49973ZM14.5 8.49973C14.776 8.49973 14.9998 8.72372 15 8.99973C15 9.27587 14.7761 9.49973 14.5 9.49973H11V8.49973H14.5Z" fill="white"/>
</svg>
