<svg width="16" height="16" viewBox="0 0 16 16" fill="none" xmlns="http://www.w3.org/2000/svg">
<path d="M7.99951 1.99973C8.27557 1.99973 8.49937 2.2237 8.49951 2.49973V13.4997C8.49951 13.7759 8.27565 13.9997 7.99951 13.9997C7.72348 13.9996 7.49951 13.7758 7.49951 13.4997V2.49973C7.49965 2.22379 7.72357 1.99986 7.99951 1.99973Z" fill="white"/>
<path d="M6 8.49973H2.5C2.22397 8.49959 2 8.27579 2 7.99973C2.00016 7.7238 2.22407 7.49986 2.5 7.49973H6V8.49973ZM13.5 7.49973C13.776 7.49973 13.9998 7.72372 14 7.99973C14 8.27587 13.7761 8.49973 13.5 8.49973H10V7.49973H13.5Z" fill="white"/>
</svg>
