<svg width="16" height="16" viewBox="0 0 16 16" fill="none" xmlns="http://www.w3.org/2000/svg">
<path d="M13.7578 1.03035C14.0985 0.945302 14.4587 1.04474 14.707 1.29305C14.9553 1.54137 15.0548 1.9016 14.9697 2.24226L13.0479 9.92976C12.3029 12.9094 9.62601 15 6.55469 15.0001C5.69264 15.0001 4.87646 14.8037 4.14844 14.4532C4.19246 14.3957 4.23723 14.3388 4.28125 14.2813C6.18954 11.7897 8.09855 9.29836 10.0068 6.80672C10.1225 6.65575 10.2379 6.50456 10.3535 6.35359L9.64648 5.64656C9.49551 5.76218 9.34433 5.87762 9.19336 5.99324C6.70171 7.90153 4.2104 9.81053 1.71875 11.7188C1.66123 11.7629 1.60343 11.8066 1.5459 11.8507C1.19579 11.1229 1.00002 10.307 1 9.44539C1 6.374 3.09063 3.69715 6.07031 2.95222L13.7578 1.03035Z" fill="white"/>
</svg>
