<svg width="16" height="16" viewBox="0 0 16 16" fill="none" xmlns="http://www.w3.org/2000/svg">
<path d="M8.23828 8C11.4203 8.00011 13.9999 10.5797 14 13.7617C14 14.4455 13.4455 15 12.7617 15H3.23828C2.5545 15 2 14.4455 2 13.7617C2.0001 10.5797 4.57965 8.0001 7.76172 8H8.23828ZM7.76172 10C5.94519 10.0001 4.42936 11.2877 4.07715 13H11.9229C11.5706 11.2877 10.0548 10.0001 8.23828 10H7.76172ZM8 1C9.65685 1.00001 11 2.34315 11 4C11 5.65685 9.65685 6.99999 8 7C6.34315 7 5 5.65685 5 4C5 2.34315 6.34315 1 8 1ZM8 3C7.44772 3 7 3.44772 7 4C7 4.55228 7.44772 5 8 5C8.55228 4.99999 9 4.55228 9 4C9 3.44772 8.55228 3.00001 8 3Z" fill="white"/>
</svg>
