<svg width="32" height="32" viewBox="0 0 32 32" fill="none" xmlns="http://www.w3.org/2000/svg">
<path d="M16 16C22.6274 16 27.9999 21.3726 28 28V28.4287C27.9999 29.2965 27.2965 29.9999 26.4287 30H5.57129C4.70352 29.9999 4.00008 29.2965 4 28.4287V28C4.00006 21.3726 9.37262 16 16 16ZM16 18C10.4772 18 6.00006 22.4772 6 28H26C25.9999 22.4772 21.5228 18 16 18ZM16 2C19.3137 2 22 4.68629 22 8C22 11.3137 19.3137 14 16 14C12.6863 14 10 11.3137 10 8C10 4.68629 12.6863 2 16 2ZM16 4C13.7909 4 12 5.79086 12 8C12 10.2091 13.7909 12 16 12C18.2091 12 20 10.2091 20 8C20 5.79086 18.2091 4 16 4Z" fill="white"/>
</svg>
