<svg width="16" height="16" viewBox="0 0 16 16" fill="none" xmlns="http://www.w3.org/2000/svg">
<path d="M13 1.00003C14.1046 1.00003 15 1.89546 15 3.00003V10C15 11.1046 14.1046 12 13 12H6C4.89544 12 4.00002 11.1046 4 10V3.00003C4 1.89546 4.89543 1.00003 6 1.00003H13ZM6 10H13V3.00003H6V10Z" fill="white"/>
<path fill-rule="evenodd" clip-rule="evenodd" d="M2.00049 3.99957C2.55241 3.99984 3.00026 4.44765 3.00049 4.99957V9.99957C3.00049 11.6564 4.34363 12.9996 6.00049 12.9996H11.0005C11.5524 12.9998 12.0003 13.4476 12.0005 13.9996C12.0005 14.5517 11.5525 14.9993 11.0005 14.9996H6.00049C3.23906 14.9996 0.999512 12.761 0.999512 9.99957V4.99957C0.999742 4.44748 1.44835 3.99957 2.00049 3.99957Z" fill="white"/>
<path fill-rule="evenodd" clip-rule="evenodd" d="M8.28369 4.04944C8.45681 3.96649 8.66306 3.98907 8.81299 4.10901L11.313 6.10901C11.4314 6.20382 11.5004 6.34793 11.5005 6.49964C11.5005 6.65133 11.4313 6.79537 11.313 6.89026L8.81299 8.89026C8.66298 9.01027 8.45687 9.03295 8.28369 8.94983C8.11066 8.86651 8.00049 8.69171 8.00049 8.49964V4.49964C8.00063 4.3077 8.11077 4.13272 8.28369 4.04944Z" fill="#00B2B2"/>
</svg>
