<svg width="32" height="32" viewBox="0 0 24 24" fill="none" xmlns="http://www.w3.org/2000/svg">
<path d="M2 5C2.55228 5 3 5.44772 3 6V16C3 18.7614 5.23858 21 8 21H18C18.5523 21 19 21.4477 19 22C19 22.5523 18.5523 23 18 23H8C4.13401 23 1 19.866 1 16V6C1 5.44772 1.44772 5 2 5Z" fill="white"/>
<path d="M18.9995 2C20.6564 2 21.9995 3.34315 21.9995 5V16C21.9995 17.6569 20.6564 19 18.9995 19H7.99951C6.34287 18.9997 4.99951 17.6567 4.99951 16V5C4.99951 3.3433 6.34287 2.00025 7.99951 2H18.9995ZM7.99951 4C7.44744 4.00025 6.99951 4.44787 6.99951 5V16C6.99951 16.5521 7.44744 16.9997 7.99951 17H18.9995C19.5518 17 19.9995 16.5523 19.9995 16V5C19.9995 4.44772 19.5518 4 18.9995 4H7.99951Z" fill="white"/>
<path fill-rule="evenodd" clip-rule="evenodd" d="M11.5156 7.12513C11.8335 6.94916 12.2222 6.9599 12.5303 7.15247L16.5303 9.65247C16.8224 9.83525 17 10.1555 17 10.5001C17 10.8447 16.8224 11.165 16.5303 11.3478L12.5303 13.8478C12.2222 14.0403 11.8335 14.0511 11.5156 13.8751C11.1977 13.6989 11 13.3636 11 13.0001V8.00013C11 7.63662 11.1977 7.30136 11.5156 7.12513Z" fill="#00B2B2"/>
</svg>
