<svg width="18" height="18" viewBox="0 0 18 18" fill="none" xmlns="http://www.w3.org/2000/svg">
<path d="M17.5 0.5V17.5H0.5V0.5H17.5Z" stroke="white" stroke-opacity="0.1"/>
<path d="M3.36084 11.1749L3.0249 11.0626C2.41281 10.8583 1.99956 10.2851 1.99951 9.63977L1.99951 7.5929C1.99951 7.29475 2.1064 7.00589 2.30029 6.77942L5.16553 3.43665C5.4029 3.15974 5.75004 3.00026 6.11475 3.00012L11.8843 3.00012C12.2491 3.00012 12.596 3.15973 12.8335 3.43665L15.6987 6.77942C15.8928 7.00594 15.9995 7.29462 15.9995 7.5929L15.9995 9.63977C15.9995 10.2853 15.5864 10.8584 14.9741 11.0626L14.6392 11.1749L15.3335 15.0001L2.66553 15.0001L3.36084 11.1749ZM7.99951 14.0001C8.55167 14.0001 8.99931 13.5522 8.99951 13.0001V11.0001H9.49951C10.8801 11.0001 11.9993 9.88067 11.9995 8.50012C11.9994 7.11952 10.8801 6.00012 9.49951 6.00012L7.99951 6.00012C7.73447 6.00025 7.4799 6.10567 7.29248 6.29309C7.10519 6.48054 6.99958 6.73514 6.99951 7.00012L6.99951 13.0001C6.99971 13.5521 7.44757 13.9999 7.99951 14.0001ZM8.99951 9.00012V8.00012H9.49951C9.77557 8.00012 9.99938 8.22409 9.99951 8.50012C9.99931 8.7761 9.77553 9.00012 9.49951 9.00012H8.99951Z" fill="white"/>
</svg>
