<svg width="16" height="16" viewBox="0 0 16 16" fill="none" xmlns="http://www.w3.org/2000/svg">
<path d="M4.99951 13.7144C3.83184 13.4915 2.68993 13.1403 1.59619 12.6626C0.733306 12.2854 0.414889 11.2787 0.803223 10.482L4.19775 3.5181L4.27979 3.36868C4.46029 3.07696 4.71465 2.86997 4.99951 2.74368V13.7144ZM10.9995 2.74075C11.2853 2.86692 11.5401 3.07531 11.7212 3.36771L11.8032 3.51712L15.1997 10.48C15.5883 11.2767 15.2706 12.2833 14.4077 12.6607C13.3126 13.1393 12.169 13.4912 10.9995 13.7144V2.74075Z" fill="white"/>
<path d="M8 0.999786C8.55221 0.999786 8.99988 1.4476 9 1.99979V13.9998C9 14.5521 8.55228 14.9998 8 14.9998C7.44788 14.9996 7 14.552 7 13.9998V1.99979C7.00012 1.44772 7.44795 0.999983 8 0.999786Z" fill="white"/>
</svg>
