<svg width="48" height="48" viewBox="0 0 24 24" fill="none" xmlns="http://www.w3.org/2000/svg">
<path d="M6.45703 4.09178C6.94145 3.09787 8.07275 2.75442 9.00098 3.06346V19.8183C6.58774 19.5266 4.22583 18.8858 1.99219 17.9101C0.940378 17.4503 0.545958 16.2206 1.02441 15.2383L6.45703 4.09178ZM15.001 3.06346C15.9292 2.75378 17.0611 3.09585 17.5459 4.08983L22.9814 15.2353C23.46 16.2176 23.0657 17.4483 22.0137 17.9082C19.7788 18.8852 17.4156 19.5254 15.001 19.8174V3.06346Z" fill="white"/>
<path d="M12.0005 1.0004C12.5528 1.0004 13.0005 1.44811 13.0005 2.0004V22.0004C13.0003 22.5525 12.5526 23.0004 12.0005 23.0004C11.4484 23.0004 11.0007 22.5525 11.0005 22.0004V2.0004C11.0005 1.44813 11.4482 1.00042 12.0005 1.0004Z" fill="white"/>
</svg>
