<svg width="16" height="16" viewBox="0 0 16 16" fill="none" xmlns="http://www.w3.org/2000/svg">
<path fill-rule="evenodd" clip-rule="evenodd" d="M6.5 9.00003C6.77612 9.00005 6.99999 9.2239 7 9.50003V14.5C6.99998 14.7761 6.77612 15 6.5 15C6.22387 15 6.00002 14.7762 6 14.5V10H1.5C1.22387 10 1.00002 9.77616 1 9.50003C1.00001 9.2239 1.22386 9.00003 1.5 9.00003H6.5ZM9.5 1.00003C9.77613 1.00004 10 1.2239 10 1.50003V6.00003H14.5C14.7761 6.00005 15 6.22391 15 6.50003C15 6.77614 14.7761 7.00001 14.5 7.00003H9.5C9.22387 7.00003 9.00002 6.77616 9 6.50003V1.50003C9 1.22389 9.22386 1.00003 9.5 1.00003Z" fill="white"/>
</svg>
