<svg width="16" height="16" viewBox="0 0 16 16" fill="none" xmlns="http://www.w3.org/2000/svg">
<path d="M5 6.43509L2.78125 10.9888C3.50178 11.2783 4.2439 11.5071 5 11.6734V13.7144C3.83232 13.4916 2.69051 13.1403 1.59668 12.6626C0.73343 12.2856 0.415305 11.2789 0.803711 10.482L4.19824 3.5181L4.28027 3.36868C4.46084 3.07697 4.7152 2.86993 5 2.74368V6.43509ZM11 2.74075C11.2857 2.86686 11.5407 3.07525 11.7217 3.36771L11.8037 3.51712L15.2002 10.48C15.5887 11.2766 15.2709 12.2832 14.4082 12.6607C13.3131 13.1393 12.1693 13.4912 11 13.7144V11.6734C11.7573 11.507 12.5011 11.278 13.2227 10.9878L11 6.43118V2.74075Z" fill="white"/>
<path d="M8 0.999786C8.55221 0.999786 8.99988 1.4476 9 1.99979V13.9998C9 14.5521 8.55228 14.9998 8 14.9998C7.44788 14.9996 7 14.552 7 13.9998V1.99979C7.00012 1.44772 7.44795 0.999983 8 0.999786Z" fill="white"/>
</svg>
