<svg width="32" height="32" viewBox="0 0 24 24" fill="none" xmlns="http://www.w3.org/2000/svg">
<path d="M6.45703 4.09193C6.94132 3.09829 8.07191 2.75402 9 3.06264V5.1642C8.78906 5.10198 8.57899 5.03643 8.37207 4.96107C8.33454 4.9474 8.29721 4.94932 8.27246 4.95815C8.2618 4.96201 8.25613 4.96588 8.25488 4.96693V4.96791L2.83105 16.0939C4.80053 16.95 6.87738 17.5235 9 17.8029V19.8175C6.58717 19.5257 4.22554 18.8858 1.99219 17.9103C0.940396 17.4505 0.545997 16.2207 1.02441 15.2384L6.45703 4.09193ZM15 3.06361C15.9284 2.75349 17.061 3.09573 17.5459 4.08998L22.9814 15.2355C23.4599 16.2177 23.0655 17.4485 22.0137 17.9083C19.7785 18.8854 17.4149 19.5256 15 19.8175V17.8029C17.1243 17.523 19.203 16.9483 21.1738 16.091L15.748 4.96693V4.96596C15.747 4.96508 15.7412 4.96111 15.7305 4.95717C15.7057 4.94827 15.6685 4.94641 15.6309 4.9601C15.423 5.03587 15.2119 5.10169 15 5.1642V3.06361Z" fill="white"/>
<path d="M12 1C12.5523 1 13 1.44772 13 2V22C13 22.5523 12.5523 23 12 23C11.4479 22.9998 11 22.5521 11 22V2C11 1.44786 11.4479 1.00023 12 1Z" fill="white"/>
</svg>
