<svg width="16" height="16" viewBox="0 0 16 16" fill="none" xmlns="http://www.w3.org/2000/svg">
<g clip-path="url(#clip0_283_3553)">
<path fill-rule="evenodd" clip-rule="evenodd" d="M8.49988 12.5002C8.49975 12.7763 8.27594 13.0002 7.99988 13.0002C7.72394 13.0001 7.50001 12.7762 7.49988 12.5002V12.0002H8.49988V12.5002ZM8.83679 3.50024C10.3076 3.50026 11.4999 4.69256 11.4999 6.16333C11.4998 7.17179 10.9301 8.09401 10.0282 8.54517L9.72351 8.69751C8.97387 9.07248 8.49999 9.83881 8.49988 10.677V11.0002H7.49988V10.677C7.49999 9.46004 8.18782 8.34734 9.27624 7.80298L9.58093 7.65063C10.1441 7.36887 10.4998 6.79302 10.4999 6.16333C10.4999 5.24484 9.75528 4.50026 8.83679 4.50024H8.16199C6.94778 4.50053 6.09049 5.69007 6.47449 6.84204C6.56172 7.10398 6.42001 7.38754 6.15808 7.47485C5.89624 7.56194 5.61261 7.42023 5.52527 7.15845C4.92543 5.35894 6.26523 3.50053 8.16199 3.50024H8.83679Z" fill="white"/>
<path d="M8 0C12.4183 0 16 3.58172 16 8C16 12.4183 12.4183 16 8 16C3.58172 16 0 12.4183 0 8C0 3.58172 3.58172 0 8 0ZM8 1C4.13401 1 1 4.13401 1 8C1 11.866 4.13401 15 8 15C11.866 15 15 11.866 15 8C15 4.13401 11.866 1 8 1Z" fill="white"/>
</g>
<defs>
<clipPath id="clip0_283_3553">
<rect width="16" height="16" fill="white"/>
</clipPath>
</defs>
</svg>
