<svg width="48" height="48" viewBox="0 0 32 32" fill="none" xmlns="http://www.w3.org/2000/svg">
<g transform="translate(3.0000 5.0000)">
<g id="Group 3">
<path id="Path" d="M17.467 6.29046C17.5896 6.07909 17.8715 6.00095 18.0967 6.11593C18.322 6.23091 18.4053 6.49547 18.2827 6.70684C18.0732 7.0683 17.8631 7.50006 17.6532 8.00159C17.5605 8.22305 17.2956 8.33377 17.0582 8.25031C16.4817 8.04768 15.8705 7.70237 15.2446 7.23296C14.4737 6.72799 14.0221 6.25271 13.8368 5.62694C13.6505 4.99754 13.6522 3.29433 13.8257 0.411135C13.8401 0.170896 14.0594 -0.0128593 14.3154 0.00070518C14.5714 0.0142697 14.7672 0.220018 14.7527 0.460256C14.5867 3.21921 14.5851 4.89909 14.7315 5.39369C14.8467 5.78296 15.1657 6.11858 15.7998 6.53504C16.2164 6.84674 16.6076 7.0891 16.9718 7.26285C17.1353 6.90221 17.3003 6.57815 17.467 6.29046Z" fill="white"/>
<path id="Path Copy 4" d="M9.57816 12.1398C9.58349 12.3804 9.37999 12.5794 9.12363 12.5844C8.86727 12.5894 8.65512 12.3985 8.64979 12.1579C8.63744 11.6008 8.58014 11.0271 8.47882 10.4713C8.45754 10.3546 8.48782 10.2347 8.56268 10.1394C9.14007 9.40405 9.79807 8.71301 10.5364 8.06638C10.8091 7.82754 11.5411 7.14742 11.4855 7.19788C11.8044 6.90854 12.0152 6.75093 12.2546 6.64747C12.4538 6.56139 12.6587 6.52437 12.877 6.53736C13.4296 6.57023 14.2346 7.15137 15.4637 8.3137C16.202 8.96032 16.86 9.65137 17.4374 10.3867C17.5123 10.482 17.5426 10.6019 17.5213 10.7186C17.4372 11.1797 17.3834 11.6534 17.3604 12.1208C17.3486 12.3612 17.1314 12.5471 16.8753 12.536C16.6191 12.5249 16.4211 12.3211 16.4329 12.0807C16.4545 11.6405 16.5015 11.1952 16.5737 10.7577C16.0588 10.1202 15.4769 9.51713 14.8175 8.93916C13.7664 7.94563 13.0385 7.42008 12.8183 7.40698C12.7556 7.40325 12.7041 7.41256 12.643 7.43896C12.5256 7.4897 12.3788 7.59946 12.1309 7.82436C12.1952 7.76602 11.4546 8.45409 11.1699 8.70339C10.5223 9.27063 9.94121 9.87293 9.42638 10.5104C9.51547 11.0504 9.56623 11.6019 9.57816 12.1398Z" fill="white"/>
<path id="Path_2" d="M10.7868 5.29569C10.9605 4.9713 10.9599 3.28255 10.7368 0.468022C10.7178 0.228063 10.9097 0.0190691 11.1654 0.00122029C11.4211 -0.0166285 11.6438 0.163427 11.6628 0.403385C11.9055 3.46455 11.9061 5.14622 11.6165 5.68698C11.3637 6.15886 9.47448 7.69125 8.6297 8.20743C8.39193 8.35271 8.07214 8.26565 7.95414 8.02353C7.59966 7.2962 7.36283 6.82303 7.24721 6.61062C7.13056 6.39634 7.22111 6.13389 7.44946 6.02443C7.67781 5.91497 7.95748 5.99994 8.07413 6.21423C8.16873 6.38801 8.33118 6.70898 8.56306 7.18005C9.39424 6.58358 10.6585 5.53525 10.7868 5.29569Z" fill="white"/>
<path id="Path 10" d="M10.6001 6.08583C10.7627 6.41295 10.6119 6.80178 10.2633 6.95431C9.91469 7.10684 9.50033 6.96531 9.33779 6.63819C8.60383 5.16109 7.72678 4.13744 7.45596 4.13744C7.31285 4.13744 6.83248 4.37637 6.27447 4.80906C5.56548 5.35881 4.81861 6.13362 4.14428 7.05359C2.4287 9.39409 1.39285 12.3193 1.39285 15.5924L1.39285 19.6588C1.39561 20.4585 1.53167 20.6761 1.73994 20.6761C1.86814 20.6761 1.9115 20.6769 2.27763 20.6849C3.65137 20.715 4.5199 20.6631 5.47517 20.4111C5.93124 20.2908 6.35196 20.1295 6.73593 19.9226C8.54713 18.9464 10.0178 17.8021 10.3819 17.1544C10.6346 16.7047 10.684 15.8579 10.6771 12.5951C10.6762 12.1294 10.6758 11.87 10.6758 11.5658C10.6758 10.9957 10.4943 10.2004 10.1916 9.39461C10.0637 9.0542 10.2541 8.68098 10.6168 8.56099C10.9796 8.44099 11.3773 8.61967 11.5052 8.96007C11.8559 9.89371 12.0686 10.8258 12.0686 11.5658C12.0686 11.8689 12.069 12.1276 12.07 12.5925C12.0777 16.2497 12.0328 17.0187 11.6139 17.7641C11.0948 18.6878 9.45187 19.9661 7.42962 21.056C6.94168 21.319 6.41479 21.521 5.85209 21.6694C4.72757 21.966 3.74854 22.0245 2.24518 21.9916C1.8949 21.984 1.85198 21.9832 1.73994 21.9832C0.564537 21.9832 0.00492526 21.0883 0 19.6609V15.5924C0 12.0453 1.1264 8.86444 2.9967 6.31286C4.47898 4.29064 6.36219 2.83039 7.45596 2.83039C8.51396 2.83039 9.62951 4.13242 10.6001 6.08583Z" fill="white"/>
<path id="Path 10 Copy" d="M16.6367 6.68196C16.4797 7.01146 16.0678 7.15915 15.7166 7.01183C15.3655 6.86452 15.2081 6.47798 15.3651 6.14848C16.328 4.1274 17.4436 2.83057 18.544 2.83057C19.6378 2.83057 21.521 4.29082 23.0032 6.31304C24.8735 8.86462 25.9999 12.0455 25.9999 15.5926L25.9999 19.6632C25.995 21.0884 25.4354 21.9834 24.26 21.9834C24.148 21.9834 24.105 21.9842 23.7548 21.9918C22.2514 22.0247 21.2724 21.9662 20.1479 21.6696C19.5852 21.5211 19.0583 21.3192 18.5703 21.0562C16.5481 19.9663 14.9052 18.688 14.386 17.7643C13.9671 17.0189 13.9223 16.2499 13.9299 12.5927C13.9309 12.1278 13.9313 11.8691 13.9313 11.566C13.9313 10.7522 14.0517 10.0186 14.3279 9.01775C14.4243 8.66834 14.8043 8.45843 15.1766 8.5489C15.549 8.63937 15.7726 8.99596 15.6762 9.34537C15.4273 10.2475 15.3242 10.8762 15.3242 11.566C15.3242 11.8702 15.3238 12.1296 15.3228 12.5953C15.3159 15.8581 15.3653 16.7049 15.6181 17.1546C15.9821 17.8023 17.4528 18.9466 19.264 19.9228C19.648 20.1297 20.0687 20.291 20.5248 20.4113C21.48 20.6633 22.3486 20.7152 23.7223 20.6851C24.0884 20.6771 24.1318 20.6763 24.26 20.6763C24.4683 20.6763 24.6043 20.4587 24.6071 19.6611V15.5926C24.6071 12.3195 23.5712 9.39427 21.8557 7.05377C21.1813 6.1338 20.4345 5.35899 19.7255 4.80923C19.1675 4.37655 18.6871 4.13762 18.544 4.13762C18.2302 4.13762 17.3756 5.13101 16.6367 6.68196Z" fill="white"/>
</g>
</g>
</svg>
