<svg width="16" height="16" viewBox="0 0 16 16" fill="none" xmlns="http://www.w3.org/2000/svg">
<path d="M13 1.00003C14.1046 1.00003 15 1.89546 15 3.00003V10C15 11.1046 14.1046 12 13 12H6C4.89544 12 4.00002 11.1046 4 10V3.00003C4 1.89546 4.89543 1.00003 6 1.00003H13ZM6 2.00003C5.44772 2.00003 5 2.44775 5 3.00003V10L5.00488 10.1026C5.0528 10.573 5.42704 10.9472 5.89746 10.9951L6 11H13L13.1025 10.9951C13.6067 10.9438 14 10.5177 14 10V3.00003C14 2.44775 13.5523 2.00003 13 2.00003H6Z" fill="white"/>
<path fill-rule="evenodd" clip-rule="evenodd" d="M1.50049 3.99957C1.77626 3.99984 2.00026 4.22379 2.00049 4.49957V10.4996C2.00049 12.4326 3.56749 13.9996 5.50049 13.9996H11.5005C11.7763 13.9998 12.0003 14.2238 12.0005 14.4996C12.0005 14.7756 11.7764 14.9993 11.5005 14.9996H5.50049C3.01521 14.9996 0.999512 12.9849 0.999512 10.4996V4.49957C0.999742 4.22363 1.22449 3.99957 1.50049 3.99957Z" fill="white"/>
<path fill-rule="evenodd" clip-rule="evenodd" d="M8.28369 4.0501C8.45687 3.967 8.66298 3.98967 8.81299 4.10967L11.313 6.10967C11.4313 6.20456 11.5005 6.3486 11.5005 6.5003C11.5004 6.65201 11.4314 6.7961 11.313 6.89092L8.81299 8.89092C8.66305 9.01087 8.45682 9.03346 8.28369 8.95049C8.11075 8.86721 7.99963 8.69226 7.99951 8.5003V4.5003C7.99951 4.30822 8.11066 4.13343 8.28369 4.0501Z" fill="#00B2B2"/>
</svg>
