<svg width="48" height="48" viewBox="0 0 24 24" fill="none" xmlns="http://www.w3.org/2000/svg">
<path d="M19 2C20.6569 2 22 3.34315 22 5V16C22 17.6569 20.6569 19 19 19H8C6.34315 19 5 17.6569 5 16V5C5 3.34315 6.34315 2 8 2H19ZM8 3C6.89543 3 6 3.89543 6 5V16L6.01074 16.2041C6.1062 17.1457 6.85435 17.8938 7.7959 17.9893L8 18H19L19.2041 17.9893C20.2128 17.887 21 17.0357 21 16V5C21 3.89543 20.1046 3 19 3H8Z" fill="white"/>
<path d="M2.5 5C2.77614 5 3 5.22386 3 5.5V15.5C3 18.5376 5.46243 21 8.5 21H18.5C18.7761 21 19 21.2239 19 21.5C19 21.7761 18.7761 22 18.5 22H8.5C4.91015 22 2 19.0899 2 15.5V5.5C2 5.22386 2.22386 5 2.5 5Z" fill="white"/>
<path fill-rule="evenodd" clip-rule="evenodd" d="M11.5156 7.1248C11.8334 6.9489 12.2222 6.95964 12.5303 7.15215L16.5303 9.65215C16.8224 9.83489 16.9999 10.1552 17 10.4998C17 10.8444 16.8224 11.1647 16.5303 11.3475L12.5303 13.8475C12.2222 14.04 11.8335 14.0508 11.5156 13.8748C11.1977 13.6986 11 13.3633 11 12.9998V7.9998C11.0001 7.63635 11.1977 7.301 11.5156 7.1248Z" fill="#00B2B2"/>
</svg>
