<svg width="32" height="32" viewBox="0 0 32 32" fill="none" xmlns="http://www.w3.org/2000/svg">
<path d="M16 16.001C17.4874 16.001 18.9115 16.2723 20.2256 16.7676C21.6431 17.302 22.0767 18.9915 21.3994 20.3467C20.8928 21.36 19.8566 22.001 18.7236 22.001H17.5C15.5671 22.0011 14 23.5681 14 25.501V27.001C13.9997 28.6576 12.6567 30.001 11 30.001H5.57129C4.70393 30.0008 4.00055 29.297 4 28.4297V28.001C4 21.3736 9.37269 16.0011 16 16.001ZM5 28.4297C5.00007 28.469 5.00409 28.5078 5.01172 28.5449C5.01911 28.5807 5.03022 28.6155 5.04395 28.6484C5.01586 28.581 5.00007 28.5063 5 28.4287V28.4297ZM16 2C19.3137 2.00003 22 4.68631 22 8C22 11.3137 19.3137 14 16 14C12.6863 14 10 11.3137 10 8C10 4.68629 12.6863 2 16 2Z" fill="white"/>
<path fill-rule="evenodd" clip-rule="evenodd" d="M24.4998 22C24.8785 22 25.2249 22.214 25.3943 22.5527L28.1179 28H29.4998C30.052 28 30.4998 28.4477 30.4998 29C30.4998 29.5523 30.052 30 29.4998 30H27.4998C27.1211 29.9999 26.7746 29.786 26.6052 29.4473L24.4998 25.2363L22.3943 29.4473C22.2349 29.7659 21.9179 29.9758 21.5623 29.998C21.2066 30.0201 20.8654 29.8512 20.6677 29.5547L18.9646 27H17.4998C16.9476 26.9999 16.4998 26.5522 16.4998 26C16.4998 25.4478 16.9476 25.0001 17.4998 25H19.4998C19.8341 25 20.1463 25.1672 20.3318 25.4453L21.3757 27.0107L23.6052 22.5527L23.6765 22.4316C23.8614 22.1637 24.1684 22.0001 24.4998 22Z" fill="#00B2B2"/>
</svg>
