<svg width="48" height="48" viewBox="0 0 32 32" fill="none" xmlns="http://www.w3.org/2000/svg">
<g transform="translate(2.9999 6.5000)">
<g id="Group 379">
<path id="Combined Shape" d="M3.42398 16.5603C3.63919 16.363 3.83607 16.1549 4.04715 15.9096C4.068 15.8854 4.40325 15.4849 4.47914 15.4052C5.19776 14.6499 6.5728 13.9966 7.92398 13.9966C9.75404 13.9966 11.196 13.1423 12.6046 11.1238C12.8155 10.8215 13.228 10.7499 13.526 10.9639C13.824 11.1779 13.8945 11.5964 13.6836 11.8987C12.0402 14.2538 10.2105 15.3378 7.92398 15.3378C6.95031 15.3378 5.91078 15.8316 5.43036 16.3366C5.38879 16.3803 5.09211 16.7346 5.04296 16.7917C4.80025 17.0737 4.56888 17.3183 4.31041 17.5553C3.32204 18.4615 2.20409 19 0.895945 19C0.785937 19 0.67767 18.9721 0.580956 18.919C0.062021 18.6336 -0.0244009 18.1837 0.00510859 17.122C0.0184694 16.6413 0.198567 13.6803 0.235893 12.977C0.284739 12.0567 0.299481 11.4627 0.319174 10.085C0.348235 8.05187 0.407446 7.26726 0.679957 6.25961C0.837709 5.67629 1.06282 5.10897 1.3747 4.51551C2.90043 1.61231 5.58496 0.362479 10.1674 0.735201C10.677 0.776656 11.0002 0.798503 11.3514 0.816443C11.4112 0.819498 11.4736 0.822543 11.545 0.825906C11.6209 0.82948 11.7084 0.833486 11.8913 0.841839C12.0483 0.849053 12.1777 0.855177 12.3194 0.862179C12.6841 0.88019 12.9653 1.19466 12.9475 1.56456C12.9298 1.93446 12.6198 2.21973 12.2551 2.20172C12.1151 2.1948 11.9871 2.18874 11.8315 2.18159C11.6492 2.17326 11.5606 2.16921 11.4837 2.16559C11.4107 2.16215 11.3466 2.15902 11.2849 2.15587C10.92 2.13723 10.5839 2.11451 10.0617 2.07204C5.97219 1.7394 3.80043 2.7505 2.54128 5.14644C2.27469 5.65371 2.08623 6.12869 1.95486 6.61444C1.7221 7.47511 1.66848 8.1857 1.64105 10.1044C1.62112 11.4991 1.60605 12.106 1.556 13.0491C1.5175 13.7744 1.33923 16.7055 1.3266 17.1598C1.32116 17.3555 1.32111 17.5105 1.32588 17.6304C2.08965 17.5281 2.77764 17.1529 3.42398 16.5603Z" fill="white"/>
<path id="Combined Shape_2" d="M16.6921 2.38368C16.327 2.38368 16.0311 2.08346 16.0311 1.71311C16.0311 1.34277 16.327 1.04255 16.6921 1.04255C17.2735 1.04255 17.7616 1.08118 18.4285 1.16335C19.3508 1.27701 19.4356 1.28522 19.7098 1.27137C20.1091 1.25123 20.4754 1.22236 20.8964 1.18087C22.6669 1.00635 22.6241 1.00889 23.1813 1.12361C23.2612 1.14006 23.3569 1.15614 23.4992 1.17754C23.5381 1.18339 23.7238 1.21077 23.7766 1.21874C23.8924 1.23621 23.988 1.25154 24.0811 1.26793C25.2903 1.48075 26.0002 1.88425 26.0002 2.88583C26.0002 3.50271 25.6514 4.14312 25.0695 4.84786C24.7172 5.27454 24.2807 5.70896 24.0234 5.9235C24.0622 5.89115 23.5389 6.29465 23.3783 6.44269C23.1815 6.6241 23.0348 6.80133 22.943 6.9754C22.9521 6.95814 22.6834 7.55877 22.5266 7.85817C22.2364 8.41252 21.89 8.93177 21.453 9.4231C20.0816 10.965 18.0966 11.9184 15.3679 12.0283C15.0031 12.0431 14.6957 11.755 14.6812 11.3849C14.6667 11.0149 14.9507 10.703 15.3154 10.6883C17.6866 10.5927 19.3373 9.79991 20.4715 8.52467C20.8305 8.12111 21.1169 7.69176 21.3591 7.22912C21.4898 6.97934 21.7596 6.37639 21.7772 6.34299C21.9493 6.01659 22.1894 5.72649 22.4893 5.45009C22.7013 5.2547 23.2625 4.82192 23.1839 4.88748C23.3796 4.7243 23.7578 4.34794 24.0561 3.98668C24.4502 3.50942 24.6782 3.09072 24.6782 2.88583C24.6782 2.81567 24.4705 2.69762 23.8551 2.58932C23.774 2.57504 23.6883 2.56129 23.5821 2.54527C23.5322 2.53774 23.3467 2.5104 23.3052 2.50415C23.1417 2.47954 23.0265 2.4602 22.9184 2.43795C22.5585 2.36385 22.5745 2.36289 21.0242 2.5157C20.5841 2.55909 20.1977 2.58954 19.7755 2.61084C19.3889 2.63036 19.3007 2.62181 18.2691 2.4947C17.6506 2.41848 17.2108 2.38368 16.6921 2.38368Z" fill="white"/>
<path id="Path 24" d="M5.57738 15.6839C5.44703 15.4754 5.50797 15.1992 5.71349 15.067C5.91902 14.9347 6.1913 14.9966 6.32165 15.2051C6.74291 15.8789 7.11789 16.1526 7.60275 16.0849C8.11148 16.014 9.47489 14.5882 9.47489 14.307C9.47489 14.0601 9.67219 13.8599 9.91557 13.8599C10.1589 13.8599 10.3562 14.0601 10.3562 14.307C10.3562 15.0564 8.64934 16.8415 7.72278 16.9707C6.81565 17.0972 6.16323 16.621 5.57738 15.6839Z" fill="white"/>
<path id="Path 25" d="M14.1886 3.58911C14.0506 4.17884 13.8453 10.7413 13.9344 11.6862L13.9363 11.7365C13.9163 12.9081 13.8079 13.8071 13.6041 14.4436C13.5289 14.6784 13.2803 14.8069 13.0488 14.7307C12.8174 14.6544 12.6907 14.4022 12.7659 14.1674C12.9365 13.6345 13.0351 12.8236 13.0547 11.7446C12.9629 10.6274 13.1691 4.07491 13.3311 3.38255C13.4335 2.94521 12.9845 2.1078 12.737 2.1078C12.591 2.1078 12.4544 2.03436 12.3724 1.91173C11.9539 1.28607 12.0588 0.648852 12.6627 0.299668C13.1239 0.0330134 13.8614 -0.0527119 14.7955 0.0306469C16.4087 0.174605 16.914 0.605757 16.9473 1.55577C16.9873 1.68736 16.9715 1.83577 16.879 1.96856C16.8054 2.07435 16.2756 2.34923 16.1357 2.48593C15.9012 2.71514 15.7274 3.05538 15.6377 3.56449C15.3567 5.15933 15.2624 9.58693 15.4455 11.7169C15.4626 12.3721 15.6459 13.0751 15.9997 13.8267C16.1046 14.0495 16.0116 14.3163 15.792 14.4227C15.5724 14.5291 15.3093 14.4348 15.2044 14.212C14.7999 13.3528 14.5851 12.5287 14.566 11.7678C14.3781 9.59186 14.474 5.08752 14.7701 3.40717C14.8918 2.71616 15.1531 2.20474 15.5243 1.842C15.6913 1.67878 15.8625 1.56062 16.0579 1.45757C16.0132 1.10385 15.7817 1.01619 14.7183 0.921292C13.9466 0.852431 13.3708 0.919366 13.0991 1.07644C13.0054 1.13065 12.9739 1.16732 13.0127 1.25802C13.7877 1.50668 14.3857 2.7474 14.1886 3.58911Z" fill="white"/>
<path id="Path 26" d="M16.2275 1.37346C16.2334 1.37057 16.2371 1.36876 16.2378 1.36841C16.2376 1.36853 16.2275 1.37346 16.2275 1.37346Z" fill="white"/>
<path id="Combined Shape_3" d="M3.42398 16.5603C3.63919 16.363 3.83607 16.1549 4.04715 15.9096C4.068 15.8854 4.40325 15.4849 4.47914 15.4052C5.19776 14.6499 6.5728 13.9966 7.92398 13.9966C9.75404 13.9966 11.196 13.1423 12.6046 11.1238C12.8155 10.8215 13.228 10.7499 13.526 10.9639C13.824 11.1779 13.8945 11.5964 13.6836 11.8987C12.0402 14.2538 10.2105 15.3378 7.92398 15.3378C6.95031 15.3378 5.91078 15.8316 5.43036 16.3366C5.38879 16.3803 5.09211 16.7346 5.04296 16.7917C4.80025 17.0737 4.56888 17.3183 4.31041 17.5553C3.32204 18.4615 2.20409 19 0.895945 19C0.785937 19 0.67767 18.9721 0.580956 18.919C0.062021 18.6336 -0.0244009 18.1837 0.00510859 17.122C0.0184694 16.6413 0.198567 13.6803 0.235893 12.977C0.284739 12.0567 0.299481 11.4627 0.319174 10.085C0.348235 8.05187 0.407446 7.26726 0.679957 6.25961C0.837709 5.67629 1.06282 5.10897 1.3747 4.51551C2.90043 1.61231 5.58496 0.362479 10.1674 0.735201C10.677 0.776656 11.0002 0.798503 11.3514 0.816443C11.4112 0.819498 11.4736 0.822543 11.545 0.825906C11.6209 0.82948 11.7084 0.833486 11.8913 0.841839C12.0483 0.849053 12.1777 0.855177 12.3194 0.862179C12.6841 0.88019 12.9653 1.19466 12.9475 1.56456C12.9298 1.93446 12.6198 2.21973 12.2551 2.20172C12.1151 2.1948 11.9871 2.18874 11.8315 2.18159C11.6492 2.17326 11.5606 2.16921 11.4837 2.16559C11.4107 2.16215 11.3466 2.15902 11.2849 2.15587C10.92 2.13723 10.5839 2.11451 10.0617 2.07204C5.97219 1.7394 3.80043 2.7505 2.54128 5.14644C2.27469 5.65371 2.08623 6.12869 1.95486 6.61444C1.7221 7.47511 1.66848 8.1857 1.64105 10.1044C1.62112 11.4991 1.60605 12.106 1.556 13.0491C1.5175 13.7744 1.33923 16.7055 1.3266 17.1598C1.32116 17.3555 1.32111 17.5105 1.32588 17.6304C2.08965 17.5281 2.77764 17.1529 3.42398 16.5603Z" fill="white"/>
<path id="Combined Shape_4" d="M16.6921 2.38368C16.327 2.38368 16.0311 2.08346 16.0311 1.71311C16.0311 1.34277 16.327 1.04255 16.6921 1.04255C17.2735 1.04255 17.7616 1.08118 18.4285 1.16335C19.3508 1.27701 19.4356 1.28522 19.7098 1.27137C20.1091 1.25123 20.4754 1.22236 20.8964 1.18087C22.6669 1.00635 22.6241 1.00889 23.1813 1.12361C23.2612 1.14006 23.3569 1.15614 23.4992 1.17754C23.5381 1.18339 23.7238 1.21077 23.7766 1.21874C23.8924 1.23621 23.988 1.25154 24.0811 1.26793C25.2903 1.48075 26.0002 1.88425 26.0002 2.88583C26.0002 3.50271 25.6514 4.14312 25.0695 4.84786C24.7172 5.27454 24.2807 5.70896 24.0234 5.9235C24.0622 5.89115 23.5389 6.29465 23.3783 6.44269C23.1815 6.6241 23.0348 6.80133 22.943 6.9754C22.9521 6.95814 22.6834 7.55877 22.5266 7.85817C22.2364 8.41252 21.89 8.93177 21.453 9.4231C20.0816 10.965 18.0966 11.9184 15.3679 12.0283C15.0031 12.0431 14.6957 11.755 14.6812 11.3849C14.6667 11.0149 14.9507 10.703 15.3154 10.6883C17.6866 10.5927 19.3373 9.79991 20.4715 8.52467C20.8305 8.12111 21.1169 7.69176 21.3591 7.22912C21.4898 6.97934 21.7596 6.37639 21.7772 6.34299C21.9493 6.01659 22.1894 5.72649 22.4893 5.45009C22.7013 5.2547 23.2625 4.82192 23.1839 4.88748C23.3796 4.7243 23.7578 4.34794 24.0561 3.98668C24.4502 3.50942 24.6782 3.09072 24.6782 2.88583C24.6782 2.81567 24.4705 2.69762 23.8551 2.58932C23.774 2.57504 23.6883 2.56129 23.5821 2.54527C23.5322 2.53774 23.3467 2.5104 23.3052 2.50415C23.1417 2.47954 23.0265 2.4602 22.9184 2.43795C22.5585 2.36385 22.5745 2.36289 21.0242 2.5157C20.5841 2.55909 20.1977 2.58954 19.7755 2.61084C19.3889 2.63036 19.3007 2.62181 18.2691 2.4947C17.6506 2.41848 17.2108 2.38368 16.6921 2.38368Z" fill="white"/>
<path id="Path 22" d="M5.57738 15.6839C5.44703 15.4754 5.50797 15.1992 5.71349 15.067C5.91902 14.9347 6.1913 14.9966 6.32165 15.2051C6.74291 15.8789 7.11789 16.1526 7.60275 16.0849C8.11148 16.014 9.47489 14.5882 9.47489 14.307C9.47489 14.0601 9.67219 13.8599 9.91557 13.8599C10.1589 13.8599 10.3562 14.0601 10.3562 14.307C10.3562 15.0564 8.64934 16.8415 7.72278 16.9707C6.81565 17.0972 6.16323 16.621 5.57738 15.6839Z" fill="white"/>
<path id="Path 27" d="M14.1886 3.58911C14.0506 4.17884 13.8453 10.7413 13.9344 11.6862L13.9363 11.7365C13.9163 12.9081 13.8079 13.8071 13.6041 14.4436C13.5289 14.6784 13.2803 14.8069 13.0488 14.7307C12.8174 14.6544 12.6907 14.4022 12.7659 14.1674C12.9365 13.6345 13.0351 12.8236 13.0547 11.7446C12.9629 10.6274 13.1691 4.07491 13.3311 3.38255C13.4335 2.94521 12.9845 2.1078 12.737 2.1078C12.591 2.1078 12.4544 2.03436 12.3724 1.91173C11.9539 1.28607 12.0588 0.648852 12.6627 0.299668C13.1239 0.0330134 13.8614 -0.0527119 14.7955 0.0306469C16.4087 0.174605 16.914 0.605757 16.9473 1.55577C16.9873 1.68736 16.9715 1.83577 16.879 1.96856C16.8054 2.07435 16.2756 2.34923 16.1357 2.48593C15.9012 2.71514 15.7274 3.05538 15.6377 3.56449C15.3567 5.15933 15.2624 9.58693 15.4455 11.7169C15.4626 12.3721 15.6459 13.0751 15.9997 13.8267C16.1046 14.0495 16.0116 14.3163 15.792 14.4227C15.5724 14.5291 15.3093 14.4348 15.2044 14.212C14.7999 13.3528 14.5851 12.5287 14.566 11.7678C14.3781 9.59186 14.474 5.08752 14.7701 3.40717C14.8918 2.71616 15.1531 2.20474 15.5243 1.842C15.6913 1.67878 15.8625 1.56062 16.0579 1.45757C16.0132 1.10385 15.7817 1.01619 14.7183 0.921292C13.9466 0.852431 13.3708 0.919366 13.0991 1.07644C13.0054 1.13065 12.9739 1.16732 13.0127 1.25802C13.7877 1.50668 14.3857 2.7474 14.1886 3.58911Z" fill="white"/>
<path id="Path 23" d="M16.2275 1.37346C16.2334 1.37057 16.2371 1.36876 16.2378 1.36841C16.2376 1.36853 16.2275 1.37346 16.2275 1.37346Z" fill="white"/>
</g>
</g>
</svg>
