<svg width="16" height="16" viewBox="0 0 16 16" fill="none" xmlns="http://www.w3.org/2000/svg">
<path d="M8 0.5C8.28343 0.500027 8.55355 0.620398 8.74316 0.831055L13.2432 5.83105C13.6125 6.24153 13.5793 6.87371 13.1689 7.24316C12.7585 7.61259 12.1263 7.57936 11.7568 7.16895L9 4.10547V14.5C9 15.0523 8.55224 15.4999 8 15.5C7.44772 15.5 7 15.0523 7 14.5V4.10547L4.24316 7.16895C3.87371 7.57939 3.24155 7.61256 2.83105 7.24316C2.4206 6.8737 2.38739 6.24155 2.75684 5.83105L7.25684 0.831055L7.33105 0.755859C7.51368 0.591697 7.75197 0.5 8 0.5Z" fill="white"/>
</svg>
