<svg width="32" height="32" viewBox="0 0 32 32" fill="none" xmlns="http://www.w3.org/2000/svg">
<path d="M21.9482 24.9714C20.6572 26.6967 18.7746 28 17.6871 28C16.5524 28 15.4919 27.4835 14.5523 26.5188C12.3111 24.4903 10.5103 22.7997 9.14862 21.4458C9.11794 21.4153 9.09044 21.3818 9.06653 21.3459C7.5187 19.021 7.34843 16.9589 8.54495 14.6551C8.70908 14.3391 9.10205 14.2141 9.42268 14.3758C9.74331 14.5376 9.87018 14.9249 9.70605 15.2409C8.73873 17.1034 8.85722 18.6628 10.1217 20.5872C11.4617 21.9172 13.2333 23.5795 15.4635 25.5998C16.2017 26.3563 16.937 26.7144 17.6871 26.7144C17.8883 26.7144 18.3915 26.4961 18.9501 26.1094C19.6377 25.6334 20.3253 24.9742 20.8985 24.2083C22.3505 22.2678 22.9023 19.9414 22.2027 17.4155C22.1534 17.2376 22.184 17.0474 22.2868 16.8932C23.5426 15.0099 23.6278 14.1479 23.1508 13.0379C23.1401 13.013 23.0581 12.8249 23.0342 12.7684C22.9915 12.668 22.9576 12.5828 22.9279 12.4994C22.7019 11.9981 22.5044 11.6653 22.361 11.5179C22.3339 11.4899 22.3093 11.4596 22.2876 11.4273L22.1997 11.2961C22.0012 10.9999 22.0839 10.6012 22.3845 10.4055C22.6851 10.2099 23.0896 10.2914 23.2881 10.5876L23.3468 10.6752C23.6064 10.96 23.8605 11.3979 24.1318 12.0039L24.1522 12.0555C24.1736 12.117 24.2004 12.1848 24.2375 12.2723C24.2586 12.322 24.339 12.5064 24.3519 12.5366C24.9766 13.9902 24.8786 15.2637 23.5346 17.3583C24.2294 20.1791 23.5717 22.8018 21.9482 24.9714Z" fill="white"/>
<path d="M9.97215 9.90126C10.2528 9.67869 10.6633 9.72246 10.8891 9.99903C11.115 10.2756 11.0706 10.6802 10.7899 10.9028L10.1473 11.4125C8.21286 12.9597 7.90148 14.8345 8.74206 16.1784C8.93107 16.4806 8.83574 16.8766 8.52912 17.0629C8.2225 17.2492 7.82071 17.1552 7.6317 16.853C6.44897 14.9621 6.87939 12.3706 9.32745 10.4126L9.97215 9.90126Z" fill="white"/>
<path d="M13.3423 5.76567C13.1426 5.89708 12.8726 5.84404 12.7392 5.64721C12.6059 5.45037 12.6597 5.18427 12.8594 5.05287C13.3435 4.73434 13.8901 4.48939 14.4855 4.32715C16.7815 3.61847 18.8648 4.08588 20.3558 5.4898C20.9778 6.18328 21.3666 6.69585 21.5192 7.02808C21.6941 7.34275 21.8181 7.77889 21.9013 8.34383C21.9358 8.57805 21.7711 8.79547 21.5334 8.82946C21.2958 8.86346 21.0752 8.70114 21.0407 8.46692C20.9711 7.99432 20.873 7.64949 20.7423 7.41185C20.6217 7.15139 20.272 6.69041 19.73 6.08369C18.4947 4.92243 16.7412 4.52901 14.7315 5.14909C14.2106 5.29123 13.7488 5.49821 13.3423 5.76567Z" fill="white"/>
<path d="M19.0998 9.08607C19.1587 9.31551 19.0177 9.54857 18.7849 9.60663C18.5521 9.66468 18.3156 9.52575 18.2567 9.29631C18.1639 8.93478 18.0645 8.63423 17.9541 8.3817C17.7402 7.84187 16.9494 7.48422 16.1598 7.62966C15.9237 7.67313 15.6966 7.51978 15.6525 7.28714C15.6084 7.0545 15.764 6.83066 16 6.78718C17.1757 6.57064 18.3871 7.11854 18.7581 8.05574C18.8829 8.34001 18.9963 8.68303 19.0998 9.08607Z" fill="white"/>
<path d="M13.5833 9.11653C13.657 8.89127 13.902 8.76753 14.1306 8.84014C14.3591 8.91275 14.4847 9.15422 14.411 9.37948C14.1522 10.1707 14.0819 11.1973 14.2323 12.4568C14.3324 13.2948 13.6094 13.8593 12.6171 14.0266C11.6921 14.1825 10.7773 13.9613 10.4778 13.3373C9.98369 12.308 9.98461 9.45508 10.8339 7.51623C10.9291 7.29895 11.185 7.19885 11.4054 7.29265C11.6259 7.38646 11.7274 7.63865 11.6323 7.85594C10.88 9.57339 10.8791 12.1693 11.2638 12.9708C11.3503 13.1509 11.8858 13.2803 12.4705 13.1818C13.0658 13.0814 13.4002 12.8204 13.3687 12.557C13.2046 11.1827 13.2832 10.0342 13.5833 9.11653Z" fill="white"/>
<path d="M9.83531 7.52018C9.60507 7.45294 9.47373 7.21448 9.54196 6.98756C9.61018 6.76064 9.85212 6.6312 10.0824 6.69843C12.4277 7.38336 14.4401 8.59949 15.4926 10.4181C16.2059 11.6506 16.4247 13.0927 16.0757 14.7362C16.0265 14.9679 15.7961 15.1164 15.5611 15.0679C15.326 15.0194 15.1754 14.7923 15.2246 14.5607C15.5305 13.1198 15.3442 11.8914 14.7373 10.8427C13.8188 9.25581 11.9862 8.14832 9.83531 7.52018Z" fill="white"/>
<path d="M18.8277 15.455C18.7549 15.6805 18.5104 15.8052 18.2816 15.7334C18.0527 15.6616 17.9263 15.4206 17.9991 15.1951C18.1602 14.6962 18.2533 13.7345 18.2677 12.3358C18.269 12.2035 18.3323 12.0793 18.4391 11.9991C20.5353 10.4263 22.9487 9.89321 25.647 10.4035C25.8829 10.4481 26.0374 10.6726 25.9921 10.9051C25.9469 11.1375 25.719 11.2898 25.4832 11.2452C23.0971 10.794 20.9906 11.2304 19.1344 12.5576C19.1121 13.9229 19.013 14.8813 18.8277 15.455Z" fill="white"/>
<path d="M25.5251 8.11134C25.7541 8.18272 25.8809 8.4235 25.8085 8.64916C25.7361 8.87481 25.4918 8.99988 25.2629 8.9285C23.2654 8.30583 20.8613 8.70918 18.0403 10.1671C17.8282 10.2767 17.566 10.1966 17.454 9.98785C15.9058 7.10169 13.8454 5.87796 10.9818 5.31932C10.7462 5.27337 10.5931 5.04791 10.6397 4.81574C10.6863 4.58357 10.9151 4.43262 11.1507 4.47857C14.1241 5.05865 16.35 6.33296 18.0165 9.21661C20.8679 7.81747 23.3738 7.4407 25.5251 8.11134Z" fill="white"/>
</svg>
