<svg width="48" height="48" viewBox="0 0 32 32" fill="none" xmlns="http://www.w3.org/2000/svg">
<g transform="translate(6.5000 4.0000)">
<g id="Group 381">
<path id="Path 15" d="M14.9482 20.9714C13.6572 22.6967 11.7746 24 10.6871 24C9.55242 24 8.49189 23.4835 7.55228 22.5188C5.31115 20.4903 3.51028 18.7997 2.14862 17.4458C2.11794 17.4153 2.09044 17.3818 2.06653 17.3459C0.5187 15.021 0.348427 12.9589 1.54495 10.6551C1.70908 10.3391 2.10205 10.2141 2.42268 10.3758C2.74331 10.5376 2.87018 10.9249 2.70605 11.2409C1.73873 13.1034 1.85722 14.6628 3.12175 16.5872C4.46169 17.9172 6.2333 19.5795 8.4635 21.5998C9.20173 22.3564 9.93696 22.7144 10.6871 22.7144C10.8883 22.7144 11.3915 22.4961 11.9501 22.1094C12.6377 21.6334 13.3253 20.9742 13.8985 20.2084C15.3505 18.2678 15.9023 15.9415 15.2027 13.4156C15.1534 13.2376 15.184 13.0474 15.2868 12.8933C16.5426 11.0099 16.6278 10.148 16.1508 9.03796C16.1401 9.01305 16.0581 8.8249 16.0342 8.76845C15.9915 8.66801 15.9576 8.58287 15.9279 8.49939C15.7019 7.99813 15.5044 7.66534 15.361 7.5179C15.3339 7.48996 15.3093 7.45965 15.2876 7.42734L15.1997 7.29616C15.0012 6.99994 15.0839 6.6012 15.3845 6.40554C15.6851 6.20989 16.0896 6.29142 16.2881 6.58764L16.3468 6.67518C16.6064 6.96005 16.8605 7.39797 17.1318 8.00397L17.1522 8.05548C17.1736 8.11699 17.2004 8.18487 17.2375 8.27236C17.2586 8.32202 17.339 8.50647 17.3519 8.53658C17.9766 9.99018 17.8786 11.2637 16.5346 13.3583C17.2294 16.1791 16.5717 18.8018 14.9482 20.9714Z" fill="white"/>
<path id="Path 16" d="M2.97215 5.90124C3.25277 5.67867 3.66332 5.72244 3.88914 5.99901C4.11497 6.27558 4.07055 6.68021 3.78994 6.90279L3.14731 7.41249C1.21286 8.9597 0.90148 10.8345 1.74206 12.1784C1.93107 12.4806 1.83574 12.8766 1.52912 13.0629C1.2225 13.2492 0.820711 13.1552 0.631697 12.853C-0.551031 10.962 -0.120613 8.37059 2.32745 6.41259L2.97215 5.90124Z" fill="white"/>
<path id="Path" d="M6.3421 1.76567C6.14239 1.89708 5.8724 1.84404 5.73907 1.64721C5.60575 1.45037 5.65956 1.18427 5.85928 1.05287C6.34337 0.734342 6.88991 0.489387 7.48536 0.327148C9.78136 -0.381533 11.8646 0.0858761 13.3557 1.4898C13.9776 2.18329 14.3665 2.69585 14.519 3.02808C14.6939 3.34275 14.8179 3.77889 14.9011 4.34383C14.9356 4.57805 14.7709 4.79547 14.5333 4.82946C14.2956 4.86346 14.075 4.70114 14.0405 4.46692C13.9709 3.99432 13.8729 3.64949 13.7421 3.41185C13.6215 3.15139 13.2718 2.69041 12.7298 2.08369C11.4946 0.922432 9.74108 0.529007 7.73132 1.14909C7.2104 1.29123 6.7486 1.49821 6.3421 1.76567Z" fill="white"/>
<path id="Path_2" d="M12.0998 5.08607C12.1587 5.3155 12.0177 5.54857 11.7849 5.60662C11.5521 5.66468 11.3156 5.52575 11.2567 5.29631C11.1639 4.93478 11.0645 4.63423 10.9541 4.3817C10.7402 3.84186 9.94941 3.48421 9.15976 3.62966C8.92372 3.67313 8.69661 3.51978 8.6525 3.28714C8.60838 3.0545 8.76398 2.83066 9.00002 2.78718C10.1757 2.57063 11.3871 3.11853 11.7581 4.05573C11.8829 4.34 11.9963 4.68303 12.0998 5.08607Z" fill="white"/>
<path id="Path_3" d="M6.58334 5.11651C6.65701 4.89125 6.90201 4.76751 7.13056 4.84012C7.35911 4.91273 7.48466 5.1542 7.41099 5.37946C7.1522 6.17071 7.08191 7.19732 7.23233 8.45676C7.33242 9.29474 6.60941 9.8593 5.61708 10.0266C4.69214 10.1825 3.7773 9.9613 3.47777 9.33729C2.98369 8.30799 2.98461 5.45506 3.8339 3.51621C3.92908 3.29893 4.18495 3.19883 4.40542 3.29264C4.62588 3.38644 4.72744 3.63863 4.63226 3.85592C3.87996 5.57337 3.87912 8.16931 4.26383 8.97077C4.35027 9.15084 4.88582 9.28031 5.4705 9.18176C6.0658 9.08142 6.40017 8.82034 6.36871 8.55696C6.20456 7.18264 6.2832 6.0342 6.58334 5.11651Z" fill="white"/>
<path id="Path 18" d="M2.83531 3.52019C2.60507 3.45295 2.47373 3.21449 2.54196 2.98757C2.61018 2.76065 2.85212 2.6312 3.08236 2.69844C5.42769 3.38336 7.44011 4.59949 8.49263 6.41811C9.20594 7.65062 9.42469 9.09268 9.07571 10.7362C9.02652 10.9679 8.79611 11.1164 8.56107 11.0679C8.32603 11.0194 8.17537 10.7923 8.22456 10.5607C8.53051 9.11978 8.34417 7.89138 7.73728 6.84275C6.81884 5.25581 4.9862 4.14832 2.83531 3.52019Z" fill="white"/>
<path id="Path 20" d="M11.8277 11.455C11.7549 11.6805 11.5104 11.8051 11.2816 11.7334C11.0527 11.6616 10.9263 11.4206 10.9991 11.1951C11.1602 10.6961 11.2533 9.73443 11.2677 8.33575C11.269 8.20348 11.3323 8.07924 11.4391 7.99912C13.5353 6.42624 15.9487 5.89319 18.647 6.40344C18.8829 6.44803 19.0374 6.67261 18.9921 6.90504C18.9469 7.13747 18.719 7.28974 18.4832 7.24515C16.0971 6.79394 13.9906 7.23035 12.1344 8.55755C12.1121 9.92288 12.013 10.8813 11.8277 11.455Z" fill="white"/>
<path id="Path 19" d="M18.5251 4.11132C18.7541 4.18269 18.8809 4.42348 18.8085 4.64913C18.7361 4.87478 18.4918 4.99985 18.2629 4.92848C16.2654 4.30581 13.8613 4.70916 11.0403 6.16705C10.8282 6.27669 10.566 6.19655 10.454 5.98782C8.90584 3.10167 6.84536 1.87794 3.9818 1.3193C3.74624 1.27334 3.59308 1.04788 3.63971 0.815716C3.68633 0.58355 3.91509 0.432596 4.15065 0.478551C7.12408 1.05863 9.34997 2.33294 11.0165 5.21659C13.8679 3.81745 16.3738 3.44068 18.5251 4.11132Z" fill="white"/>
</g>
</g>
</svg>
