<svg width="16" height="16" viewBox="0 0 16 16" fill="none" xmlns="http://www.w3.org/2000/svg">
<path fill-rule="evenodd" clip-rule="evenodd" d="M9.8536 2.65338C10.5237 2.47476 11.3118 2.70573 11.7218 3.36823L11.8038 3.51764L13.5538 7.10651C13.1278 6.93059 12.688 6.7943 12.2403 6.6944L10.9044 3.95514C10.7526 3.64474 10.3785 3.51948 10.0538 3.63776C9.39749 3.87684 8.70276 3.99994 8.00106 4.00006L7.73836 3.9942C7.12607 3.96747 6.52192 3.84693 5.94735 3.63776C5.6225 3.51961 5.24827 3.64543 5.09676 3.95612L1.70223 10.921C1.55085 11.2318 1.68031 11.6078 1.99715 11.7462C3.53131 12.4161 5.16569 12.823 6.83211 12.9532L7.87703 13.9981C5.71299 13.9815 3.57658 13.5277 1.59676 12.6631C0.733507 12.2861 0.415401 11.2794 0.803792 10.4825L4.19832 3.51862L4.28035 3.3692C4.71935 2.65954 5.59193 2.44468 6.28914 2.69831C6.83627 2.89748 7.41614 3.00014 8.00106 3.00006C8.58588 2.99994 9.16502 2.89761 9.712 2.69831L9.8536 2.65338Z" fill="white"/>
<path fill-rule="evenodd" clip-rule="evenodd" d="M10.5002 12C11.0104 12.0001 11.4849 12.153 11.8804 12.4155C12.1105 12.5681 12.1086 12.8898 11.9135 13.0852L10.8537 14.1461C10.6585 14.3415 10.3418 14.3416 10.1464 14.1463L9.08522 13.085C8.88995 12.8898 8.88794 12.5681 9.11809 12.4154C9.5141 12.1528 9.98953 12 10.5002 12ZM10.5002 8C11.3536 8.00006 12.199 8.16852 12.9875 8.49512C13.6216 8.75781 14.2092 9.11859 14.7289 9.56367C14.9387 9.74333 14.9375 10.0616 14.7422 10.2569L13.3273 11.6711C13.132 11.8663 12.8174 11.8629 12.5965 11.6974C12.0122 11.2595 11.2865 11.0001 10.5002 11C9.71348 11 8.98681 11.2592 8.40209 11.6972C8.1811 11.8628 7.86633 11.8661 7.67107 11.6709L6.25708 10.2569C6.06181 10.0616 6.06064 9.74338 6.27038 9.56374C6.7901 9.11863 7.37781 8.75783 8.01191 8.49512C8.80052 8.16846 9.6466 8 10.5002 8Z" fill="#00B2B2"/>
</svg>
