<svg width="48" height="48" viewBox="0 0 48 48" fill="none" xmlns="http://www.w3.org/2000/svg">
<path fill-rule="evenodd" clip-rule="evenodd" d="M30.6777 7.93097C31.8875 7.45422 33.3596 7.91031 33.9726 9.1673L40.3515 22.2454C39.9128 22.0807 39.469 21.9315 39.0205 21.7991L33.0742 9.60577C32.7111 8.86127 31.8145 8.55787 31.0439 8.86163L30.623 9.02179C28.5077 9.79918 26.2667 10.2001 24.0029 10.2005L23.5498 10.1946C21.4403 10.1452 19.3562 9.74868 17.3818 9.02374L16.9609 8.86359C16.1902 8.55987 15.2936 8.86306 14.9306 9.60773L3.62693 32.8001L3.56736 32.9407C3.30476 33.6546 3.62054 34.4662 4.32907 34.7845C10.318 37.4751 16.799 38.9102 23.3701 38.9964L24.0068 39.0003C24.7685 39.0002 25.5291 38.9809 26.2881 38.9446L27.2353 39.8919C26.1623 39.9629 25.0856 40.0001 24.0068 40.0003C17.0764 40.0013 10.2301 38.532 3.91892 35.6966C2.62964 35.1173 2.12737 33.5951 2.72849 32.3616L14.0322 9.17023C14.645 7.91292 16.1171 7.45624 17.3271 7.93292C19.4488 8.76893 21.714 9.20082 24.0029 9.2005C26.2917 9.20008 28.5564 8.7676 30.6777 7.93097Z" fill="white"/>
<path fill-rule="evenodd" clip-rule="evenodd" d="M33.4999 37C34.1071 37 34.6782 37.1548 35.1759 37.4269C35.6604 37.6919 35.6571 38.3411 35.2667 38.7318L34.207 39.7923C33.8165 40.1831 33.1831 40.1832 32.7925 39.7926L31.7324 38.7325C31.3419 38.342 31.3382 37.6927 31.8227 37.4276C32.3207 37.155 32.8922 37 33.4999 37ZM33.4999 33C35.211 33 36.7884 33.5731 38.0504 34.5378C38.4893 34.8733 38.4855 35.5132 38.0947 35.9037C37.7042 36.2939 37.0752 36.285 36.6209 35.9713C35.7342 35.3589 34.659 35 33.4999 35C32.3404 35 31.2643 35.3585 30.3772 35.971C29.9228 36.2848 29.2937 36.2938 28.9032 35.9033C28.5127 35.5128 28.5092 34.8735 28.948 34.5381C30.2103 33.5731 31.7883 33 33.4999 33ZM33.4999 29C36.3159 29 38.8957 30.0121 40.895 31.6925C41.3178 32.0479 41.3152 32.6847 40.9247 33.0752C40.5342 33.4657 39.9041 33.461 39.4749 33.1134C37.8428 31.7917 35.7637 31 33.4999 31C31.2361 31 29.1569 31.7917 27.5248 33.1135C27.0957 33.461 26.4656 33.4657 26.0751 33.0752C25.6846 32.6847 25.682 32.0479 26.1047 31.6925C28.104 30.0121 30.6838 29 33.4999 29ZM33.4999 25C35.5353 25 37.551 25.4008 39.4315 26.1797C41.0037 26.8309 42.4556 27.736 43.7305 28.8563C44.1453 29.2208 44.1433 29.8566 43.7528 30.2471C43.3623 30.6376 42.7315 30.6344 42.3133 30.2737C39.9484 28.2336 36.8682 27 33.4999 27C30.1316 27 27.0513 28.2337 24.6864 30.2737C24.2682 30.6344 23.6374 30.6376 23.2469 30.2471C22.8565 29.8566 22.8544 29.2208 23.2692 28.8563C24.5442 27.736 25.9961 26.8309 27.5682 26.1797C29.4487 25.4008 31.4644 25 33.4999 25Z" fill="#00B2B2"/>
</svg>
