<svg width="16" height="16" viewBox="0 0 16 16" fill="none" xmlns="http://www.w3.org/2000/svg">
<path d="M7.49994 3.5C7.49994 3.22386 7.7238 3 7.99994 3C8.27608 3 8.49994 3.22386 8.49994 3.5V9.5C8.49994 9.77614 8.27608 10 7.99994 10C7.7238 10 7.49994 9.77614 7.49994 9.5V3.5Z" fill="white" fill-opacity="0.25"/>
<path d="M7.99963 0.499176C9.38006 0.49931 10.4991 1.61909 10.4996 2.99918V6.74136L9.49963 8.51871V2.99918C9.49924 2.17113 8.82775 1.49926 7.99963 1.49918C7.17167 1.49944 6.50002 2.17124 6.49963 2.99918V10.0021C5.8934 10.4582 5.49984 11.1822 5.49963 11.9992C5.49963 12.7904 5.86838 13.4952 6.44202 13.9533L6.12952 14.5109L5.9469 14.8332C5.07057 14.1971 4.49963 13.1649 4.49963 11.9992C4.49983 11.0449 4.88384 10.1826 5.49963 9.55386V2.99918C5.50013 1.6193 6.6192 0.49944 7.99963 0.499176Z" fill="white"/>
<path d="M8 5.5C8.27614 5.5 8.5 5.72386 8.5 6V10.2949L6.94238 13.0635C6.66921 12.7918 6.5 12.4157 6.5 12C6.5 11.3471 6.91769 10.793 7.5 10.5869V6C7.5 5.72386 7.72386 5.5 8 5.5Z" fill="#FF9500"/>
<path d="M10.6289 8.55029C11.0113 7.87076 11.9898 7.87068 12.3721 8.55029L15.1621 13.5103C15.5371 14.1769 15.0549 15.0005 14.2901 15.0005H8.70999C7.94527 15.0004 7.46396 14.1768 7.8389 13.5103L10.6289 8.55029ZM11.5 13.0005C11.2239 13.0005 11 13.2244 11 13.5005C11.0003 13.7764 11.224 14.0005 11.5 14.0005C11.776 14.0005 11.9998 13.7764 12 13.5005C12 13.2244 11.7761 13.0005 11.5 13.0005ZM11.5 9.50049C11.2239 9.50049 11 9.72435 11 10.0005V11.9995C11 12.2757 11.2239 12.4995 11.5 12.4995C11.7762 12.4995 12 12.2756 12 11.9995V10.0005C12 9.72435 11.7762 9.5005 11.5 9.50049Z" fill="#FF9500"/>
</svg>
