<svg width="24" height="24" viewBox="0 0 24 24" fill="none" xmlns="http://www.w3.org/2000/svg">
<path d="M12 1.5C13.933 1.5 15.5 3.067 15.5 5V9.57227L15.2441 10.042L14.5 11.4062V5C14.5 3.61929 13.3807 2.5 12 2.5C10.6193 2.5 9.5 3.61929 9.5 5V15.5518C8.88177 16.183 8.5 17.0467 8.5 18C8.5 18.9754 8.89923 19.8575 9.54297 20.4922L9.24414 21.042L9.0498 21.3965C8.10078 20.5715 7.5 19.3562 7.5 18C7.5 16.9287 7.87584 15.9446 8.5 15.1729V5C8.5 3.067 10.067 1.5 12 1.5Z" fill="white"/>
<path d="M11 5C11 4.44772 11.4477 4 12 4C12.5523 4 13 4.44772 13 5V13C13 13.5523 12.5523 14 12 14C11.4477 14 11 13.5523 11 13V5Z" fill="white" fill-opacity="0.25"/>
<path fill-rule="evenodd" clip-rule="evenodd" d="M16.1227 12.6092C16.5019 11.9149 17.4995 11.9146 17.8785 12.6092L22.1939 20.5213C22.5571 21.1875 22.0748 21.9995 21.316 21.9998H12.6852C11.9261 21.9998 11.4438 21.1877 11.8072 20.5213L16.1227 12.6092ZM17.0006 18.9998C16.4484 18.9998 15.9997 19.4477 15.9996 19.9998C15.9996 20.5522 16.4483 20.9999 17.0006 20.9998C17.5526 20.9996 18.0006 20.5519 18.0006 19.9998C18.0005 19.4479 17.5525 19.0001 17.0006 18.9998ZM16.9996 13.9998C16.4663 14.0001 16.0511 14.4639 16.11 14.994L16.4449 18.0028C16.4763 18.2856 16.7151 18.4997 16.9996 18.4998C17.2843 18.4998 17.5238 18.2857 17.5553 18.0028L17.8893 14.994C17.9482 14.4637 17.5331 13.9998 16.9996 13.9998Z" fill="#FF9500"/>
<path d="M12 8C12.5523 8 13 8.44772 13 9V15.2012L10.6631 19.4844C10.2569 19.1183 10 18.5898 10 18C10 17.2601 10.4027 16.6155 11 16.2695V9C11 8.44772 11.4477 8 12 8Z" fill="#FF9500"/>
</svg>
