<svg width="32" height="32" viewBox="0 0 32 32" fill="none" xmlns="http://www.w3.org/2000/svg">
<path d="M16.0002 2.00049C18.2091 2.00066 20.0002 3.79135 20.0002 6.00049V15.2544L19.0002 17.0317V6.00049C19.0002 4.34372 17.657 3.00062 16.0002 3.00049C14.3434 3.00049 13.0002 4.34363 13.0002 6.00049V19.9995C11.7857 20.9117 11.0002 22.3646 11.0002 24.0005C11.0004 25.5821 11.7356 26.9915 12.8821 27.9077L12.386 28.7886C10.9373 27.6932 10.0004 25.9565 10.0002 24.0005C10.0002 22.2237 10.7748 20.6284 12.0002 19.5308V6.00049C12.0002 3.79135 13.7911 2.00049 16.0002 2.00049Z" fill="white"/>
<path d="M15 6C15 5.44772 15.4477 5 16 5C16.5523 5 17 5.44772 17 6V18C17 18.5523 16.5523 19 16 19C15.4477 19 15 18.5523 15 18V6Z" fill="white" fill-opacity="0.25"/>
<path d="M16 10C16.5523 10 17 10.4477 17 11V20.5869L13.8838 26.126C13.338 25.5827 13 24.8309 13 24C13 22.6941 13.8353 21.5859 15 21.1738V11C15 10.4477 15.4477 10 16 10Z" fill="#FF9500"/>
<path d="M21.257 17.0994C22.0216 15.7401 23.9787 15.7401 24.7433 17.0994L30.3234 27.0193C31.0734 28.3525 30.1099 29.9998 28.5803 29.9998H17.4201C15.8905 29.9998 14.927 28.3525 15.6769 27.0193L21.257 17.0994ZM22.9992 25.9978C22.4471 25.9979 21.9992 26.4457 21.9992 26.9978C21.9992 27.55 22.4471 27.9977 22.9992 27.9978C23.5514 27.9977 23.9992 27.55 23.9992 26.9978C23.9992 26.4456 23.5514 25.9978 22.9992 25.9978ZM22.9992 18.9978C22.4471 18.9979 21.9993 19.4456 21.9992 19.9978V23.9978C21.9994 24.5498 22.4472 24.9977 22.9992 24.9978C23.5514 24.9978 23.999 24.5499 23.9992 23.9978V19.9978C23.9992 19.4456 23.5515 18.9978 22.9992 18.9978Z" fill="#FF9500"/>
</svg>
