<svg width="48" height="48" viewBox="0 0 48 48" fill="none" xmlns="http://www.w3.org/2000/svg">
<path d="M24 4C27.3137 4 30 6.68629 30 10V20.4893L29 22.3223V10C29 7.23858 26.7614 5 24 5C21.2386 5 19 7.23858 19 10V31.1016C17.763 32.3641 17 34.0928 17 36C17 37.8632 17.729 39.5553 18.916 40.8096L18.416 41.7266C16.9262 40.2736 16 38.2454 16 36C16 33.9718 16.7566 32.1193 18 30.71V10C18 6.68629 20.6863 4 24 4Z" fill="white"/>
<path d="M22 10C22 8.89543 22.8954 8 24 8C25.1046 8 26 8.89543 26 10V26C26 27.1046 25.1046 28 24 28C22.8954 28 22 27.1046 22 26V10Z" fill="white" fill-opacity="0.25"/>
<path d="M24 16C25.1046 16 26 16.8954 26 18V27.8223L20.4912 37.9219C20.1781 37.3515 20 36.6966 20 36C20 34.5196 20.8046 33.2278 22 32.5361V18C22 16.8954 22.8954 16 24 16Z" fill="#D9D9D9"/>
<path d="M24 16C25.1046 16 26 16.8954 26 18V27.8223L20.4912 37.9219C20.1781 37.3515 20 36.6966 20 36C20 34.5196 20.8046 33.2278 22 32.5361V18C22 16.8954 22.8954 16 24 16Z" fill="#FF9500"/>
<path d="M30.2446 24.2188C31.0027 22.8297 32.9971 22.8297 33.7553 24.2188L42.3871 40.043C43.1135 41.3755 42.149 42.9997 40.6313 43H23.3696C21.8515 43 20.8869 41.3757 21.6137 40.043L30.2446 24.2188ZM32.0004 37.5C31.172 37.5 30.5004 38.1716 30.5004 39C30.5004 39.8284 31.172 40.5 32.0004 40.5C32.8287 40.4998 33.5004 39.8283 33.5004 39C33.5004 38.1717 32.8287 37.5002 32.0004 37.5ZM32.0004 28C31.1876 28 30.5425 28.6858 30.5932 29.4971L30.9379 35.002C30.973 35.5629 31.4383 36 32.0004 36C32.5623 35.9998 33.0269 35.5628 33.062 35.002L33.4067 29.4971C33.4574 28.686 32.8131 28.0002 32.0004 28Z" fill="#FF9500"/>
</svg>
