<svg width="16" height="16" viewBox="0 0 16 16" fill="none" xmlns="http://www.w3.org/2000/svg">
<path d="M7.99951 1C8.27565 1 8.49951 1.22386 8.49951 1.5V13.1953L12.1274 9.16504C12.3121 8.95991 12.6292 8.94344 12.8345 9.12793C13.0397 9.31267 13.0563 9.62972 12.8716 9.83496L8.37158 14.835C8.27677 14.9402 8.14114 15 7.99951 15C7.85795 14.9999 7.72216 14.9402 7.62744 14.835L3.12744 9.83496C2.943 9.6298 2.95964 9.31263 3.16455 9.12793C3.36972 8.94328 3.68682 8.96004 3.87158 9.16504L7.49951 13.1953V1.5C7.49951 1.224 7.72357 1.00023 7.99951 1Z" fill="white"/>
</svg>
