<svg width="16" height="16" viewBox="0 0 16 16" fill="none" xmlns="http://www.w3.org/2000/svg">
<path d="M13.7578 1.03073C14.0985 0.945643 14.4587 1.0451 14.707 1.29343C14.9551 1.54174 15.0548 1.90207 14.9697 2.24265L13.0479 9.93015C12.3028 12.9096 9.62588 15.0004 6.55469 15.0005C3.48708 15.0004 1.00027 12.5133 1 9.44577C1 6.37438 3.09063 3.69753 6.07031 2.95261L13.7578 1.03073ZM6.3125 3.92233L6.07715 3.98679C3.66867 4.69893 2 6.91494 2 9.44577L2.00586 9.68015C2.04737 10.4973 2.3051 11.2569 2.72168 11.9048C4.90703 9.92953 7.09297 7.95418 9.27832 5.97897C9.4008 5.86827 9.524 5.75765 9.64648 5.64694L10.3535 6.35397C10.2428 6.47645 10.1322 6.59966 10.0215 6.72214C8.04598 8.90781 6.06926 11.0931 4.09375 13.2788C4.8034 13.7353 5.64821 14.0005 6.55469 14.0005C9.08534 14.0004 11.3014 12.3315 12.0137 9.92331L12.0781 9.68796L14 2.00046L6.3125 3.92233Z" fill="white"/>
</svg>
