<svg width="16" height="16" viewBox="0 0 16 16" fill="none" xmlns="http://www.w3.org/2000/svg">
<path d="M8 3C9.82666 3 11.5253 3.49221 12.7969 4.33984C14.0614 5.18289 15 6.45705 15 8C15 9.54295 14.0614 10.8171 12.7969 11.6602C11.5253 12.5078 9.82666 13 8 13C6.17334 13 4.47467 12.5078 3.20312 11.6602C1.93856 10.8171 1 9.54295 1 8C1 6.45705 1.93856 5.18289 3.20312 4.33984C4.47467 3.49221 6.17334 3 8 3ZM8 4C4.68629 4 2 5.79086 2 8C2 10.2091 4.68629 12 8 12C11.3137 12 14 10.2091 14 8C14 5.79086 11.3137 4 8 4Z" fill="white"/>
</svg>
