<svg width="16" height="16" viewBox="0 0 16 16" fill="none" xmlns="http://www.w3.org/2000/svg">
<path d="M12 2C13.1046 2 14 2.89543 14 4V12C14 13.1046 13.1046 14 12 14H4C2.89544 14 2.00002 13.1046 2 12V4C2 2.89543 2.89543 2 4 2H12ZM6.79199 5.09277C6.63985 4.9841 6.43882 4.97046 6.27246 5.05566C6.10596 5.14135 6.00101 5.31275 6.00098 5.5V10.5C6.00102 10.6873 6.10596 10.8587 6.27246 10.9443C6.43882 11.0295 6.63986 11.0159 6.79199 10.9072L10.292 8.40723C10.4229 8.31335 10.5009 8.16113 10.501 8C10.5009 7.83887 10.4229 7.68665 10.292 7.59277L6.79199 5.09277Z" fill="white"/>
</svg>
