<svg width="16" height="16" viewBox="0 0 16 16" fill="none" xmlns="http://www.w3.org/2000/svg">
<path d="M12 2.00003C13.1046 2.00003 14 2.89546 14 4.00003V12C14 13.1046 13.1046 14 12 14H4C2.89544 14 2.00002 13.1046 2 12V4.00003C2 2.89546 2.89543 2.00003 4 2.00003H12ZM4 3.00003C3.44772 3.00003 3 3.44775 3 4.00003V12C3.00002 12.5523 3.44773 13 4 13H12C12.5523 13 13 12.5523 13 12V4.00003C13 3.44775 12.5523 3.00003 12 3.00003H4Z" fill="white"/>
<path fill-rule="evenodd" clip-rule="evenodd" d="M6.27197 5.05597C6.43843 4.97049 6.63921 4.9843 6.7915 5.09308L10.2915 7.59308C10.4226 7.68697 10.5005 7.83907 10.5005 8.00031C10.5004 8.16156 10.4227 8.31373 10.2915 8.40754L6.7915 10.9075C6.63929 11.0163 6.43838 11.03 6.27197 10.9446C6.10553 10.859 5.99963 10.6875 5.99951 10.5003V5.50031C5.99951 5.31302 6.10544 5.14168 6.27197 5.05597Z" fill="#00B2B2"/>
</svg>
