<svg width="32" height="32" viewBox="0 0 24 24" fill="none" xmlns="http://www.w3.org/2000/svg">
<path d="M18 3C19.6569 3 21 4.34315 21 6V18C21 19.6569 19.6569 21 18 21H6C4.34315 21 3 19.6569 3 18V6C3 4.34315 4.34315 3 6 3H18ZM6 4C4.89543 4 4 4.89543 4 6V18C4 19.1046 4.89543 20 6 20H18C19.1046 20 20 19.1046 20 18V6C20 4.89543 19.1046 4 18 4H6Z" fill="white"/>
<path fill-rule="evenodd" clip-rule="evenodd" d="M9.50684 8.12982C9.82033 7.95234 10.2057 7.95718 10.5146 8.14252L15.5146 11.1425C15.8158 11.3232 16 11.6488 16 11.9999C16 12.3511 15.8158 12.6766 15.5146 12.8574L10.5146 15.8574C10.2057 16.0427 9.82034 16.0476 9.50684 15.8701C9.19357 15.6925 9 15.3601 9 14.9999V8.99994C9.00002 8.63984 9.19357 8.30737 9.50684 8.12982Z" fill="#00B2B2"/>
</svg>
