<svg width="48" height="48" viewBox="0 0 48 48" fill="none" xmlns="http://www.w3.org/2000/svg">
<path d="M28.999 2C30.6553 2.00038 31.999 3.34307 31.999 5V7.67188C31.9989 8.46746 31.6824 9.23059 31.1201 9.79297L31.1182 9.79492L31.0039 9.91016C31.0142 10.2167 31.0688 10.5193 31.1729 10.8057C32.38 14.1255 32.999 17.6311 32.999 21.1641V41.1455C32.999 42.8485 32.323 44.4452 31.1768 45.624L31.083 45.7109C30.8549 45.9015 30.5702 45.9999 30.2852 46H17.7119C17.4269 45.9998 17.1421 45.9015 16.9141 45.7109L16.8203 45.624L16.6104 45.3984C15.5917 44.2452 14.999 42.7415 14.999 41.1455V21.1641C14.999 17.6314 15.617 14.1256 16.8242 10.8057C16.9286 10.5185 16.9846 10.2162 16.9951 9.91113L16.877 9.79297C16.3139 9.22975 15.9991 8.4661 15.999 7.67188V5C15.999 3.34331 17.3424 2.00026 18.999 2H28.999ZM16.999 41.1455C16.999 42.2092 17.3827 43.2143 18.0469 44H29.9502C30.6149 43.214 30.999 42.209 30.999 41.1455V25H16.999V41.1455ZM18.999 4C18.447 4.00026 17.999 4.44788 17.999 5V7.67188C17.9991 7.93696 18.1038 8.19046 18.2891 8.37695L18.5049 8.5918L18.5068 8.59375C18.8211 8.90818 18.9988 9.33556 18.999 9.78125V9.81152L18.9941 10.0254C18.9723 10.5248 18.8742 11.0187 18.7031 11.4893C17.5756 14.5901 16.999 17.8646 16.999 21.1641V23H30.999V21.1641C30.999 17.8647 30.4216 14.5904 29.2939 11.4893C29.098 10.9503 28.999 10.382 28.999 9.81152V9.78125C28.9992 9.33934 29.1736 8.91071 29.4902 8.59375L29.4922 8.5918L29.708 8.37695C29.8943 8.18958 29.9989 7.93586 29.999 7.67188V5C29.999 4.44818 29.5514 4.00025 28.999 4H18.999Z" fill="white"/>
</svg>
