<svg width="16" height="16" viewBox="0 0 16 16" fill="none" xmlns="http://www.w3.org/2000/svg">
<path d="M12.5 4.00018C12.7761 4.00018 13 4.22404 13 4.50018V11.5002C12.9999 11.7762 12.7761 12.0002 12.5 12.0002C12.224 12.0001 12.0001 11.7762 12 11.5002V4.50018C12 4.22409 12.2239 4.00026 12.5 4.00018ZM6.5 4.00018C6.68928 4.00027 6.8626 4.10724 6.94727 4.27655L10.4473 11.2766C10.5707 11.5235 10.4706 11.824 10.2236 11.9474C9.97676 12.0707 9.67623 11.9706 9.55273 11.7238L8.69141 10.0002H4.30859L3.44727 11.7238C3.32373 11.9707 3.02329 12.0709 2.77637 11.9474C2.52944 11.824 2.42938 11.5235 2.55273 11.2766L6.05273 4.27655L6.08789 4.216C6.18034 4.08197 6.33425 4.0002 6.5 4.00018ZM4.80859 9.00018H8.19141L6.5 5.61835L4.80859 9.00018Z" fill="white"/>
</svg>
