<svg width="32" height="32" viewBox="0 0 32 32" fill="none" xmlns="http://www.w3.org/2000/svg">
<path d="M18 6C20.7614 6 23 8.23858 23 11V11.793C23.0811 11.7205 23.1663 11.6519 23.2559 11.5879L27.8379 8.31543C29.1616 7.37036 31 8.31677 31 9.94336V22.0566C31 23.6832 29.1616 24.6296 27.8379 23.6846L23.2559 20.4121C23.1661 20.348 23.0812 20.2787 23 20.2061V21C23 23.7614 20.7614 26 18 26H6C3.23858 26 1 23.7614 1 21V11C1 8.23858 3.23858 6 6 6H18ZM6 7C3.79086 7 2 8.79086 2 11V21L2.00488 21.2061C2.10865 23.2512 3.7488 24.8913 5.79395 24.9951L6 25H18L18.2061 24.9951C20.3194 24.8879 22 23.14 22 21V11C22 8.79086 20.2091 7 18 7H6ZM30 9.94336C30 9.12999 29.0808 8.65712 28.4189 9.12988L23.8379 12.4014L23.6504 12.5527C23.2386 12.9291 23 13.4641 23 14.0293V17.9707C23 18.6166 23.3123 19.2232 23.8379 19.5986L28.4189 22.8701C29.0808 23.3429 30 22.87 30 22.0566V9.94336Z" fill="white"/>
</svg>
