<svg width="32" height="32" viewBox="0 0 32 32" fill="none" xmlns="http://www.w3.org/2000/svg">
<path d="M16 1C19.866 1 23 4.13401 23 8V10H24C25.6569 10 27 11.3431 27 13V15.5137C26.0615 15.1819 25.0521 15 24 15C21.6469 15 19.505 15.9034 17.9014 17.3818C17.6409 16.58 16.8887 16 16 16C14.8954 16 14 16.8954 14 18V20C14 20.8423 14.5217 21.5607 15.2588 21.8555C15.0907 22.5429 15 23.2608 15 24C15 26.3054 15.8675 28.4077 17.293 30H8C6.34315 30 5 28.6569 5 27V13C5 11.3431 6.34315 10 8 10H9V8C9 4.13401 12.134 1 16 1ZM16 3C13.2386 3 11 5.23858 11 8V10H21V8C21 5.23858 18.7614 3 16 3Z" fill="white"/>
<path d="M24 18C27.3137 18 30 20.6863 30 24C30 27.3137 27.3137 30 24 30C20.6863 30 18 27.3137 18 24C18 20.6863 20.6863 18 24 18ZM27.0996 21.7002C26.6578 21.369 26.0315 21.4586 25.7002 21.9004L23.3916 24.9775L22.207 23.793C21.8165 23.4024 21.1835 23.4024 20.793 23.793C20.4024 24.1835 20.4024 24.8165 20.793 25.207L22.793 27.207C22.998 27.412 23.2821 27.5176 23.5713 27.4971C23.8603 27.4764 24.126 27.3314 24.2998 27.0996L27.2998 23.0996C27.631 22.6578 27.5414 22.0315 27.0996 21.7002Z" fill="#00B2B2"/>
</svg>
