<svg width="16" height="16" viewBox="0 0 24 24" fill="none" xmlns="http://www.w3.org/2000/svg">
<path d="M14.9459 3.08032C15.8837 2.73856 17.0511 3.076 17.5455 4.08911L22.9811 15.2346C23.4599 16.217 23.0654 17.4475 22.0133 17.9075C18.8601 19.2859 15.4523 19.9997 12.0035 20.0002C8.55457 20.0007 5.14556 19.287 1.99182 17.9094C0.940208 17.4494 0.545485 16.2198 1.02405 15.2375L6.45667 4.09106C6.95071 3.07767 8.11832 2.73884 9.05627 3.08032C9.99768 3.42325 10.9941 3.59994 12.0006 3.59985C13.0073 3.59972 14.0045 3.42355 14.9459 3.08032ZM15.6305 4.95923C14.4703 5.3822 13.2421 5.59963 12.0016 5.59985C10.761 5.6 9.53209 5.38288 8.3717 4.96021C8.33423 4.94665 8.29676 4.94844 8.27209 4.95728C8.26159 4.9611 8.25582 4.96498 8.25452 4.96606V4.96704L2.83069 16.093C5.7215 17.3496 8.84333 18.0006 12.0026 18.0002C15.1617 17.9998 18.2831 17.3474 21.1735 16.0901L15.7477 4.96606V4.96509C15.7461 4.96383 15.7402 4.95996 15.7301 4.9563C15.7054 4.9475 15.668 4.94556 15.6305 4.95923Z" fill="white"/>
<path d="M14.0112 7.94196C14.233 7.90737 14.4546 8.01868 14.5532 8.22028L17.4468 14.1539C17.5828 14.4327 17.4347 14.7675 17.1343 14.8453L16.5054 14.9976C15.0323 15.3297 13.5221 15.4994 12.0024 15.4996C10.4822 15.4997 8.97119 15.3306 7.49756 14.9986L6.86865 14.8463C6.56862 14.7683 6.42028 14.4336 6.55615 14.1548L9.44775 8.22125C9.54618 8.01955 9.76796 7.90865 9.98975 7.94293C10.6533 8.04615 11.3261 8.09925 12.0015 8.09918C12.6763 8.09908 13.3483 8.04531 14.0112 7.94196ZM13.2192 10.0474C12.8156 10.0804 12.409 10.0991 12.0015 10.0992C11.5935 10.0992 11.1864 10.0813 10.7817 10.0484L9.20361 13.2847C10.1272 13.4262 11.0631 13.4997 12.0024 13.4996C12.9407 13.4994 13.8749 13.4251 14.7974 13.2838L13.2192 10.0474Z" fill="white"/>
</svg>
