<svg width="32" height="32" viewBox="0 0 32 32" fill="none" xmlns="http://www.w3.org/2000/svg">
<path d="M19.9822 5.25371C20.9322 4.88472 22.1047 5.23614 22.5974 6.2459L29.6111 20.6268C30.0912 21.6113 29.6932 22.8345 28.6531 23.2996C24.6771 25.0773 20.3667 25.9992 16.0037 25.9998C11.6408 26.0003 7.3306 25.0801 3.35425 23.3035C2.31418 22.8386 1.91562 21.6153 2.39526 20.6307L9.40503 6.24785C9.89732 5.23793 11.0701 4.88611 12.0203 5.25468C13.2872 5.74633 14.6375 5.99997 16.0017 5.9998C17.3659 5.99956 18.7155 5.74566 19.9822 5.25371ZM20.7058 7.11797C19.2088 7.69932 17.6139 7.99956 16.0017 7.9998C14.3894 8 12.7939 7.69998 11.2966 7.11894C11.2667 7.10746 11.2366 7.10881 11.2166 7.11601L11.2029 7.12383L4.19995 21.49C7.91162 23.1434 11.933 24.0003 16.0037 23.9998C20.0742 23.9992 24.0953 23.1413 27.8064 21.4871L20.7996 7.12285V7.12187C20.7981 7.12079 20.7937 7.11783 20.7859 7.11504C20.7657 7.10791 20.7357 7.10637 20.7058 7.11797Z" fill="white"/>
<path d="M18.54 11.3009C18.7607 11.2664 18.9809 11.3775 19.079 11.5782L22.6953 18.9913C22.8316 19.2711 22.6812 19.6066 22.3798 19.6846C20.3036 20.2217 18.162 20.4988 16.0038 20.4991C14.1149 20.4994 12.2382 20.2885 10.4072 19.8761L9.62592 19.6866C9.32445 19.6087 9.17415 19.2732 9.31049 18.9932L12.9247 11.5792C13.0228 11.3785 13.243 11.2674 13.4638 11.3018C14.3011 11.4323 15.1496 11.4992 16.0019 11.4991C16.8541 11.499 17.7027 11.4316 18.54 11.3009ZM17.747 13.4112C17.1687 13.4665 16.5864 13.499 16.0019 13.4991C15.417 13.4992 14.8346 13.4673 14.2558 13.4122L11.9492 18.1427C13.2846 18.3773 14.641 18.4993 16.0038 18.4991C17.3656 18.4989 18.7203 18.3755 20.0546 18.1407L17.747 13.4112Z" fill="white"/>
</svg>
