<svg width="48" height="48" viewBox="0 0 48 48" fill="none" xmlns="http://www.w3.org/2000/svg">
<path d="M30.6773 7.93036C31.8871 7.4535 33.3591 7.90979 33.9722 9.16669L45.2828 32.3552C45.8843 33.5884 45.3823 35.1104 44.0933 35.6901C37.7828 38.5275 30.937 39.9987 24.0064 39.9997C17.0758 40.0007 10.2298 38.5315 3.91852 35.696C2.62929 35.1167 2.12691 33.5945 2.72809 32.361L14.0318 9.16962C14.6446 7.91249 16.1168 7.45572 17.3267 7.93231C19.4485 8.76845 21.7134 9.20021 24.0025 9.19989C26.2914 9.19953 28.5558 8.76704 30.6773 7.93036ZM32.1754 10.0427C32.0621 9.81102 31.7418 9.66027 31.4107 9.79071C29.056 10.7194 26.5431 11.1995 24.0025 11.1999C21.4619 11.2002 18.9483 10.7207 16.5933 9.79266C16.2623 9.66254 15.9427 9.81387 15.8297 10.0456L4.52594 33.237C4.40128 33.4928 4.51601 33.7719 4.73785 33.8718C10.7916 36.5916 17.3587 38.0006 24.0064 37.9997C30.654 37.9987 37.2201 36.5874 43.273 33.8659C43.4949 33.766 43.6096 33.4879 43.4849 33.2321L32.1754 10.0427Z" fill="white"/>
<path fill-rule="evenodd" clip-rule="evenodd" d="M27.7514 17.4341C28.1909 17.3718 28.6251 17.5927 28.8197 17.9918L34.1772 28.9742C34.4517 29.5372 34.1462 30.2122 33.5375 30.3599L32.9535 30.4966C30.0271 31.1602 27.0263 31.4991 24.0063 31.4996L23.4027 31.4957C20.5861 31.454 17.7892 31.1183 15.057 30.4996L14.4731 30.3628C13.8642 30.2154 13.5589 29.5403 13.8334 28.9771L19.1869 17.9927C19.3816 17.5937 19.8157 17.3727 20.2553 17.4351C21.3388 17.5889 22.4335 17.6764 23.5326 17.6959L24.0043 17.6998C25.2614 17.6996 26.5136 17.6101 27.7514 17.4341ZM27.3324 19.5035C26.2312 19.6326 25.1197 19.6996 24.0043 19.6998C22.8882 19.6999 21.7763 19.6325 20.6742 19.5035L16.1938 28.6978C18.7558 29.2285 21.3735 29.4999 24.0063 29.4996C26.6382 29.4991 29.2547 29.2271 31.8158 28.6959L27.3324 19.5035Z" fill="white"/>
</svg>
