<svg width="24" height="24" viewBox="0 0 24 24" fill="none" xmlns="http://www.w3.org/2000/svg">
<path d="M19 2C20.6569 2 22 3.34315 22 5V16C22 17.6569 20.6569 19 19 19H8C6.34315 19 5 17.6569 5 16V5C5 3.34315 6.34315 2 8 2H19ZM8 3C6.89543 3 6 3.89543 6 5V16L6.01074 16.2041C6.1062 17.1457 6.85435 17.8938 7.7959 17.9893L8 18H19L19.2041 17.9893C20.2128 17.887 21 17.0357 21 16V5C21 3.89543 20.1046 3 19 3H8Z" fill="white"/>
<path d="M2.5 5C2.77614 5 3 5.22386 3 5.5V15.5C3 18.5376 5.46243 21 8.5 21H18.5C18.7761 21 19 21.2239 19 21.5C19 21.7761 18.7761 22 18.5 22H8.5C4.91015 22 2 19.0899 2 15.5V5.5C2 5.22386 2.22386 5 2.5 5Z" fill="white"/>
<path fill-rule="evenodd" clip-rule="evenodd" d="M15.0004 7.99976C15.3515 7.99989 15.6772 8.18411 15.8578 8.48512L18.8578 13.4851C19.0431 13.7939 19.0479 14.1795 18.8705 14.4929C18.693 14.8061 18.3604 14.9996 18.0004 14.9998H9.00043C8.62166 14.9998 8.27529 14.7858 8.1059 14.447C7.93656 14.1083 7.97347 13.7031 8.20062 13.4002L9.70062 11.4002L9.77582 11.3103C9.96336 11.1133 10.2251 10.9998 10.5004 10.9998C10.815 10.9999 11.1115 11.1484 11.3002 11.4002L11.9077 12.2097L14.143 8.48512L14.2172 8.37769C14.4054 8.14091 14.6933 7.99976 15.0004 7.99976ZM10.5004 5.99976C11.3286 6.00003 12.0003 6.67161 12.0004 7.49976C12.0004 8.32803 11.3286 8.9995 10.5004 8.99976C9.672 8.99976 9.00043 8.32819 9.00043 7.49976C9.00056 6.67145 9.67208 5.99976 10.5004 5.99976Z" fill="#00B2B2"/>
</svg>
