<svg width="16" height="16" viewBox="0 0 16 16" fill="none" xmlns="http://www.w3.org/2000/svg">
<path d="M3.04924 5.53508C5.78292 2.80148 10.216 2.80143 12.9496 5.53508L14.7065 7.29289C15.097 7.6834 15.0969 8.31643 14.7065 8.70696L12.9496 10.4648C10.216 13.1984 5.78291 13.1984 3.04924 10.4648L1.2924 8.70696C0.901881 8.31643 0.901881 7.68342 1.2924 7.29289L3.04924 5.53508ZM11.5346 6.95012C9.58199 4.99752 6.41691 4.99757 4.46428 6.95012L3.4135 7.99993L4.46428 9.04973C6.4169 11.0023 9.58197 11.0023 11.5346 9.04973L12.5844 7.99993L11.5346 6.95012ZM7.99944 5.99993C9.10399 5.99993 9.9994 6.89538 9.99944 7.99993C9.99944 9.1045 9.10401 9.99993 7.99944 9.99993C6.89506 9.9997 5.99944 9.10436 5.99944 7.99993C5.99947 6.89552 6.89508 6.00015 7.99944 5.99993Z" fill="white"/>
</svg>
