<svg width="16" height="16" viewBox="0 0 16 16" fill="none" xmlns="http://www.w3.org/2000/svg">
<path fill-rule="evenodd" clip-rule="evenodd" d="M9.00003 14.0002C8.9999 14.5524 8.55223 15.0002 8.00003 15.0002C7.44784 15.0002 7.00015 14.5524 7.00003 14.0002V13.0002H9.00003V14.0002ZM8.751 1.00024C11.0975 1.00024 13 2.90279 13 5.24927V5.3645C12.9998 7.06585 11.9446 8.58925 10.3516 9.18677C9.58158 9.47558 9.05778 10.1879 9.00491 11.0002H7.00588C7.06037 9.35394 8.09792 7.89538 9.64846 7.31372C10.461 7.00901 10.9998 6.23228 11 5.3645V5.24927C11 4.00736 9.99291 3.00024 8.751 3.00024H8.12307C6.67937 3.00031 5.6196 4.35744 5.96975 5.75806C6.10341 6.29371 5.77786 6.83606 5.24221 6.96997C4.7066 7.10368 4.16431 6.77799 4.0303 6.24243C3.36474 3.5796 5.3783 1.00031 8.12307 1.00024H8.751Z" fill="white"/>
</svg>
