<svg width="16" height="16" viewBox="0 0 16 16" fill="none" xmlns="http://www.w3.org/2000/svg">
<path d="M8 1C8.27614 1 8.5 1.22386 8.5 1.5V3.93084C8.5 4.06447 8.66157 4.1314 8.75607 4.0369L10.6465 2.14648C10.8417 1.95122 11.1583 1.95122 11.3535 2.14648C11.5488 2.34175 11.5488 2.65825 11.3535 2.85352L8.54393 5.6631C8.5158 5.69123 8.5 5.72938 8.5 5.76916V7.35C8.5 7.43284 8.56716 7.5 8.65 7.5H10.2308C10.2706 7.5 10.3088 7.4842 10.3369 7.45607L13.1465 4.64648C13.3417 4.45122 13.6583 4.45122 13.8535 4.64648C14.0488 4.84175 14.0488 5.15825 13.8535 5.35352L11.9631 7.24393C11.8686 7.33843 11.9355 7.5 12.0692 7.5H14.5C14.7761 7.5 15 7.72386 15 8C15 8.27614 14.7761 8.5 14.5 8.5H12.0692C11.9355 8.5 11.8686 8.66157 11.9631 8.75607L13.8535 10.6465C14.0488 10.8417 14.0488 11.1583 13.8535 11.3535C13.6583 11.5488 13.3417 11.5488 13.1465 11.3535L10.3369 8.54393C10.3088 8.5158 10.2706 8.5 10.2308 8.5H8.65C8.56716 8.5 8.5 8.56716 8.5 8.65V10.2308C8.5 10.2706 8.5158 10.3088 8.54393 10.3369L11.3535 13.1465C11.5488 13.3417 11.5488 13.6583 11.3535 13.8535C11.1583 14.0488 10.8417 14.0488 10.6465 13.8535L8.75607 11.9631C8.66157 11.8686 8.5 11.9355 8.5 12.0692V14.5C8.5 14.7761 8.27614 15 8 15C7.72386 15 7.5 14.7761 7.5 14.5V12.0692C7.5 11.9355 7.33843 11.8686 7.24393 11.9631L5.35352 13.8535C5.15825 14.0488 4.84175 14.0488 4.64648 13.8535C4.45122 13.6583 4.45122 13.3417 4.64648 13.1465L7.45607 10.3369C7.4842 10.3088 7.5 10.2706 7.5 10.2308V8.65C7.5 8.56716 7.43284 8.5 7.35 8.5H5.76916C5.72938 8.5 5.69123 8.5158 5.6631 8.54393L2.85352 11.3535C2.65825 11.5488 2.34175 11.5488 2.14648 11.3535C1.95122 11.1583 1.95122 10.8417 2.14648 10.6465L4.0369 8.75607C4.1314 8.66157 4.06447 8.5 3.93084 8.5H1.5C1.22386 8.5 1 8.27614 1 8C1 7.72386 1.22386 7.5 1.5 7.5H3.93084C4.06447 7.5 4.1314 7.33843 4.0369 7.24393L2.14648 5.35352C1.95122 5.15825 1.95122 4.84175 2.14648 4.64648C2.34175 4.45122 2.65825 4.45122 2.85352 4.64648L5.6631 7.45607C5.69123 7.4842 5.72938 7.5 5.76916 7.5H7.35C7.43284 7.5 7.5 7.43284 7.5 7.35V5.76916C7.5 5.72938 7.4842 5.69123 7.45607 5.6631L4.64648 2.85352C4.45122 2.65825 4.45122 2.34175 4.64648 2.14648C4.84175 1.95122 5.15825 1.95122 5.35352 2.14648L7.24393 4.0369C7.33843 4.1314 7.5 4.06447 7.5 3.93084V1.5C7.5 1.22386 7.72386 1 8 1Z" fill="#00B2B2"/>
</svg>
