<svg width="24" height="24" viewBox="0 0 24 24" fill="none" xmlns="http://www.w3.org/2000/svg">
<path d="M12 1.5C12.2761 1.5 12.5 1.72386 12.5 2V6.31013C12.5 6.48831 12.7154 6.57754 12.8414 6.45155L16.1465 3.14648C16.3417 2.95122 16.6583 2.95122 16.8535 3.14648C17.0488 3.34175 17.0488 3.65825 16.8535 3.85352L12.5586 8.14845C12.5211 8.18596 12.5 8.23683 12.5 8.28987V11.3C12.5 11.4105 12.5895 11.5 12.7 11.5H15.713C15.7655 11.5 15.8159 11.4794 15.8533 11.4425L20.2207 7.14355C20.4175 6.94991 20.734 6.95265 20.9277 7.14941C21.1214 7.34621 21.1186 7.66275 20.9219 7.85645L17.5686 11.1575C17.4411 11.283 17.53 11.5 17.709 11.5H22C22.2761 11.5 22.5 11.7239 22.5 12C22.5 12.2761 22.2761 12.5 22 12.5H17.6899C17.5117 12.5 17.4225 12.7154 17.5485 12.8414L20.8535 16.1465C21.0488 16.3417 21.0488 16.6583 20.8535 16.8535C20.6583 17.0488 20.3417 17.0488 20.1465 16.8535L15.8515 12.5586C15.814 12.5211 15.7632 12.5 15.7101 12.5H12.7C12.5895 12.5 12.5 12.5895 12.5 12.7V15.7101C12.5 15.7632 12.5211 15.814 12.5586 15.8515L16.8535 20.1465C17.0488 20.3417 17.0488 20.6583 16.8535 20.8535C16.6583 21.0488 16.3417 21.0488 16.1465 20.8535L12.8414 17.5485C12.7154 17.4225 12.5 17.5117 12.5 17.6899V22C12.5 22.2761 12.2761 22.5 12 22.5C11.7239 22.5 11.5 22.2761 11.5 22V17.6899C11.5 17.5117 11.2846 17.4225 11.1586 17.5485L7.85352 20.8535C7.65825 21.0488 7.34175 21.0488 7.14648 20.8535C6.95122 20.6583 6.95122 20.3417 7.14648 20.1465L11.4414 15.8515C11.4789 15.814 11.5 15.7632 11.5 15.7101V12.7C11.5 12.5895 11.4105 12.5 11.3 12.5H8.28987C8.23683 12.5 8.18596 12.5211 8.14845 12.5586L3.85352 16.8535C3.65825 17.0488 3.34175 17.0488 3.14648 16.8535C2.95122 16.6583 2.95122 16.3417 3.14648 16.1465L6.45155 12.8414C6.57754 12.7154 6.48831 12.5 6.31013 12.5H2C1.72386 12.5 1.5 12.2761 1.5 12C1.5 11.7239 1.72386 11.5 2 11.5H6.31013C6.48831 11.5 6.57754 11.2846 6.45155 11.1586L3.14648 7.85352C2.95122 7.65825 2.95122 7.34175 3.14648 7.14648C3.34175 6.95122 3.65825 6.95122 3.85352 7.14648L8.14845 11.4414C8.18596 11.4789 8.23683 11.5 8.28987 11.5H11.3C11.4105 11.5 11.5 11.4105 11.5 11.3V8.28987C11.5 8.23683 11.4789 8.18596 11.4414 8.14845L7.14648 3.85352C6.95122 3.65825 6.95122 3.34175 7.14648 3.14648C7.34175 2.95122 7.65825 2.95122 7.85352 3.14648L11.1586 6.45155C11.2846 6.57754 11.5 6.48831 11.5 6.31013V2C11.5 1.72386 11.7239 1.5 12 1.5Z" fill="#00B2B2"/>
</svg>
