<svg width="32" height="32" viewBox="0 0 32 32" fill="none" xmlns="http://www.w3.org/2000/svg">
<path d="M16 2.5C16.2761 2.5 16.5 2.72386 16.5 3V9.31013C16.5 9.48831 16.7154 9.57754 16.8414 9.45155L21.6465 4.64648C21.8417 4.45122 22.1583 4.45122 22.3535 4.64648C22.5488 4.84175 22.5488 5.15825 22.3535 5.35352L16.5586 11.1485C16.5211 11.186 16.5 11.2368 16.5 11.2899V15.3C16.5 15.4105 16.5895 15.5 16.7 15.5H20.7101C20.7632 15.5 20.814 15.4789 20.8515 15.4414L26.6465 9.64648C26.8417 9.45122 27.1583 9.45122 27.3535 9.64648C27.5488 9.84175 27.5488 10.1583 27.3535 10.3535L22.5485 15.1586C22.4225 15.2846 22.5117 15.5 22.6899 15.5H29C29.2761 15.5 29.5 15.7239 29.5 16C29.5 16.2761 29.2761 16.5 29 16.5H22.6899C22.5117 16.5 22.4225 16.7154 22.5485 16.8414L27.3535 21.6465C27.5488 21.8417 27.5488 22.1583 27.3535 22.3535C27.1583 22.5488 26.8417 22.5488 26.6465 22.3535L20.8515 16.5586C20.814 16.5211 20.7632 16.5 20.7101 16.5H16.7C16.5895 16.5 16.5 16.5895 16.5 16.7V20.7101C16.5 20.7632 16.5211 20.814 16.5586 20.8515L22.3535 26.6465C22.5488 26.8417 22.5488 27.1583 22.3535 27.3535C22.1583 27.5488 21.8417 27.5488 21.6465 27.3535L16.8414 22.5485C16.7154 22.4225 16.5 22.5117 16.5 22.6899V29C16.5 29.2761 16.2761 29.5 16 29.5C15.7239 29.5 15.5 29.2761 15.5 29V22.6899C15.5 22.5117 15.2846 22.4225 15.1586 22.5485L10.3535 27.3535C10.1583 27.5488 9.84175 27.5488 9.64648 27.3535C9.45122 27.1583 9.45122 26.8417 9.64648 26.6465L15.4414 20.8515C15.4789 20.814 15.5 20.7632 15.5 20.7101V16.7C15.5 16.5895 15.4105 16.5 15.3 16.5H11.2899C11.2368 16.5 11.186 16.5211 11.1485 16.5586L5.35352 22.3535C5.15825 22.5488 4.84175 22.5488 4.64648 22.3535C4.45122 22.1583 4.45122 21.8417 4.64648 21.6465L9.45155 16.8414C9.57754 16.7154 9.48831 16.5 9.31013 16.5H3C2.72386 16.5 2.5 16.2761 2.5 16C2.5 15.7239 2.72386 15.5 3 15.5H9.31013C9.48831 15.5 9.57754 15.2846 9.45155 15.1586L4.64648 10.3535C4.45122 10.1583 4.45122 9.84175 4.64648 9.64648C4.84175 9.45122 5.15825 9.45122 5.35352 9.64648L11.1485 15.4414C11.186 15.4789 11.2368 15.5 11.2899 15.5H15.3C15.4105 15.5 15.5 15.4105 15.5 15.3V11.2899C15.5 11.2368 15.4789 11.186 15.4414 11.1485L9.64648 5.35352C9.45122 5.15825 9.45122 4.84175 9.64648 4.64648C9.84175 4.45122 10.1583 4.45122 10.3535 4.64648L15.1586 9.45155C15.2846 9.57754 15.5 9.48831 15.5 9.31013V3C15.5 2.72386 15.7239 2.5 16 2.5Z" fill="#00B2B2"/>
</svg>
