<svg width="18" height="18" viewBox="0 0 18 18" fill="none" xmlns="http://www.w3.org/2000/svg">
<path d="M17.5 0.5V17.5H0.5V0.5H17.5Z" stroke="white" stroke-opacity="0.1"/>
<path fill-rule="evenodd" clip-rule="evenodd" d="M9.00149 12C9.4715 12 9.91624 12.1082 10.3122 12.3009C10.8088 12.5426 10.806 13.1955 10.4155 13.586L9.7086 14.2929C9.31807 14.6834 8.68491 14.6834 8.29438 14.2929L7.58658 13.5851C7.19603 13.1945 7.19341 12.5417 7.69021 12.3004C8.08647 12.1079 8.5315 12 9.00149 12ZM9.00149 8C10.575 8 12.0276 8.51891 13.1968 9.39523C13.6387 9.72647 13.6347 10.3668 13.2442 10.7573C12.8536 11.1478 12.2241 11.138 11.7641 10.8324C10.9727 10.3065 10.0229 10.0001 9.00149 10C7.98002 10 7.02968 10.3061 6.23792 10.8317C5.77785 11.1371 5.14882 11.1473 4.75834 10.7569C4.36785 10.3664 4.36426 9.7265 4.80614 9.39529C5.97531 8.51893 7.42791 8 9.00149 8ZM9.00149 4C10.446 4 11.8769 4.28411 13.2115 4.83691C14.2375 5.26191 15.1913 5.83929 16.0417 6.54769C16.4659 6.90115 16.4633 7.53823 16.0728 7.92871C15.6823 8.31919 15.0523 8.3142 14.6211 7.96916C13.0811 6.73679 11.1273 6 9.00149 6C6.87571 6 4.92185 6.73679 3.38185 7.96916C2.95069 8.3142 2.32068 8.31919 1.9302 7.92871C1.53972 7.53823 1.53704 6.90115 1.96137 6.54775C2.81201 5.8393 3.76641 5.26194 4.79251 4.83691C6.12691 4.28426 7.55717 4.00002 9.00149 4Z" fill="white"/>
</svg>
