<svg width="48" height="48" viewBox="0 0 24 24" fill="none" xmlns="http://www.w3.org/2000/svg">
<path d="M25.5 0.5V25.5H0.5V0.5H25.5Z" stroke="white" stroke-opacity="0.1"/>
<path fill-rule="evenodd" clip-rule="evenodd" d="M13.0008 18C13.7255 18 14.3905 18.2567 14.909 18.6846C15.0313 18.7854 15.0301 18.9688 14.9181 19.0809L13.7079 20.2922C13.3174 20.6831 12.684 20.6832 12.2934 20.2926L11.2875 19.2867C11.0623 19.0615 11.0601 18.691 11.324 18.5127C11.4838 18.4048 11.6542 18.3113 11.8338 18.2354C11.9234 18.1975 12.0154 18.1639 12.1092 18.1348C12.3908 18.0472 12.6903 18 13.0008 18ZM13.0027 14C14.5751 14.0001 16.0266 14.5185 17.1952 15.3939C17.6375 15.7252 17.6333 16.3661 17.2422 16.7566C16.8518 17.1465 16.2228 17.1368 15.7632 16.8315C15.1056 16.3947 14.3388 16.1093 13.5125 16.0254C13.3443 16.0083 13.1735 16 13.0008 16C11.9793 16 11.0296 16.3065 10.2381 16.8324C9.77813 17.1381 9.14906 17.1483 8.75855 16.7578C8.36808 16.3673 8.36444 15.7275 8.80624 15.3962C9.97563 14.5194 11.4288 14 13.0027 14ZM13.0018 10C15.6792 10 18.1334 10.9565 20.0409 12.5465C20.4651 12.9002 20.4625 13.5373 20.072 13.9278C19.6815 14.3183 19.0516 14.3134 18.6204 13.9684C17.0808 12.7367 15.1278 12.0001 13.0027 12C10.8767 12 8.92237 12.7372 7.38223 13.9699C6.95101 14.3151 6.32049 14.3197 5.92993 13.9291C5.53942 13.5386 5.53633 12.9011 5.96049 12.5475C7.86833 10.9567 10.3235 10 13.0018 10ZM13.0008 6C14.9704 6 16.9213 6.38791 18.741 7.1416C20.2523 7.7676 21.6495 8.63595 22.8776 9.71012C23.2934 10.0739 23.2911 10.7102 22.9002 11.1006C22.5096 11.4906 21.8793 11.4872 21.4603 11.1279C19.1867 9.17802 16.2318 8 13.0018 8C9.77125 8 6.81556 9.17797 4.54177 11.1282C4.12261 11.4878 3.49185 11.4911 3.10136 11.1006C2.71089 10.7101 2.70879 10.0742 3.12439 9.7106C4.35234 8.63625 5.74916 7.76768 7.26056 7.1416C9.0803 6.38784 11.0311 6.00006 13.0008 6Z" fill="white"/>
</svg>
