<svg width="16" height="16" viewBox="0 0 24 24" fill="none" xmlns="http://www.w3.org/2000/svg">
<path fill-rule="evenodd" clip-rule="evenodd" d="M14.9461 3.08045C15.8839 2.73869 17.0513 3.07613 17.5457 4.08924L22.9813 15.2347C23.4601 16.2171 23.0656 17.4477 22.0135 17.9076C18.8603 19.286 15.4526 19.9998 12.0038 20.0004C8.55479 20.0008 5.14577 19.2872 1.99203 17.9095C0.940421 17.4496 0.545698 16.2199 1.02426 15.2377L6.45688 4.09119C6.95092 3.0778 8.11853 2.73896 9.05649 3.08045C9.9979 3.42337 10.9943 3.60006 12.0008 3.59998C13.0075 3.59984 14.0047 3.42368 14.9461 3.08045ZM14.0125 7.94178C13.3495 8.04517 12.6768 8.09889 12.0018 8.099L11.4959 8.08924C10.9908 8.0696 10.4878 8.02017 9.99008 7.94275C9.76845 7.90844 9.54764 8.01967 9.44907 8.22107L6.55649 14.1547C6.42057 14.4335 6.56873 14.7683 6.86899 14.8461L7.49789 14.9984C8.76125 15.283 10.0519 15.4474 11.3524 15.4887L12.0028 15.4994C13.5227 15.4992 15.0334 15.3296 16.5067 14.9974L17.1356 14.8451C17.4356 14.7671 17.584 14.4324 17.4481 14.1537L14.5536 8.2201C14.455 8.01873 14.2341 7.9075 14.0125 7.94178ZM14.7977 13.2836C13.8752 13.4249 12.9411 13.4993 12.0028 13.4994C11.0635 13.4995 10.1284 13.426 9.20493 13.2845L10.7821 10.0482C11.187 10.0812 11.5945 10.0991 12.0028 10.099C12.4101 10.0989 12.816 10.0803 13.2196 10.0472L14.7977 13.2836Z" fill="white"/>
</svg>
