<svg width="32" height="32" viewBox="0 0 32 32" fill="none" xmlns="http://www.w3.org/2000/svg">
<path fill-rule="evenodd" clip-rule="evenodd" d="M19.9823 5.25438C20.9324 4.88536 22.1049 5.2366 22.5975 6.24656L29.6112 20.6274C30.0911 21.6119 29.6933 22.8352 28.6532 23.3003C24.6772 25.078 20.3668 25.9999 16.0038 26.0005C11.6409 26.001 7.33073 25.0807 3.35437 23.3042C2.31425 22.8395 1.916 21.616 2.39539 20.6313L9.40515 6.24852C9.89746 5.23842 11.0701 4.8866 12.0204 5.25535C13.2873 5.74699 14.6376 6.00065 16.0018 6.00047C17.3659 6.00023 18.7156 5.74629 19.9823 5.25438ZM18.5399 11.3012C17.7027 11.432 16.854 11.4994 16.0018 11.4995L15.3632 11.4878C14.7257 11.4629 14.0908 11.4001 13.4628 11.3022C13.2421 11.2681 13.0226 11.3789 12.9247 11.5796L9.31043 18.9936C9.17426 19.2735 9.32453 19.609 9.62586 19.687L10.4071 19.8764C11.9765 20.2299 13.5798 20.4354 15.1952 20.4868L16.0038 20.4995C17.8922 20.4992 19.7682 20.2873 21.5985 19.8745L22.3798 19.686C22.6812 19.608 22.8306 19.2716 22.6942 18.9917L19.078 11.5786C18.9799 11.3779 18.7607 11.2668 18.5399 11.3012ZM20.0546 18.1421C18.7202 18.3768 17.3646 18.4983 16.0028 18.4985C14.6406 18.4987 13.2849 18.3775 11.9501 18.143L14.2557 13.4126C14.8345 13.4677 15.417 13.4995 16.0018 13.4995C16.5866 13.4994 17.1693 13.4679 17.7479 13.4126L20.0546 18.1421Z" fill="white"/>
</svg>
