<svg width="48" height="48" viewBox="0 0 48 48" fill="none" xmlns="http://www.w3.org/2000/svg">
<path fill-rule="evenodd" clip-rule="evenodd" d="M30.6773 7.93045C31.8871 7.45356 33.3591 7.90982 33.9722 9.16678L45.2828 32.3553C45.8843 33.5885 45.3823 35.1105 44.0933 35.6902C37.7828 38.5275 30.937 39.9988 24.0064 39.9998C17.0758 40.0008 10.2298 38.5316 3.91852 35.6961C2.62926 35.1168 2.1269 33.5946 2.72809 32.3611L14.0318 9.16971C14.6446 7.91251 16.1167 7.45578 17.3267 7.9324C19.4485 8.76854 21.7134 9.2003 24.0025 9.19998C26.2914 9.19962 28.5558 8.76713 30.6773 7.93045ZM27.7515 17.4344C26.5138 17.6103 25.2615 17.6998 24.0045 17.7L23.5328 17.6961C22.4337 17.6766 21.3389 17.5891 20.2554 17.4353C19.8158 17.3729 19.3817 17.5939 19.1871 17.993L13.8336 28.9773C13.5591 29.5405 13.8643 30.2157 14.4732 30.3631L15.0572 30.4998C17.7892 31.1185 20.5863 31.4543 23.4029 31.4959L24.0064 31.4998C27.0264 31.4993 30.0273 31.1604 32.9537 30.4969L33.5377 30.3601C34.1461 30.2124 34.4516 29.5373 34.1773 28.9744L28.8199 17.992C28.6253 17.593 28.191 17.3721 27.7515 17.4344ZM31.816 28.6961C29.2549 29.2273 26.6383 29.4993 24.0064 29.4998C21.3737 29.5002 18.7559 29.2287 16.1939 28.698L20.6744 19.5037C21.7764 19.6327 22.8884 19.7001 24.0045 19.7C25.1198 19.6998 26.2314 19.6328 27.3326 19.5037L31.816 28.6961Z" fill="white"/>
</svg>
