<svg width="16" height="16" viewBox="0 0 16 16" fill="none" xmlns="http://www.w3.org/2000/svg">
<path d="M8.23828 8C11.4203 8.00011 13.9999 10.5797 14 13.7617C14 14.4455 13.4455 15 12.7617 15H3.23828C2.5545 15 2 14.4455 2 13.7617C2.0001 10.5797 4.57965 8.0001 7.76172 8H8.23828ZM7.76172 9C5.13194 9.0001 3.0001 11.1319 3 13.7617C3 13.8769 3.08179 13.973 3.19043 13.9951L3.23828 14H12.7617C12.8932 14 13 13.8932 13 13.7617C12.9999 11.2141 10.9993 9.13352 8.4834 9.00586L8.23828 9H7.76172ZM8 1C9.65685 1.00001 11 2.34315 11 4C11 5.65685 9.65685 6.99999 8 7C6.34315 7 5 5.65685 5 4C5 2.34315 6.34315 1 8 1ZM8 2C6.89543 2 6 2.89543 6 4C6 5.10457 6.89543 6 8 6C9.10456 5.99999 10 5.10456 10 4C10 2.89544 9.10456 2.00001 8 2Z" fill="white"/>
</svg>
