<svg width="32" height="32" viewBox="0 0 32 32" fill="none" xmlns="http://www.w3.org/2000/svg">
<path d="M16 16C22.6274 16 27.9999 21.3726 28 28V28.4287C27.9999 29.2965 27.2965 29.9999 26.4287 30H5.57129C4.70352 29.9999 4.00008 29.2965 4 28.4287V28C4.00006 21.3726 9.37262 16 16 16ZM16 17C9.9249 17 5.00006 21.9249 5 28V28.4287L5.01172 28.5439C5.06508 28.8042 5.29529 28.9999 5.57129 29H26.4287C26.7047 28.9999 26.9349 28.8042 26.9883 28.5439L27 28.4287V28C26.9999 21.9249 22.0751 17 16 17ZM16 2C19.3137 2 22 4.68629 22 8C22 11.3137 19.3137 14 16 14C12.6863 14 10 11.3137 10 8C10 4.68629 12.6863 2 16 2ZM16 3C13.2386 3 11 5.23858 11 8C11 10.7614 13.2386 13 16 13C18.7614 13 21 10.7614 21 8C21 5.23858 18.7614 3 16 3Z" fill="white"/>
</svg>
