<svg width="16" height="16" viewBox="0 0 16 16" fill="none" xmlns="http://www.w3.org/2000/svg">
<path fill-rule="evenodd" clip-rule="evenodd" d="M6.16455 3.12793C6.36972 2.94328 6.68682 2.96003 6.87158 3.16504C7.05629 3.37027 7.03968 3.68733 6.83447 3.87207L2.80322 7.5H14.4995C14.7757 7.5 14.9995 7.72386 14.9995 8C14.9995 8.27614 14.7757 8.5 14.4995 8.5H2.80322L6.83447 12.1279C7.03968 12.3127 7.0563 12.6297 6.87158 12.835C6.68682 13.04 6.36972 13.0567 6.16455 12.8721L1.16455 8.37207C1.05937 8.27726 0.999512 8.14161 0.999512 8C0.999512 7.85838 1.05937 7.72274 1.16455 7.62793L6.16455 3.12793Z" fill="white"/>
</svg>
