<svg width="24" height="24" viewBox="0 0 24 24" fill="none" xmlns="http://www.w3.org/2000/svg">
<path d="M17.4998 5.91431L9.87378 13.5403L9.57983 14.4192L10.4597 14.1262L18.0857 6.50024L19.4998 7.91431L11.8738 15.5403C11.6543 15.7597 11.386 15.9255 11.0916 16.0237L9.2644 16.6331C8.09217 17.0233 6.97668 15.9078 7.36694 14.7356L7.97632 12.9084C8.07448 12.614 8.24026 12.3457 8.45972 12.1262L16.0857 4.50024L17.4998 5.91431ZM18.5857 2.00024C19.3667 1.2193 20.6328 1.2193 21.4138 2.00024L21.9998 2.58618C22.7807 3.36721 22.7807 4.63328 21.9998 5.41431L20.9138 6.50024L19.4998 5.08618L20.5857 4.00024L19.9998 3.41431L18.9138 4.50024L17.4998 3.08618L18.5857 2.00024Z" fill="white"/>
<path d="M15 2C15 2.55228 14.5523 3 14 3H6C4.34315 3 3 4.34315 3 6V18C3 19.6569 4.34315 21 6 21H18C19.6569 21 21 19.6569 21 18V10C21 9.44771 21.4477 9 22 9C22.5523 9 23 9.44771 23 10V18C23 20.7614 20.7614 23 18 23H6C3.23858 23 1 20.7614 1 18V6C1 3.23858 3.23858 1 6 1H14C14.5523 1 15 1.44772 15 2Z" fill="white" fill-opacity="0.25"/>
</svg>
