<svg width="32" height="32" viewBox="0 0 32 32" fill="none" xmlns="http://www.w3.org/2000/svg">
<path d="M19.9996 2.99976C19.9996 3.55204 19.5519 3.99976 18.9996 3.99976H8.99963C6.23852 3.99995 3.99986 6.23865 3.99963 8.99976V22.9998C3.99977 25.7609 6.23846 27.9996 8.99963 27.9998H22.9996C25.761 27.9998 27.9995 25.7611 27.9996 22.9998V12.9998C27.9996 12.4475 28.4473 11.9998 28.9996 11.9998C29.5519 11.9998 29.9996 12.4475 29.9996 12.9998V22.9998C29.9995 26.8656 26.8655 29.9998 22.9996 29.9998H8.99963C5.13389 29.9996 1.99977 26.8655 1.99963 22.9998V8.99976C1.99986 5.13408 5.13395 1.99995 8.99963 1.99976H18.9996C19.5519 1.99976 19.9996 2.44747 19.9996 2.99976Z" fill="white" fill-opacity="0.25"/>
<path d="M24.0002 6.41391L12.925 17.4891C12.8773 17.5369 12.8398 17.5944 12.8147 17.6571L11.7942 20.2049L14.343 19.1854C14.4057 19.1602 14.4632 19.1228 14.511 19.075L25.5862 7.99985L27.0002 9.41391L15.925 20.4891C15.6858 20.7284 15.4003 20.9171 15.0862 21.0428L11.4553 22.495C10.2309 22.9848 9.01534 21.7692 9.50513 20.5448L10.9573 16.9139C11.083 16.5998 11.2718 16.3143 11.511 16.075L22.5862 4.99985L24.0002 6.41391ZM25.2327 2.35336C26.2089 1.37745 27.7916 1.37733 28.7678 2.35336L29.6467 3.23227C30.6227 4.20849 30.6227 5.79116 29.6467 6.76743L28.4143 7.99985L27.0002 6.58578L28.2327 5.35336C28.4275 5.15815 28.4276 4.84151 28.2327 4.64633L27.3538 3.76743C27.1586 3.57244 26.842 3.57256 26.6467 3.76743L25.4143 4.99985L24.0002 3.58578L25.2327 2.35336Z" fill="white"/>
</svg>
