<svg width="48" height="48" viewBox="0 0 48 48" fill="none" xmlns="http://www.w3.org/2000/svg">
<path d="M19.3711 43.5547L18.0264 46H15.7129C15.4279 45.9998 15.1431 45.9015 14.915 45.7109L14.8213 45.624L14.6113 45.3984C13.5927 44.2452 13 42.7415 13 41.1455V25H29.5762L19.3711 43.5547ZM27 2C28.6562 2.00038 30 3.34307 30 5V7.67188C29.9999 8.46746 29.6834 9.23059 29.1211 9.79297L29.1191 9.79492L29.0049 9.91016C29.0152 10.2167 29.0697 10.5193 29.1738 10.8057C30.381 14.1255 31 17.6311 31 21.1641V22.4102L30.6758 23H13V21.1641C13 17.6314 13.618 14.1256 14.8252 10.8057C14.9296 10.5185 14.9856 10.2162 14.9961 9.91113L14.8779 9.79297C14.3149 9.22975 14.0001 8.4661 14 7.67188V5C14 3.34331 15.3434 2.00026 17 2H27Z" fill="white"/>
<path fill-rule="evenodd" clip-rule="evenodd" d="M30.5381 27.4016C31.6056 25.4607 34.3944 25.4607 35.4619 27.4016L43.4014 41.8362C44.431 43.7087 43.0763 46 40.9394 46.0003H25.0605C22.9237 46 21.569 43.7087 22.5986 41.8362L30.5381 27.4016ZM33 40.0003C32.1716 40.0003 31.5 40.6719 31.5 41.5003C31.5002 42.3285 32.1718 43.0002 33 43.0003C33.8283 43.0003 34.4998 42.3285 34.5 41.5003C34.5 40.6718 33.8284 40.0003 33 40.0003ZM33 31.0003C32.1872 31.0003 31.543 31.6861 31.5937 32.4973L31.9375 38.0022C31.9727 38.5631 32.438 39.0003 33 39.0003C33.562 39.0003 34.0273 38.5631 34.0625 38.0022L34.4062 32.4973C34.4569 31.6861 33.8128 31.0003 33 31.0003Z" fill="#FF9500"/>
</svg>
