<svg width="16" height="16" viewBox="0 0 16 16" fill="none" xmlns="http://www.w3.org/2000/svg">
<path fill-rule="evenodd" clip-rule="evenodd" d="M8 1.00009C8.27609 1.00015 8.5 1.22399 8.5 1.50009V7.50009H14.5C14.7761 7.50012 15 7.72396 15 8.00009C14.9999 8.27617 14.7761 8.50007 14.5 8.50009H8.5V14.5001C8.49995 14.7762 8.27606 15 8 15.0001C7.72389 15.0001 7.50005 14.7762 7.5 14.5001V8.50009H1.5C1.22389 8.50009 1.00006 8.27619 1 8.00009C1 7.72395 1.22386 7.50009 1.5 7.50009H7.5V1.50009C7.5 1.22395 7.72386 1.00009 8 1.00009Z" fill="white"/>
</svg>
