<svg width="16" height="16" viewBox="0 0 16 16" fill="none" xmlns="http://www.w3.org/2000/svg">
<path d="M3.44037 7.57028C3.56881 7.78787 3.91131 7.78787 4.08257 7.57028C4.21101 7.35269 4.33945 7.1351 4.46789 6.91751C5.4526 5.1768 6.18043 3.82775 8.19266 3.82775C10.3333 3.82775 11.1468 5.61198 11.8746 7.35269C11.9174 7.48324 11.9174 7.48324 12.0031 7.65731C12.0887 7.83138 12.3028 7.96194 12.474 7.65731C12.5596 7.48324 14.8287 3.78423 14.8287 3.78423C15.2997 3.00091 14.7431 2 13.844 2H2.15596C1.25688 2 0.700306 3.00091 1.17125 3.78423L3.44037 7.57028Z" fill="#00B8B9"/>
<path d="M5.66669 7.61375C5.40981 8.09244 5.11012 8.57114 4.81042 9.09335C5.70951 9.04983 6.18046 8.65817 6.73703 8.26651C6.86547 8.17948 6.99391 8.04892 7.12235 7.91837C7.67893 7.39616 8.44957 6.69987 9.69116 6.69987C9.8196 6.69987 9.90523 6.69987 10.0337 6.74339C9.51991 5.74248 9.04896 5.26378 8.19269 5.26378C7.03672 5.22027 6.60859 5.91655 5.66669 7.61375Z" fill="#00B8B9"/>
<path d="M10.89 8.61468C10.6759 8.44061 10.205 8.13599 9.69124 8.13599C9.00622 8.13599 8.53528 8.57116 8.06433 9.00634C7.89307 9.18041 7.72182 9.35448 7.55057 9.44152C7.07962 9.78966 6.52304 10.1813 5.70959 10.3989C5.49552 10.4424 5.36708 10.7471 5.49552 10.9646L6.99399 13.4452C7.46494 14.185 8.53528 14.185 8.96341 13.4452C8.96341 13.4452 11.0613 9.96373 11.2325 9.70263C11.4894 9.31097 11.0613 8.74524 10.89 8.61468Z" fill="#00B8B9"/>
</svg>
