<svg width="16" height="16" viewBox="0 0 16 16" fill="none" xmlns="http://www.w3.org/2000/svg">
<path d="M8 3C9.82666 3 11.5253 3.49221 12.7969 4.33984C14.0614 5.18289 15 6.45705 15 8C15 9.54295 14.0614 10.8171 12.7969 11.6602C11.5253 12.5078 9.82666 13 8 13C6.17334 13 4.47467 12.5078 3.20312 11.6602C1.93856 10.8171 1 9.54295 1 8C1 6.45705 1.93856 5.18289 3.20312 4.33984C4.47467 3.49221 6.17334 3 8 3ZM8 5C6.51313 5 5.21251 5.40396 4.3125 6.00391C3.4055 6.60857 3 7.33381 3 8C3 8.66619 3.4055 9.39143 4.3125 9.99609C5.21251 10.596 6.51313 11 8 11C9.48687 11 10.7875 10.596 11.6875 9.99609C12.5945 9.39143 13 8.66619 13 8C13 7.33381 12.5945 6.60857 11.6875 6.00391C10.7875 5.40396 9.48687 5 8 5Z" fill="white"/>
</svg>
