<svg width="16" height="16" viewBox="0 0 16 16" fill="none" xmlns="http://www.w3.org/2000/svg">
<path fill-rule="evenodd" clip-rule="evenodd" d="M10.1467 2.1466C10.3419 1.95134 10.6585 1.95134 10.8537 2.1466L13.8537 5.1466C14.0488 5.34187 14.0489 5.65842 13.8537 5.85363C13.6585 6.04883 13.342 6.04872 13.1467 5.85363L12.0002 4.70714L4.70723 12.0001L5.85371 13.1466C6.0488 13.3419 6.0489 13.6584 5.85371 13.8536C5.6585 14.0488 5.34195 14.0487 5.14668 13.8536L2.14668 10.8536C1.95143 10.6584 1.95143 10.3419 2.14668 10.1466C2.34194 9.95135 2.65845 9.95135 2.85371 10.1466L4.00019 11.2931L11.2932 4.00011L10.1467 2.85363C9.95142 2.65837 9.95143 2.34186 10.1467 2.1466Z" fill="white"/>
</svg>
