<svg width="18" height="18" viewBox="0 0 18 18" fill="none" xmlns="http://www.w3.org/2000/svg">
<path d="M17.5 0.5V17.5H0.5V0.5H17.5Z" stroke="white" stroke-opacity="0.1"/>
<path fill-rule="evenodd" clip-rule="evenodd" d="M14.5 12.5C14.7761 12.5 15 12.7239 15 13C15 13.2762 14.7761 13.5 14.5 13.5H3.5C3.22386 13.5 3.00001 13.2762 3 13C3 12.7239 3.22386 12.5 3.5 12.5H14.5ZM14.5 8.50002C14.7761 8.50002 15 8.72387 15 9.00002C15 9.27615 14.7761 9.50002 14.5 9.50002H3.5C3.22386 9.50002 3.00001 9.27615 3 9.00002C3 8.72387 3.22386 8.50002 3.5 8.50002H14.5ZM14.5 4.50002C14.7761 4.50002 15 4.72387 15 5.00002C15 5.27615 14.7761 5.50002 14.5 5.50002H3.5C3.22386 5.50002 3.00001 5.27615 3 5.00002C3 4.72387 3.22386 4.50002 3.5 4.50002H14.5Z" fill="white"/>
</svg>
