<svg width="48" height="48" viewBox="0 0 24 24" fill="none" xmlns="http://www.w3.org/2000/svg">
<path d="M25.5 0.5V25.5H0.5V0.5H25.5Z" stroke="white" stroke-opacity="0.1"/>
<path d="M22.5 19.5C22.7761 19.5 23 19.7239 23 20C23 20.2762 22.7761 20.5 22.5 20.5H3.5C3.22386 20.5 3.00001 20.2762 3 20C3 19.7239 3.22386 19.5 3.5 19.5H22.5ZM22.5 12.5C22.7761 12.5 23 12.7239 23 13C23 13.2762 22.7761 13.5 22.5 13.5H3.5C3.22386 13.5 3.00001 13.2762 3 13C3 12.7239 3.22386 12.5 3.5 12.5H22.5ZM22.5 5.50002C22.7761 5.50002 23 5.72387 23 6.00002C23 6.27615 22.7761 6.50002 22.5 6.50002H3.5C3.22386 6.50002 3.00001 6.27615 3 6.00002C3 5.72387 3.22386 5.50002 3.5 5.50002H22.5Z" fill="white"/>
</svg>
