<svg width="32" height="32" viewBox="0 0 32 32" fill="none" xmlns="http://www.w3.org/2000/svg">
<path d="M16.0002 2.00049C18.2091 2.00066 20.0002 3.79135 20.0002 6.00049V19.5317C21.2251 20.629 22.0002 22.2237 22.0002 24.0005C21.9999 27.3138 19.3137 30.0003 16.0002 30.0005C12.6866 30.0005 10.0006 27.3138 10.0002 24.0005C10.0002 22.2237 10.7748 20.6284 12.0002 19.5308V6.00049C12.0002 3.79135 13.7911 2.00049 16.0002 2.00049ZM16.0002 3.00049C14.3434 3.00049 13.0002 4.34363 13.0002 6.00049V19.9995C11.7857 20.9117 11.0002 22.3646 11.0002 24.0005C11.0005 26.7617 13.239 29.0005 16.0002 29.0005C18.7614 29.0004 21 26.7616 21.0002 24.0005C21.0002 22.3649 20.2144 20.9127 19.0002 20.0005V6.00049C19.0002 4.34372 17.657 3.00062 16.0002 3.00049Z" fill="white"/>
<path d="M15 6C15 5.44771 15.4477 5 16 5C16.5523 5 17 5.44772 17 6V23C17 23.5523 16.5523 24 16 24C15.4477 24 15 23.5523 15 23V6Z" fill="white" fill-opacity="0.25"/>
<path d="M15 11C15 10.4477 15.4477 10 16 10C16.5523 10 17 10.4477 17 11V23C17 23.5523 16.5523 24 16 24C15.4477 24 15 23.5523 15 23V11Z" fill="#FF9500"/>
<path d="M13 24C13 22.3431 14.3431 21 16 21C17.6569 21 19 22.3431 19 24C19 25.6569 17.6569 27 16 27C14.3431 27 13 25.6569 13 24Z" fill="#FF9500"/>
</svg>
