<svg width="48" height="48" viewBox="0 0 48 48" fill="none" xmlns="http://www.w3.org/2000/svg">
<path d="M27 2C28.6562 2.00038 30 3.34307 30 5V7.67188C29.9999 8.46746 29.6834 9.23059 29.1211 9.79297L29.1191 9.79492L29.0049 9.91016C29.0152 10.2167 29.0697 10.5193 29.1738 10.8057C30.381 14.1255 31.001 17.6311 31.001 21.1641V22.4092L30.3711 23.5547L29 26.0469V25H15V41.1455C15 42.2092 15.3837 43.2143 16.0479 44H19.126L18.0264 46H15.7129C15.4279 45.9998 15.1431 45.9015 14.915 45.7109L14.8213 45.624L14.6113 45.3984C13.5927 44.2452 13 42.7415 13 41.1455V21.1641C13 17.6314 13.618 14.1256 14.8252 10.8057C14.9296 10.5185 14.9856 10.2162 14.9961 9.91113L14.8779 9.79297C14.3149 9.22975 14.0001 8.4661 14 7.67188V5C14 3.34331 15.3434 2.00026 17 2H27ZM17 4C16.4479 4.00026 16 4.44788 16 5V7.67188C16.0001 7.93696 16.1048 8.19046 16.29 8.37695L16.5059 8.5918L16.5078 8.59375C16.8221 8.90818 16.9998 9.33556 17 9.78125V9.81152L16.9951 10.0254C16.9733 10.5248 16.8752 11.0187 16.7041 11.4893C15.5766 14.5901 15 17.8646 15 21.1641V23H29V21.1641C29 17.8647 28.4225 14.5904 27.2949 11.4893C27.099 10.9503 27 10.382 27 9.81152V9.78125C27.0002 9.33934 27.1745 8.91071 27.4912 8.59375L27.4932 8.5918L27.709 8.37695C27.8953 8.18958 27.9999 7.93586 28 7.67188V5C28 4.44818 27.5524 4.00025 27 4H17Z" fill="white"/>
<path fill-rule="evenodd" clip-rule="evenodd" d="M30.5384 27.4016C31.6059 25.4607 34.3947 25.4607 35.4622 27.4016L43.4017 41.8362C44.4311 43.7085 43.0764 45.9997 40.9398 46.0003H25.0609C22.9239 46 21.5691 43.7087 22.599 41.8362L30.5384 27.4016ZM33.7103 28.3655C33.4026 27.8061 32.598 27.8061 32.2904 28.3655L24.3519 42.8001C24.0551 43.3397 24.4451 44 25.0609 44.0003H40.9398C41.5552 43.9997 41.9451 43.3395 41.6488 42.8001L33.7103 28.3655ZM33.9993 41.0003C33.9992 41.5524 33.5515 42.0003 32.9993 42.0003C32.4474 41.9999 31.9995 41.5522 31.9993 41.0003V40.0003H33.9993V41.0003ZM32.9993 32.0003C33.5516 32.0003 33.9993 32.448 33.9993 33.0003V38.0003H31.9993V33.0003C31.9993 32.4482 32.4473 32.0006 32.9993 32.0003Z" fill="#FF9500"/>
</svg>
