<svg width="16" height="16" viewBox="0 0 16 16" fill="none" xmlns="http://www.w3.org/2000/svg">
<path d="M13 3.00024C13.5523 3.00024 14 3.44796 14 4.00024V12.0002C13.9999 12.5524 13.5522 13.0002 13 13.0002C12.4478 13.0002 12.0001 12.5524 12 12.0002V4.00024C12 3.44799 12.4478 3.0003 13 3.00024ZM6 3.00024C6.37877 3.00024 6.72514 3.21419 6.89453 3.55298L10.8945 11.553C11.1414 12.0469 10.9412 12.6478 10.4473 12.8948C9.95337 13.1416 9.35248 12.9413 9.10547 12.4475L8.38184 11.0002H3.61816L2.89453 12.4475C2.64747 12.9413 2.04664 13.1417 1.55273 12.8948C1.05883 12.6478 0.858652 12.0469 1.10547 11.553L5.10547 3.55298L5.17676 3.43188C5.36167 3.16395 5.66858 3.00028 6 3.00024ZM4.61816 9.00024H7.38184L6 6.23657L4.61816 9.00024Z" fill="white"/>
</svg>
