<svg width="16" height="16" viewBox="0 0 16 16" fill="none" xmlns="http://www.w3.org/2000/svg">
<path d="M4.28027 3.36887C4.66035 2.75468 5.36523 2.51158 6 2.6218V3.655C5.98253 3.64882 5.96468 3.64376 5.94727 3.63742C5.62251 3.5193 5.24827 3.64528 5.09668 3.95578L1.70215 10.9206C1.55075 11.2314 1.68022 11.6074 1.99707 11.7458C3.27496 12.3039 4.62247 12.6785 6 12.864V13.8737C4.48412 13.6828 3.00102 13.2761 1.59668 12.6628C0.733418 12.2858 0.415303 11.2791 0.803711 10.4821L4.19824 3.51828L4.28027 3.36887ZM10 2.62082C10.6352 2.50998 11.3413 2.75324 11.7217 3.36789L11.8037 3.5173L15.2002 10.4802C15.5888 11.2768 15.271 12.2834 14.4082 12.6609C13.0027 13.2752 11.5176 13.6826 10 13.8737V12.864C11.3789 12.6783 12.7279 12.3028 14.0068 11.7439C14.3235 11.6053 14.4523 11.2294 14.3008 10.9187L10.9043 3.9548C10.7525 3.64456 10.3783 3.51924 10.0537 3.63742C10.0361 3.64384 10.0177 3.64874 10 3.655V2.62082Z" fill="white"/>
<path d="M7.99951 0.999786C8.27558 0.999786 8.4994 1.22374 8.49951 1.49979V14.5467C8.49951 14.8228 8.27565 15.0467 7.99951 15.0467C7.72354 15.0465 7.49951 14.8227 7.49951 14.5467V1.49979C7.49963 1.22386 7.72361 0.999983 7.99951 0.999786Z" fill="white"/>
</svg>
