<svg width="32" height="32" viewBox="0 0 24 24" fill="none" xmlns="http://www.w3.org/2000/svg">
<path fill-rule="evenodd" clip-rule="evenodd" d="M6.45623 4.09106C6.95022 3.07767 8.11789 2.73894 9.05584 3.08032C9.36494 3.19291 9.68085 3.28617 10.0002 3.36255V4.38794C9.70047 4.32418 9.40296 4.24778 9.11053 4.15551L8.71307 4.02075C8.19434 3.83216 7.59657 4.03241 7.35467 4.52856L1.92205 15.675C1.68022 16.1712 1.88631 16.772 2.39178 16.9934C4.80694 18.0484 7.37826 18.696 10.0002 18.9153V19.9192C7.24012 19.6976 4.53267 19.0195 1.99139 17.9094C0.93991 17.4494 0.54508 16.2197 1.02362 15.2375L6.45623 4.09106ZM14.9455 3.08032C15.8833 2.73857 17.0507 3.07607 17.5451 4.08911L22.9806 15.2346C23.4595 16.217 23.065 17.4475 22.0129 17.9075C19.4701 19.019 16.762 19.6975 14.0002 19.9192V18.9143C16.4184 18.712 18.7931 18.1465 21.0422 17.2317L21.6125 16.9905C22.0867 16.7831 22.2971 16.2425 22.1222 15.7668L22.0822 15.6721L16.6457 4.52759C16.4034 4.03156 15.806 3.83066 15.2873 4.01977L14.8908 4.15454C14.5979 4.24706 14.3005 4.32402 14.0002 4.38794V3.36255C14.3201 3.28615 14.636 3.19315 14.9455 3.08032Z" fill="white"/>
<path d="M12 1C12.2761 1 12.5 1.22386 12.5 1.5V22.5C12.5 22.7761 12.2761 23 12 23C11.7241 22.9998 11.5 22.776 11.5 22.5V1.5C11.5 1.224 11.7241 1.00023 12 1Z" fill="white"/>
</svg>
