<svg width="16" height="16" viewBox="0 0 16 16" fill="none" xmlns="http://www.w3.org/2000/svg">
<path d="M8.33264 0.500244C8.97697 0.500244 9.49963 1.0229 9.49963 1.66724V3.00024H6.49963V1.66724C6.49963 1.02303 7.02246 0.500442 7.66663 0.500244H8.33264Z" fill="white"/>
<path d="M6 4.5C6 4.22386 6.22386 4 6.5 4H9.5C9.77614 4 10 4.22386 10 4.5V12.5C10 12.7761 9.77614 13 9.5 13H6.5C6.22386 13 6 12.7761 6 12.5V4.5Z" fill="white" fill-opacity="0.25"/>
<path d="M6 11.5C6 11.2239 6.22386 11 6.5 11H9.5C9.77614 11 10 11.2239 10 11.5V12.5C10 12.7761 9.77614 13 9.5 13H6.5C6.22386 13 6 12.7761 6 12.5V11.5Z" fill="#FF3333"/>
<path d="M10 2C11.1046 2 12 2.89543 12 4V13C12 14.1046 11.1046 15 10 15H6C4.89543 15 4 14.1046 4 13V4C4 2.89543 4.89543 2 6 2H10ZM6 3C5.44772 3 5 3.44772 5 4V13L5.00488 13.1025C5.05621 13.6067 5.48232 14 6 14H10L10.1025 13.9951C10.6067 13.9438 11 13.5177 11 13V4C11 3.48232 10.6067 3.05621 10.1025 3.00488L10 3H6Z" fill="white"/>
</svg>
