<svg width="24" height="24" viewBox="0 0 24 24" fill="none" xmlns="http://www.w3.org/2000/svg">
<path d="M12.5 2C13.3284 2 14 2.67157 14 3.5V5H10V3.5C10 2.67157 10.6716 2 11.5 2H12.5Z" fill="white"/>
<rect x="9" y="6" width="6" height="14" rx="0.5" fill="white" fill-opacity="0.25"/>
<path d="M9 17.5C9 17.2239 9.22386 17 9.5 17H14.5C14.7761 17 15 17.2239 15 17.5V19.5C15 19.7761 14.7761 20 14.5 20H9.5C9.22386 20 9 19.7761 9 19.5V17.5Z" fill="#FF3333"/>
<path d="M14.5 4C15.8807 4 17 5.11929 17 6.5V19.5C17 20.8807 15.8807 22 14.5 22H9.5C8.11929 22 7 20.8807 7 19.5V6.5C7 5.11929 8.11929 4 9.5 4H14.5ZM9.5 5C8.67157 5 8 5.67157 8 6.5V19.5C8 20.2767 8.59028 20.9154 9.34668 20.9922L9.5 21H14.5C15.3284 21 16 20.3284 16 19.5V6.5C16 5.67157 15.3284 5 14.5 5H9.5Z" fill="white"/>
</svg>
