<svg width="32" height="32" viewBox="0 0 32 32" fill="none" xmlns="http://www.w3.org/2000/svg">
<path fill-rule="evenodd" clip-rule="evenodd" d="M17.0002 1.99951C18.1047 1.99964 19.0002 2.896 19.0002 4.00049V6.00049H13.0002V4.00049C13.0002 2.89592 13.8957 1.99951 15.0002 1.99951H17.0002Z" fill="white"/>
<path d="M11.5 8.5C11.5 7.94771 11.9477 7.5 12.5 7.5H19.5C20.0523 7.5 20.5 7.94772 20.5 8.5V25.5C20.5 26.0523 20.0523 26.5 19.5 26.5H12.5C11.9477 26.5 11.5 26.0523 11.5 25.5V8.5Z" fill="white" fill-opacity="0.25"/>
<path d="M11.5 23.5C11.5 22.9477 11.9477 22.5 12.5 22.5H19.5C20.0523 22.5 20.5 22.9477 20.5 23.5V25.5C20.5 26.0523 20.0523 26.5 19.5 26.5H12.5C11.9477 26.5 11.5 26.0523 11.5 25.5V23.5Z" fill="#FF3333"/>
<path d="M19.4998 5.5C21.1567 5.5 22.4998 6.84315 22.4998 8.5V25.5C22.4998 27.1569 21.1567 28.5 19.4998 28.5H12.4998C10.843 28.4999 9.49982 27.1568 9.49982 25.5V8.5C9.49982 6.8432 10.8431 5.50009 12.4998 5.5H19.4998ZM12.4998 6.5C11.3953 6.50009 10.4998 7.39549 10.4998 8.5V25.5C10.4998 26.6045 11.3953 27.4999 12.4998 27.5H19.4998C20.6044 27.5 21.4998 26.6046 21.4998 25.5V8.5C21.4998 7.39543 20.6044 6.5 19.4998 6.5H12.4998Z" fill="white"/>
</svg>
