<svg width="48" height="48" viewBox="0 0 48 48" fill="none" xmlns="http://www.w3.org/2000/svg">
<rect x="18" y="12" width="12" height="28" rx="2" fill="white" fill-opacity="0.25"/>
<path d="M18 36C18 35.4477 18.4477 35 19 35H29C29.5523 35 30 35.4477 30 36V39C30 39.5523 29.5523 40 29 40H19C18.4477 40 18 39.5523 18 39V36Z" fill="#FF3333"/>
<path fill-rule="evenodd" clip-rule="evenodd" d="M25.5004 6C26.8809 6.00023 28.0004 7.11943 28.0004 8.5V9H29.0004C31.2094 9.00024 33.0004 10.791 33.0004 13V39C33.0004 41.209 31.2094 42.9998 29.0004 43H19.0004C16.7913 43 15.0004 41.2091 15.0004 39V13C15.0004 10.7909 16.7913 9 19.0004 9H20.0004V8.5C20.0004 7.11929 21.1197 6 22.5004 6H25.5004ZM19.0004 10C17.3436 10 16.0004 11.3431 16.0004 13V39C16.0004 40.6051 17.261 41.9158 18.8461 41.9961L19.0004 42H29.0004L29.1547 41.9961C30.6886 41.9182 31.9188 40.6882 31.9965 39.1543L32.0004 39V13C32.0004 11.395 30.7397 10.0844 29.1547 10.0039L29.0004 10H19.0004Z" fill="white"/>
</svg>
