<svg width="18" height="18" viewBox="0 0 18 18" fill="none" xmlns="http://www.w3.org/2000/svg">
<path d="M17.5 0.5V17.5H0.5V0.5H17.5Z" stroke="white" stroke-opacity="0.1"/>
<path d="M3.36084 11.1749L3.0249 11.0626C2.41281 10.8583 1.99956 10.2851 1.99951 9.63977L1.99951 7.5929C1.99951 7.29474 2.1064 7.00589 2.30029 6.77942L5.16553 3.43665C5.4029 3.15974 5.75004 3.00026 6.11475 3.00012L11.8843 3.00012C12.2491 3.00012 12.596 3.15973 12.8335 3.43665L15.6987 6.77942C15.8928 7.00594 16.0005 7.29462 16.0005 7.5929V9.63977C16.0004 10.2853 15.5864 10.8584 14.9741 11.0626L14.6392 11.1749L15.3335 15.0001H14.3179L13.6167 11.1447C13.5496 10.7749 13.7652 10.4121 14.1216 10.2931L14.6577 10.1144C14.8618 10.0463 14.9995 9.85494 14.9995 9.63977V7.5929C14.9995 7.53322 14.9778 7.47512 14.939 7.42981L12.0747 4.08704C12.039 4.04553 11.9905 4.01749 11.938 4.00598L11.8843 4.00012L6.11475 4.00012C6.06035 4.00023 6.00712 4.01786 5.96436 4.04993L5.92432 4.08704L3.06006 7.42981C3.02138 7.47508 2.99951 7.53335 2.99951 7.5929L2.99951 9.63977C2.99956 9.82792 3.10514 9.99799 3.26807 10.0831L3.34131 10.1144L3.87744 10.2931C4.23412 10.412 4.44941 10.7747 4.38232 11.1447L3.68115 15.0001H2.66553L3.36084 11.1749Z" fill="white"/>
<path d="M9.5 6C10.8807 6 12 7.11929 12 8.5C12 9.88071 10.8807 11 9.5 11H8V13.5C8 13.7761 7.77614 14 7.5 14C7.22386 14 7 13.7761 7 13.5V6.5C7 6.22386 7.22386 6 7.5 6H9.5ZM8 10H9.5C10.3284 10 11 9.32843 11 8.5C11 7.67157 10.3284 7 9.5 7H8V10Z" fill="white"/>
</svg>
