<svg width="18" height="18" viewBox="0 0 18 18" fill="none" xmlns="http://www.w3.org/2000/svg">
<path d="M17.5 0.5V17.5H0.5V0.5H17.5Z" stroke="white" stroke-opacity="0.1"/>
<path d="M14 12C14.5522 12.0001 15 12.4478 15 13C15 13.5522 14.5522 13.9999 14 14H4C3.44772 14 3.00001 13.5523 3 13C3 12.4477 3.44772 12 4 12H14ZM14 8.00002C14.5522 8.00009 15 8.44778 15 9.00002C15 9.55225 14.5522 9.99994 14 10H4C3.44772 10 3.00001 9.55229 3 9.00002C3 8.44773 3.44772 8.00002 4 8.00002H14ZM14 4.00002C14.5522 4.00009 15 4.44778 15 5.00002C15 5.55225 14.5522 5.99994 14 6.00002H4C3.44772 6.00002 3.00001 5.55229 3 5.00002C3 4.44773 3.44772 4.00002 4 4.00002H14Z" fill="white"/>
</svg>
