<svg width="32" height="32" viewBox="0 0 24 24" fill="none" xmlns="http://www.w3.org/2000/svg">
<path d="M25.5 0.5V25.5H0.5V0.5H25.5Z" stroke="white" stroke-opacity="0.1"/>
<path fill-rule="evenodd" clip-rule="evenodd" d="M22.1855 19C22.7378 19.0001 23.1855 19.4478 23.1855 20C23.1855 20.5523 22.7378 21 22.1855 21H4C3.44772 21 3.00001 20.5523 3 20C3 19.4477 3.44772 19 4 19H22.1855ZM22.1855 12C22.7378 12.0001 23.1855 12.4478 23.1855 13C23.1855 13.5523 22.7378 14 22.1855 14H4C3.44772 14 3.00001 13.5523 3 13C3 12.4477 3.44772 12 4 12H22.1855ZM22.1855 5.00002C22.7378 5.00006 23.1855 5.44776 23.1855 6.00002C23.1855 6.55227 22.7378 6.99998 22.1855 7.00002H4C3.44772 7.00002 3.00001 6.55229 3 6.00002C3 5.44773 3.44772 5.00002 4 5.00002H22.1855Z" fill="white"/>
</svg>
