<svg width="16" height="16" viewBox="0 0 16 16" fill="none" xmlns="http://www.w3.org/2000/svg">
<path d="M12.1465 3.14658C12.3417 2.95132 12.6583 2.95132 12.8535 3.14658C13.0487 3.34184 13.0487 3.65838 12.8535 3.85361L8.70703 8.00009L12.8535 12.1466C13.0487 12.3418 13.0487 12.6584 12.8535 12.8536C12.6583 13.0488 12.3418 13.0487 12.1465 12.8536L8 8.70712L3.85352 12.8536C3.65829 13.0488 3.34175 13.0488 3.14648 12.8536C2.95123 12.6583 2.95123 12.3418 3.14648 12.1466L7.29297 8.00009L3.14648 3.85361C2.95122 3.65835 2.95122 3.34184 3.14648 3.14658C3.34175 2.95131 3.65825 2.95131 3.85352 3.14658L8 7.29306L12.1465 3.14658Z" fill="white"/>
</svg>
