<svg width="18" height="18" viewBox="0 0 18 18" fill="none" xmlns="http://www.w3.org/2000/svg">
<path d="M17.5 0.5V17.5H0.5V0.5H17.5Z" stroke="white" stroke-opacity="0.1"/>
<path fill-rule="evenodd" clip-rule="evenodd" d="M9.00169 13C9.19733 13 9.38642 13.0282 9.56513 13.0806C10.095 13.2359 10.0993 13.9024 9.70878 14.2929C9.31827 14.6834 8.68476 14.6831 8.29424 14.2925C7.90367 13.902 7.90788 13.2352 8.43806 13.0803C8.61691 13.028 8.80609 13 9.00169 13ZM9.00169 10C10.2023 10.0001 11.304 10.4235 12.1658 11.129C12.3793 11.3037 12.3781 11.6221 12.1833 11.8174C11.9882 12.0131 11.6729 12.0104 11.4548 11.8408C10.7774 11.3139 9.92623 11.0001 9.00169 11C8.07695 11 7.22486 11.3135 6.54718 11.8403C6.3292 12.0098 6.01433 12.0126 5.8191 11.8174C5.62385 11.6222 5.62243 11.3034 5.83613 11.1285C6.69829 10.423 7.80087 10 9.00169 10ZM9.00169 7C11.0308 7.00004 12.8833 7.75551 14.2936 9.00046C14.5006 9.1832 14.4997 9.50106 14.3044 9.69631C14.1092 9.89154 13.7937 9.89004 13.5851 9.70916C12.3572 8.64438 10.7546 8.00012 9.00169 8C7.2486 8 5.64546 8.64428 4.41728 9.70916C4.20867 9.89004 3.89323 9.89154 3.69799 9.6963C3.50275 9.50105 3.50176 9.1832 3.70876 9.00046C5.11919 7.75533 6.9724 7 9.00169 7ZM9.00169 4C10.4462 4 11.8771 4.28411 13.2117 4.83691C14.392 5.32587 15.4769 6.0165 16.4186 6.8763C16.6225 7.06248 16.6217 7.37995 16.4265 7.57519C16.2313 7.77043 15.9155 7.76941 15.7108 7.58411C13.9367 5.97807 11.5833 5.00005 9.00169 5C6.42012 5 4.06675 5.97812 2.29257 7.58412C2.08786 7.76942 1.77213 7.77044 1.57689 7.5752C1.38165 7.37996 1.3809 7.06248 1.5848 6.8763C2.52645 6.0165 3.61137 5.32587 4.79173 4.83691C6.12631 4.28411 7.55715 4 9.00169 4Z" fill="white"/>
</svg>
