<svg width="32" height="32" viewBox="0 0 24 24" fill="none" xmlns="http://www.w3.org/2000/svg">
<path d="M25.5 0.5V25.5H0.5V0.5H25.5Z" stroke="white" stroke-opacity="0.1"/>
<path fill-rule="evenodd" clip-rule="evenodd" d="M13.0014 18C13.4709 18 13.9152 18.1079 14.3108 18.3003C14.8075 18.5418 14.8051 19.1947 14.4147 19.5854L13.7085 20.2922C13.318 20.6831 12.6846 20.6832 12.294 20.2926L11.5874 19.586C11.1969 19.1955 11.1941 18.5426 11.6907 18.3009C12.0867 18.1082 12.5314 18 13.0014 18ZM13.0014 15C14.4779 15.0001 15.8296 15.5337 16.8747 16.4183C17.0855 16.5968 17.0843 16.9152 16.889 17.1104C16.6938 17.3056 16.3787 17.3035 16.1651 17.1286C15.3033 16.4234 14.2019 16 13.0014 16C11.8007 16 10.6991 16.4235 9.83724 17.129C9.62329 17.3041 9.30774 17.3064 9.11224 17.1108C8.91672 16.9153 8.91547 16.5965 9.12653 16.4179C10.172 15.5332 11.5246 15 13.0014 15ZM13.0024 12C15.3071 12 17.4097 12.866 19.0019 14.2907C19.208 14.4751 19.2071 14.7933 19.0116 14.9888C18.8161 15.1843 18.5002 15.183 18.2929 15.0001C16.8827 13.7553 15.0302 13.0001 13.0014 13C10.9721 13 9.11889 13.7553 7.70846 15.0005C7.50145 15.1832 7.18589 15.1845 6.99064 14.9892C6.7954 14.794 6.79449 14.4763 7.00021 14.2922C8.59274 12.8664 10.6966 12 13.0024 12ZM13.0024 9C16.1359 9.00012 18.9888 10.2015 21.126 12.1685C21.3291 12.3555 21.3283 12.6729 21.133 12.8679C20.9378 13.0628 20.6224 13.0618 20.4188 12.8758C18.4631 11.0895 15.8599 10 13.0024 10C10.1444 10 7.54038 11.0894 5.58446 12.8762C5.3806 13.0625 5.06479 13.0634 4.86954 12.8681C4.67431 12.6729 4.67361 12.3555 4.87676 12.1686C7.01419 10.2012 9.86833 9 13.0024 9ZM13.0014 6C14.9711 6 16.9218 6.38783 18.7416 7.1416C20.4074 7.83158 21.9338 8.81605 23.2485 10.046C23.4501 10.2346 23.4494 10.5518 23.2541 10.7468C23.0589 10.9417 22.7434 10.9409 22.5416 10.7529C20.0415 8.42449 16.6882 7.00012 13.0024 7C9.31606 7 5.96193 8.42457 3.46169 10.7534C3.25965 10.9416 2.9437 10.9423 2.74846 10.7471C2.55322 10.5518 2.55266 10.2346 2.75429 10.046C4.069 8.81604 5.59537 7.8316 7.26116 7.1416C9.081 6.3878 11.0316 6.00002 13.0014 6Z" fill="white"/>
</svg>
