<svg width="16" height="16" viewBox="0 0 16 16" fill="none" xmlns="http://www.w3.org/2000/svg">
<path d="M2.5 8.00003C2.77613 8.00004 3 8.2239 3 8.50003V13H7.5C7.77613 13 8 13.2239 8 13.5C7.99998 13.7762 7.77612 14 7.5 14H2.5C2.22387 14 2.00002 13.7762 2 13.5V8.50003C2 8.22389 2.22386 8.00003 2.5 8.00003ZM13.5 2.00003C13.7761 2.00005 14 2.2239 14 2.50003V7.50003C14 7.77615 13.7761 8.00001 13.5 8.00003C13.2239 8.00003 13 7.77616 13 7.50003V3.00003H8.5C8.22387 3.00003 8.00002 2.77616 8 2.50003C8 2.22389 8.22386 2.00003 8.5 2.00003H13.5Z" fill="white"/>
</svg>
