<svg width="16" height="16" viewBox="0 0 16 16" fill="none" xmlns="http://www.w3.org/2000/svg">
<path d="M12 2.00003C13.1046 2.00003 14 2.89546 14 4.00003V12C14 13.1046 13.1046 14 12 14H4C2.89544 14 2.00002 13.1046 2 12V4.00003C2 2.89546 2.89543 2.00003 4 2.00003H12ZM6.79199 5.0928C6.63985 4.98413 6.43882 4.9705 6.27246 5.05569C6.10605 5.14133 6.00113 5.3129 6.00098 5.50003V10.5C6.00114 10.6872 6.10605 10.8587 6.27246 10.9444C6.43882 11.0296 6.63986 11.0159 6.79199 10.9073L10.292 8.40726C10.4228 8.31344 10.5008 8.16105 10.501 8.00003C10.5008 7.83901 10.4228 7.68662 10.292 7.5928L6.79199 5.0928Z" fill="white"/>
</svg>
