<svg width="32" height="32" viewBox="0 0 24 24" fill="none" xmlns="http://www.w3.org/2000/svg">
<path d="M18 3C19.6569 3 21 4.34315 21 6V18C21 19.6569 19.6569 21 18 21H6C4.34315 21 3 19.6569 3 18V6C3 4.34315 4.34315 3 6 3H18ZM10.5146 8.14258C10.2057 7.95722 9.82034 7.95238 9.50684 8.12988C9.19357 8.30745 9 8.63989 9 9V15C9.00003 15.3601 9.19358 15.6926 9.50684 15.8701C9.82033 16.0476 10.2057 16.0428 10.5146 15.8574L15.5146 12.8574C15.8157 12.6767 16 12.3512 16 12C16 11.6488 15.8157 11.3233 15.5146 11.1426L10.5146 8.14258Z" fill="white"/>
</svg>
