<svg width="24" height="24" viewBox="0 0 24 24" fill="none" xmlns="http://www.w3.org/2000/svg">
<path d="M12 1.5C13.933 1.5 15.5 3.067 15.5 5V15.1729C16.1242 15.9446 16.5 16.9287 16.5 18C16.5 20.4853 14.4853 22.5 12 22.5C9.51472 22.5 7.5 20.4853 7.5 18C7.5 16.9287 7.87584 15.9446 8.5 15.1729V5C8.5 3.067 10.067 1.5 12 1.5ZM12 2.5C10.6193 2.5 9.5 3.61929 9.5 5V15.5518C8.88177 16.183 8.5 17.0467 8.5 18C8.5 19.933 10.067 21.5 12 21.5C13.933 21.5 15.5 19.933 15.5 18C15.5 17.0467 15.1182 16.183 14.5 15.5518V5C14.5 3.61929 13.3807 2.5 12 2.5Z" fill="white"/>
<path d="M11 5C11 4.44772 11.4477 4 12 4C12.5523 4 13 4.44772 13 5V17C13 17.5523 12.5523 18 12 18C11.4477 18 11 17.5523 11 17V5Z" fill="white" fill-opacity="0.25"/>
<path d="M11 7C11 6.44772 11.4477 6 12 6C12.5523 6 13 6.44772 13 7V17C13 17.5523 12.5523 18 12 18C11.4477 18 11 17.5523 11 17V7Z" fill="#FF3333"/>
<path d="M10 18C10 16.8954 10.8954 16 12 16C13.1046 16 14 16.8954 14 18C14 19.1046 13.1046 20 12 20C10.8954 20 10 19.1046 10 18Z" fill="#FF3333"/>
</svg>
