<svg width="48" height="48" viewBox="0 0 48 48" fill="none" xmlns="http://www.w3.org/2000/svg">
<path d="M24 4C27.3137 4 30 6.68629 30 10V30.71C31.2434 32.1193 32 33.9718 32 36C32 40.4183 28.4183 44 24 44C19.5817 44 16 40.4183 16 36C16 33.9718 16.7566 32.1193 18 30.71V10C18 6.68629 20.6863 4 24 4ZM24 5C21.2386 5 19 7.23858 19 10V31.1016C17.763 32.3641 17 34.0928 17 36C17 39.866 20.134 43 24 43C27.866 43 31 39.866 31 36C31 34.0928 30.237 32.3641 29 31.1016V10C29 7.23858 26.7614 5 24 5Z" fill="white"/>
<path d="M22 10C22 8.89543 22.8954 8 24 8C25.1046 8 26 8.89543 26 10V34C26 35.1046 25.1046 36 24 36C22.8954 36 22 35.1046 22 34V10Z" fill="white" fill-opacity="0.25"/>
<path d="M22 12C22 10.8954 22.8954 10 24 10C25.1046 10 26 10.8954 26 12V34C26 35.1046 25.1046 36 24 36C22.8954 36 22 35.1046 22 34V12Z" fill="#FF3333"/>
<path d="M20 36C20 33.7909 21.7909 32 24 32C26.2091 32 28 33.7909 28 36C28 38.2091 26.2091 40 24 40C21.7909 40 20 38.2091 20 36Z" fill="#FF3333"/>
</svg>
