<svg width="32" height="32" viewBox="0 0 32 32" fill="none" xmlns="http://www.w3.org/2000/svg">
<path d="M16 1C19.866 1 23 4.13401 23 8V10H24C25.6569 10 27 11.3431 27 13V16.583C26.6765 16.452 26.343 16.3402 26 16.252V13C26 11.8954 25.1046 11 24 11H8C6.89543 11 6 11.8954 6 13V27C6 28.1046 6.89543 29 8 29H17.7568C18.0457 29.3602 18.3649 29.6947 18.7109 30H8C6.34315 30 5 28.6569 5 27V13C5 11.3431 6.34315 10 8 10H9V8C9 4.13401 12.134 1 16 1ZM16 17C16.5523 17 17 17.4477 17 18V20C17 20.0502 16.9944 20.0993 16.9873 20.1475C16.8881 20.3277 16.7973 20.5128 16.7119 20.7012C16.5305 20.8853 16.2789 21 16 21C15.4477 21 15 20.5523 15 20V18C15 17.4477 15.4477 17 16 17ZM16 2C12.6863 2 10 4.68629 10 8V10H22V8C22 4.68629 19.3137 2 16 2Z" fill="white"/>
<path d="M24 18C27.3137 18 30 20.6863 30 24C30 27.3137 27.3137 30 24 30C20.6863 30 18 27.3137 18 24C18 20.6863 20.6863 18 24 18ZM26.7998 22.0996C26.5789 21.9342 26.2652 21.9794 26.0996 22.2002L23.4453 25.7383L21.8535 24.1465C21.6583 23.9512 21.3417 23.9512 21.1465 24.1465C20.9512 24.3417 20.9512 24.6583 21.1465 24.8535L23.1465 26.8535C23.2489 26.9559 23.3907 27.0092 23.5352 26.999C23.6797 26.9887 23.8134 26.9158 23.9004 26.7998L26.9004 22.7998C27.0658 22.5789 27.0206 22.2652 26.7998 22.0996Z" fill="#00B2B2"/>
</svg>
