<svg width="32" height="32" viewBox="0 0 32 32" fill="none" xmlns="http://www.w3.org/2000/svg">
<path d="M16 16.001C18.562 16.001 20.9348 16.8059 22.8838 18.1738L21.7744 19.8379C20.1432 18.6818 18.1515 18.001 16 18.001C10.4773 18.0011 6 22.4782 6 28.001H15V30.001H5.57129C4.70393 30.0008 4.00055 29.297 4 28.4297V28.001C4 21.3736 9.3727 16.0011 16 16.001ZM16 2C19.3137 2 22 4.68629 22 8C22 11.3137 19.3137 14 16 14C12.6863 14 10 11.3137 10 8C10 4.68629 12.6863 2 16 2ZM16 4C13.7909 4 12 5.79086 12 8C12 10.2091 13.7909 12 16 12C18.2091 12 20 10.2091 20 8C20 5.79086 18.2091 4 16 4Z" fill="white"/>
<path fill-rule="evenodd" clip-rule="evenodd" d="M24.4998 22C24.8785 22 25.2249 22.214 25.3943 22.5527L28.1179 28H29.4998C30.052 28 30.4998 28.4477 30.4998 29C30.4998 29.5523 30.052 30 29.4998 30H27.4998C27.1211 29.9999 26.7746 29.786 26.6052 29.4473L24.4998 25.2363L22.3943 29.4473C22.2349 29.7659 21.9179 29.9758 21.5623 29.998C21.2066 30.0201 20.8654 29.8512 20.6677 29.5547L18.9646 27H17.4998C16.9476 26.9999 16.4998 26.5522 16.4998 26C16.4998 25.4478 16.9476 25.0001 17.4998 25H19.4998C19.8341 25 20.1463 25.1672 20.3318 25.4453L21.3757 27.0107L23.6052 22.5527L23.6765 22.4316C23.8614 22.1637 24.1684 22.0001 24.4998 22Z" fill="#00B2B2"/>
</svg>
