<svg width="16" height="16" viewBox="0 0 16 16" fill="none" xmlns="http://www.w3.org/2000/svg">
<path d="M7.99951 1C8.14114 1 8.27677 1.05985 8.37158 1.16504L12.8716 6.16504C13.0563 6.37028 13.0397 6.68733 12.8345 6.87207C12.6292 7.05656 12.3121 7.04009 12.1274 6.83496L8.49951 2.80371V14.5C8.49951 14.7761 8.27565 15 7.99951 15C7.72357 14.9998 7.49951 14.776 7.49951 14.5V2.80371L3.87158 6.83496C3.68682 7.03996 3.36972 7.05672 3.16455 6.87207C2.95964 6.68737 2.943 6.3702 3.12744 6.16504L7.62744 1.16504L7.70557 1.09473C7.7901 1.03341 7.89333 1.00009 7.99951 1Z" fill="white"/>
</svg>
