<svg width="48" height="48" viewBox="0 0 48 48" fill="none" xmlns="http://www.w3.org/2000/svg">
<path d="M26.999 2C28.6553 2.00038 29.999 3.34307 29.999 5V7.67188C29.9989 8.46746 29.6824 9.2306 29.1201 9.79297L29.1182 9.79492L29.0039 9.91016C29.0142 10.2167 29.0688 10.5193 29.1729 10.8057C30.38 14.1255 30.999 17.6311 30.999 21.1641V28.0615C30.6665 28.0345 30.3331 28.0159 29.999 28.0068V24H14V23H29.999V21.1641C29.999 17.7479 29.4008 14.358 28.2334 11.1475C28.0778 10.7194 27.999 10.2669 27.999 9.81152V9.78125C27.9991 9.60125 28.0701 9.42815 28.1973 9.30078L28.4131 9.08594C28.788 8.71095 28.9989 8.20216 28.999 7.67188V5C28.999 3.89559 28.1034 3.00025 26.999 3H16.999C15.8947 3.00026 14.999 3.89559 14.999 5V7.67188C14.9991 8.20203 15.2092 8.71097 15.584 9.08594L15.7998 9.30078C15.9271 9.42818 15.999 9.60113 15.999 9.78125V9.81152C15.999 10.267 15.9193 10.7194 15.7637 11.1475C14.5963 14.3579 13.999 17.7479 13.999 21.1641V41.1455C13.999 42.5818 14.5682 43.9301 15.5371 44.9268C15.5713 44.962 15.6156 44.9855 15.6631 44.9951L15.7119 45H23.7578L24.7578 46H15.7119C15.4269 45.9998 15.1421 45.9015 14.9141 45.7109L14.8203 45.624L14.6104 45.3984C13.5917 44.2452 12.999 42.7415 12.999 41.1455V21.1641C12.999 17.6314 13.617 14.1256 14.8242 10.8057C14.9286 10.5185 14.9846 10.2162 14.9951 9.91113L14.877 9.79297C14.3842 9.30008 14.0816 8.65375 14.0137 7.96777L13.999 7.67188V5C13.999 3.34331 15.3424 2.00026 16.999 2H26.999Z" fill="white"/>
<path fill-rule="evenodd" clip-rule="evenodd" d="M29.5 43C30.1072 43 30.6783 43.1548 31.176 43.4269C31.6606 43.6919 31.6572 44.3411 31.2668 44.7318L30.2071 45.7923C29.8166 46.1831 29.1832 46.1832 28.7926 45.7926L27.7325 44.7325C27.342 44.342 27.3384 43.6927 27.8228 43.4276C28.3208 43.155 28.8923 43 29.5 43ZM29.5 39C31.2112 39 32.7885 39.5731 34.0505 40.5378C34.4894 40.8733 34.4856 41.5132 34.0948 41.9037C33.7044 42.2939 33.0753 42.285 32.621 41.9713C31.7344 41.3589 30.6592 41 29.5 41C28.3405 41 27.2644 41.3585 26.3773 41.971C25.9229 42.2848 25.2938 42.2938 24.9033 41.9033C24.5128 41.5128 24.5094 40.8735 24.9481 40.5381C26.2104 39.5731 27.7884 39 29.5 39ZM29.5 35C32.3161 35 34.8959 36.0121 36.8951 37.6925C37.3179 38.0479 37.3153 38.6847 36.9248 39.0752C36.5343 39.4657 35.9042 39.461 35.475 39.1134C33.8429 37.7917 31.7638 37 29.5 37C27.2362 37 25.1571 37.7917 23.5249 39.1135C23.0958 39.461 22.4657 39.4657 22.0752 39.0752C21.6847 38.6847 21.6821 38.0479 22.1049 37.6925C24.1042 36.0121 26.6839 35 29.5 35ZM29.5 31C31.5354 31 33.5511 31.4008 35.4316 32.1797C37.0038 32.8309 38.4557 33.736 39.7306 34.8563C40.1454 35.2208 40.1434 35.8566 39.7529 36.2471C39.3624 36.6376 38.7316 36.6344 38.3135 36.2737C35.9485 34.2336 32.8683 33 29.5 33C26.1317 33 23.0515 34.2337 20.6865 36.2737C20.2684 36.6344 19.6375 36.6376 19.2471 36.2471C18.8566 35.8566 18.8545 35.2208 19.2694 34.8563C20.5443 33.736 21.9962 32.8309 23.5684 32.1797C25.4489 31.4008 27.4646 31 29.5 31Z" fill="#00B2B2"/>
</svg>
