<svg width="16" height="16" viewBox="0 0 32 32" fill="none" xmlns="http://www.w3.org/2000/svg">
<g transform="translate(2.9942 4.5563)">
<g id="Warstwa 1">
<path id="Vector" d="M23.5795 1.06356C22.4356 0.351693 21.109 -0.0173962 19.7589 0.000630121C18.4088 0.0186565 17.0926 0.423032 15.9685 1.16518C14.9482 1.91852 14.1973 2.97575 13.8255 4.18249C13.4611 5.58284 13.4154 7.04608 13.6916 8.46614C13.8334 9.09931 13.8728 9.03677 13.1401 9.33382C12.3208 9.64426 11.5553 10.0794 10.871 10.6236C10.7607 10.7174 10.6504 10.7799 10.6188 10.7565C10.436 10.3899 10.3263 9.9918 10.2958 9.58396C10.2692 9.00897 10.3604 8.43459 10.5637 7.89551C10.7999 7.3199 10.9142 6.70219 10.8993 6.08086C10.8844 5.45953 10.7406 4.84791 10.477 4.28411C10.165 3.69182 9.71735 3.18035 9.17004 2.79075C8.62273 2.40114 7.99099 2.14424 7.32551 2.04067C6.83703 1.94687 6.82127 1.94687 6.67945 2.04067C6.62806 2.07584 6.58564 2.12242 6.55556 2.17669C6.52547 2.23096 6.50854 2.29145 6.50612 2.35334C6.50612 2.6582 6.6243 2.76764 7.12855 2.86144C7.92242 2.98988 8.65256 3.37129 9.20854 3.94799C9.496 4.26368 9.71442 4.63504 9.85002 5.03865C9.98563 5.44227 10.0355 5.86937 9.99642 6.29305C9.95057 6.87045 9.81503 7.43736 9.59461 7.97368C9.42505 8.65088 9.38761 9.354 9.4843 10.0452C9.49927 10.1252 9.49927 10.2074 9.4843 10.2875L9.14551 10.0921C8.61697 9.76127 7.99632 9.60527 7.37279 9.64649C6.98572 9.6325 6.59916 9.6854 6.23036 9.80283C5.64818 9.98165 5.09592 10.2451 4.59157 10.5845L4.31582 10.7721L4.07945 10.4516C3.01582 9.01332 0.927938 9.66994 0.250363 11.6632C-0.0127159 12.4894 -0.0694966 13.3666 0.0849081 14.2194C0.188499 14.7362 0.443274 15.2112 0.817407 15.5852C1.19154 15.9592 1.66844 16.2155 2.18854 16.3221C2.85941 16.3952 3.53774 16.3609 4.19764 16.2205L4.59157 16.1189V17.0725C4.54519 18.0339 4.74397 18.9913 5.16952 19.8562C5.59506 20.7211 6.23363 21.4655 7.02612 22.0206C8.36551 22.8883 10.4534 23.115 12.8091 22.6538C16.7485 21.8721 20.7746 19.441 22.6734 16.7208C23.5421 15.5214 24.0179 14.0859 24.0364 12.6091C24.0436 11.6993 24.3173 10.8112 24.8243 10.053C25.1059 9.52027 25.3507 8.96921 25.557 8.40361C26.597 5.40193 25.817 2.5644 23.5795 1.06356ZM24.6588 7.04347C24.4506 7.94746 24.1165 8.81829 23.6661 9.63086C23.1413 10.4487 22.8449 11.3902 22.8073 12.3589C22.8136 13.3288 22.5925 14.2869 22.1613 15.1574C21.7492 15.9612 21.1971 16.6863 20.5304 17.2992C19.3828 18.4412 18.0447 19.3774 16.5752 20.0664C14.6397 21.1039 12.4721 21.6416 10.2722 21.6298C9.49629 21.654 8.72754 21.4761 8.04248 21.1138C7.53557 20.8333 7.09439 20.4492 6.74807 19.9871C6.40175 19.5249 6.15816 18.9951 6.03339 18.4327C5.92653 17.9902 5.8867 17.5344 5.91521 17.0803C5.87566 16.318 6.01876 15.5572 6.33279 14.8603C6.45797 14.6049 6.52009 14.3236 6.514 14.0396C6.47963 13.8947 6.40428 13.7626 6.29681 13.6587C6.18934 13.5548 6.05422 13.4836 5.90733 13.4533H5.71824C5.59328 13.4508 5.46951 13.4779 5.35718 13.5323C5.24484 13.5867 5.14715 13.6668 5.07218 13.766C4.91725 14.0096 4.79539 14.2724 4.70976 14.5477C4.56794 14.9151 4.56794 14.9151 3.99279 15.0558C3.34051 15.2827 2.62602 15.2576 1.99157 14.9854C1.76361 14.8263 1.5803 14.6122 1.45898 14.3633C1.33767 14.1143 1.28234 13.8388 1.29824 13.5627C1.23433 13.1185 1.28217 12.6655 1.43751 12.2441C1.59285 11.8226 1.85086 11.4459 2.18854 11.1473C2.24889 11.0904 2.32054 11.0467 2.3989 11.0188C2.47727 10.9909 2.56063 10.9795 2.64366 10.9854C2.7267 10.9913 2.80759 11.0143 2.88116 11.053C2.95474 11.0916 3.01938 11.145 3.07097 11.2099C3.11155 11.2509 3.14845 11.2954 3.18127 11.3428C3.138 11.3983 3.09059 11.4506 3.03945 11.4991C2.73218 11.843 2.2043 12.4137 2.82673 12.9921C3.44915 13.5706 3.82733 13.0468 4.40248 12.4918C4.90843 11.9462 5.52633 11.5144 6.21461 11.2255C6.65207 11.0122 7.1387 10.9178 7.62491 10.9519C7.89809 10.9286 8.17214 10.9857 8.41279 11.1161C8.75394 11.2849 9.03048 11.5593 9.20067 11.8978C9.30309 12.101 9.30309 12.101 9.20067 12.4137C9.06502 12.7537 9.00847 13.1198 9.03521 13.4846C8.98923 13.849 9.06095 14.2185 9.24006 14.5399C9.38188 14.8213 9.39764 15.0714 9.114 15.8062C9.0519 15.9014 9.01142 16.0089 8.99538 16.1212C8.97934 16.2334 8.98811 16.3478 9.0211 16.4564C9.05408 16.565 9.11048 16.6652 9.18638 16.75C9.26229 16.8348 9.35588 16.9021 9.46067 16.9475C9.56438 16.9951 9.67729 17.0197 9.79158 17.0197C9.90586 17.0197 10.0188 16.9951 10.1225 16.9475C10.2975 16.8354 10.4474 16.6887 10.5626 16.5165C10.6779 16.3444 10.756 16.1504 10.7922 15.9469C12.5807 16.8067 15.3382 16.838 17.8831 16.0172C18.8995 15.6889 19.4195 15.4622 19.5928 15.0792C19.6338 14.9869 19.655 14.887 19.655 14.7861C19.655 14.6852 19.6338 14.5853 19.5928 14.493C19.4999 14.2834 19.3312 14.1161 19.1201 14.0239C18.9923 13.974 18.8545 13.9544 18.7177 13.9666C18.5809 13.9788 18.4489 14.0225 18.3322 14.0943C16.4683 14.9266 14.3906 15.1669 12.3837 14.7822C11.3358 14.5086 10.7685 14.0005 10.6661 13.68C10.6431 13.3522 10.6982 13.0236 10.8268 12.7208C10.9555 12.4179 11.1541 12.1494 11.4067 11.9368C12.1626 11.225 13.07 10.6907 14.0619 10.3735H14.1249L14.1879 10.4516C14.4034 10.7399 14.6704 10.9863 14.9758 11.1786C14.3876 11.3826 13.8307 11.6668 13.3213 12.0228C13.2496 12.1006 13.1945 12.1919 13.1593 12.2913C13.1241 12.3907 13.1095 12.4961 13.1164 12.6013C13.1183 12.7154 13.1454 12.8277 13.1958 12.9304C13.2462 13.033 13.3186 13.1235 13.4079 13.1954C13.5476 13.3207 13.7246 13.3976 13.9122 13.4142C13.991 13.4142 14.0934 13.4142 14.7788 13.0625C15.504 12.681 16.286 12.4171 17.0952 12.2808C17.7176 12.1635 17.9934 12.0932 18.1904 11.8821C18.2764 11.7944 18.3405 11.6879 18.3774 11.5711C18.4143 11.4544 18.4231 11.3306 18.4031 11.2099C18.3702 11.0709 18.3045 10.9417 18.2113 10.833C18.1182 10.7242 18.0003 10.6391 17.8673 10.5845C17.7255 10.5142 17.2449 10.3344 16.8352 10.1859C16.5071 10.0888 16.1902 9.9578 15.8898 9.79501C15.3449 9.32634 15.008 8.66356 14.9522 7.95023C14.8692 7.14197 14.8692 6.32744 14.9522 5.51918C15.0168 4.72675 15.2903 3.96512 15.7453 3.31068C16.2002 2.65623 16.8207 2.13199 17.5443 1.79053C18.6407 1.3122 19.8564 1.17063 21.0346 1.38405C21.8181 1.49706 22.5604 1.80347 23.1934 2.27518C23.745 2.71273 24.1861 3.27199 24.4816 3.90844C24.777 4.54489 24.9186 5.24097 24.8952 5.94129C24.8519 6.3153 24.7727 6.68436 24.6588 7.04347Z" fill="white"/>
</g>
</g>
</svg>
