<svg width="48" height="48" viewBox="0 0 48 48" fill="none" xmlns="http://www.w3.org/2000/svg">
<path d="M28.999 2C30.6553 2.00038 31.999 3.34307 31.999 5V7.67188C31.9989 8.46746 31.6824 9.2306 31.1201 9.79297L31.1182 9.79492L31.0039 9.91016C31.0142 10.2167 31.0688 10.5193 31.1729 10.8057C32.38 14.1255 32.999 17.6311 32.999 21.1641V41.1455C32.999 42.8485 32.323 44.4452 31.1768 45.624L31.083 45.7109C30.8549 45.9015 30.5702 45.9999 30.2852 46H17.7119C17.4269 45.9998 17.1421 45.9015 16.9141 45.7109L16.8203 45.624L16.6104 45.3984C15.5917 44.2452 14.999 42.7415 14.999 41.1455V21.1641C14.999 17.6314 15.617 14.1256 16.8242 10.8057C16.9286 10.5185 16.9846 10.2162 16.9951 9.91113L16.877 9.79297C16.3842 9.30008 16.0816 8.65375 16.0137 7.96777L15.999 7.67188V5C15.999 3.34331 17.3424 2.00026 18.999 2H28.999ZM18.999 3C17.8947 3.00026 16.999 3.89559 16.999 5V7.67188C16.9991 8.20203 17.2092 8.71097 17.584 9.08594L17.7998 9.30078C17.9271 9.42818 17.999 9.60113 17.999 9.78125V9.81152C17.999 10.267 17.9193 10.7194 17.7637 11.1475C16.5963 14.3579 15.999 17.7479 15.999 21.1641V41.1455C15.999 42.5818 16.5682 43.9301 17.5371 44.9268C17.5713 44.962 17.6156 44.9855 17.6631 44.9951L17.7119 45H30.2852C30.3508 44.9999 30.4141 44.9738 30.46 44.9268C31.4291 43.9301 31.999 42.5819 31.999 41.1455V24H16V23H31.999V21.1641C31.999 17.7479 31.4008 14.358 30.2334 11.1475C30.0778 10.7194 29.999 10.2669 29.999 9.81152V9.78125C29.9991 9.60125 30.0701 9.42815 30.1973 9.30078L30.4131 9.08594C30.788 8.71095 30.9989 8.20216 30.999 7.67188V5C30.999 3.89559 30.1034 3.00025 28.999 3H18.999Z" fill="white"/>
</svg>
