<svg width="16" height="16" viewBox="0 0 16 16" fill="none" xmlns="http://www.w3.org/2000/svg">
<path fill-rule="evenodd" clip-rule="evenodd" d="M5.83105 2.75684C6.24155 2.38744 6.87371 2.42061 7.24316 2.83105C7.61255 3.24153 7.57934 3.87371 7.16895 4.24316L4.10547 7H14.5C15.0522 7.00005 15.5 7.44775 15.5 8C15.5 8.55225 15.0522 8.99995 14.5 9H4.10547L7.16895 11.7568C7.57934 12.1263 7.61255 12.7585 7.24316 13.1689C6.87371 13.5794 6.24155 13.6126 5.83105 13.2432L0.831055 8.74316C0.620374 8.55352 0.5 8.28346 0.5 8C0.5 7.71654 0.620374 7.44648 0.831055 7.25683L5.83105 2.75684Z" fill="white"/>
</svg>
