<svg width="16" height="16" viewBox="0 0 16 16" fill="none" xmlns="http://www.w3.org/2000/svg">
<path fill-rule="evenodd" clip-rule="evenodd" d="M6.09171 2.43312C6.90983 0.914387 9.08892 0.914504 9.90714 2.43312L14.954 11.8052C15.7313 13.2486 14.6862 14.9994 13.0468 14.9995H2.95304C1.31361 14.9995 0.268547 13.2487 1.04581 11.8052L6.09171 2.43312ZM9.02725 2.90675C8.58661 2.08955 7.41322 2.08955 6.97257 2.90675L1.92569 12.2798L1.85831 12.4273C1.59732 13.1217 2.05658 13.8897 2.7919 13.9888L2.95304 13.9995H13.0468L13.2079 13.9888C13.9433 13.8897 14.4018 13.1218 14.1405 12.4273L14.0741 12.2798L9.02725 2.90675Z" fill="white"/>
<path fill-rule="evenodd" clip-rule="evenodd" d="M8.74969 12C8.74969 12.4142 8.41391 12.75 7.99969 12.75C7.58562 12.7498 7.24969 12.4141 7.24969 12V11H8.74969V12ZM7.99969 5.25C8.41391 5.25 8.74969 5.58579 8.74969 6V9H7.24969V6C7.24969 5.58589 7.58562 5.25016 7.99969 5.25Z" fill="white"/>
</svg>
