<svg width="24" height="24" viewBox="0 0 24 24" fill="none" xmlns="http://www.w3.org/2000/svg">
<path fill-rule="evenodd" clip-rule="evenodd" d="M9.53781 3.40112C10.6053 1.46035 13.394 1.46049 14.4616 3.40112L22.4011 17.8357C23.431 19.7082 22.0761 21.9995 19.9392 21.9998H4.06027C1.92345 21.9993 0.568516 19.7081 1.59836 17.8357L9.53781 3.40112ZM13.5857 3.88257C12.8979 2.63306 11.1014 2.63292 10.4138 3.88257L2.47531 18.3181L2.41672 18.4314C1.86617 19.6144 2.72707 20.9993 4.06027 20.9998H19.9392L20.0661 20.9958C21.3263 20.9111 22.1156 19.5765 21.5827 18.4314L21.5251 18.3181L13.5857 3.88257Z" fill="white"/>
<path fill-rule="evenodd" clip-rule="evenodd" d="M12.9997 17C12.9997 17.5523 12.552 18 11.9997 18C11.4476 17.9998 10.9997 17.5522 10.9997 17V16H12.9997V17ZM11.9997 8C12.552 8 12.9997 8.44772 12.9997 9V14H10.9997V9C10.9997 8.44782 11.4476 8.00016 11.9997 8Z" fill="white"/>
</svg>
