<svg width="32" height="32" viewBox="0 0 32 32" fill="none" xmlns="http://www.w3.org/2000/svg">
<path fill-rule="evenodd" clip-rule="evenodd" d="M13.0657 4.34046C14.3244 2.00409 17.6762 2.00394 18.9348 4.34046L29.0285 23.0856C30.2243 25.3062 28.6159 27.9993 26.094 27.9996H5.90648C3.38437 27.9995 1.77615 25.3063 2.97191 23.0856L13.0657 4.34046ZM18.0549 4.81507C17.1739 3.17914 14.8266 3.17929 13.9455 4.81507L3.85277 23.5602L3.77952 23.7067C3.0862 25.2305 4.19619 26.9995 5.90648 26.9996H26.094L26.2571 26.9938C27.8736 26.8853 28.8919 25.1814 28.2209 23.7067L28.1477 23.5602L18.0549 4.81507Z" fill="white"/>
<path d="M17 23C17 23.5523 16.5523 24 16 24C15.4479 23.9998 15 23.5522 15 23V22H17V23ZM16 10C16.5523 10 17 10.4477 17 11V20H15V11C15 10.4478 15.4479 10.0002 16 10Z" fill="white"/>
</svg>
