<svg width="48" height="48" viewBox="0 0 48 48" fill="none" xmlns="http://www.w3.org/2000/svg">
<path fill-rule="evenodd" clip-rule="evenodd" d="M19.9522 7.28397C21.7074 4.09331 26.2927 4.09332 28.0479 7.28397L43.9259 36.1541C45.6191 39.2328 43.3917 42.9998 39.878 42.9998H8.12214C4.60846 42.9998 2.38103 39.2328 4.07429 36.1541L19.9522 7.28397ZM27.1719 7.76639C25.7967 5.26614 22.2034 5.26614 20.8282 7.76639L4.95027 36.6355C3.66504 38.9723 5.26248 41.8153 7.86628 41.991L8.12214 41.9998H39.878C42.6311 41.9998 44.3766 39.0478 43.0499 36.6355L27.1719 7.76639Z" fill="white"/>
<path d="M25 36C25 36.5523 24.5523 37 24 37C23.4479 36.9998 23 36.5522 23 36V34H25V36ZM24 16C24.5523 16 25 16.4477 25 17V31H23V17C23 16.4478 23.4479 16.0002 24 16Z" fill="white"/>
</svg>
