<svg width="32" height="32" viewBox="0 0 32 32" fill="none" xmlns="http://www.w3.org/2000/svg">
<path d="M19.7637 4C20.8998 4 21.939 4.64181 22.4473 5.6582L23.1182 7H28C29.6569 7 31 8.34315 31 10V24C31 25.6569 29.6569 27 28 27H4C2.34315 27 1 25.6569 1 24V10C1 8.34315 2.34315 7 4 7H8.88184L9.55273 5.6582C10.061 4.64181 11.1002 4 12.2363 4H19.7637ZM16 10C12.6863 10 10 12.6863 10 16C10 19.3137 12.6863 22 16 22C19.3137 22 22 19.3137 22 16C22 12.6863 19.3137 10 16 10ZM16 12C18.2091 12 20 13.7909 20 16C20 18.2091 18.2091 20 16 20C13.7909 20 12 18.2091 12 16C12 13.7909 13.7909 12 16 12Z" fill="white"/>
</svg>
