<svg width="32" height="32" viewBox="0 0 32 32" fill="none" xmlns="http://www.w3.org/2000/svg">
<path d="M19.9996 2.99976C19.9996 3.55204 19.5519 3.99976 18.9996 3.99976H8.99963C6.23852 3.99995 3.99986 6.23865 3.99963 8.99976V22.9998C3.99977 25.7609 6.23846 27.9996 8.99963 27.9998H22.9996C25.761 27.9998 27.9995 25.7611 27.9996 22.9998V12.9998C27.9996 12.4475 28.4473 11.9998 28.9996 11.9998C29.5519 11.9998 29.9996 12.4475 29.9996 12.9998V22.9998C29.9995 26.8656 26.8655 29.9998 22.9996 29.9998H8.99963C5.13389 29.9996 1.99977 26.8655 1.99963 22.9998V8.99976C1.99986 5.13408 5.13395 1.99995 8.99963 1.99976H18.9996C19.5519 1.99976 19.9996 2.44747 19.9996 2.99976Z" fill="white" fill-opacity="0.25"/>
<path d="M26.2927 8.70752L15.2175 19.7827C15.074 19.9262 14.903 20.0393 14.7146 20.1147L11.0828 21.5669C10.6748 21.7297 10.2701 21.3245 10.4333 20.9165L11.8855 17.2856C11.9609 17.0972 12.0741 16.9262 12.2175 16.7827L23.2927 5.70752L26.2927 8.70752ZM25.9392 3.06104C26.525 2.47527 27.4745 2.4753 28.0603 3.06104L28.9392 3.93896C29.525 4.52474 29.525 5.47523 28.9392 6.06104L27.7068 7.29346L24.7068 4.29346L25.9392 3.06104Z" fill="white"/>
</svg>
