<svg width="48" height="48" viewBox="0 0 24 24" fill="none" xmlns="http://www.w3.org/2000/svg">
<path d="M18.7926 7.2074L11.1666 14.8334C11.0569 14.943 10.9232 15.0255 10.776 15.0746L8.94885 15.684C8.55797 15.8143 8.18575 15.442 8.31604 15.0511L8.92542 13.224C8.97447 13.0769 9.05699 12.9431 9.16663 12.8334L16.7926 5.2074L18.7926 7.2074ZM19.2926 2.7074C19.6831 2.3169 20.3161 2.31696 20.7067 2.7074L21.2926 3.29333C21.6831 3.68386 21.6831 4.31689 21.2926 4.7074L20.2067 5.79333L18.2067 3.79333L19.2926 2.7074Z" fill="white"/>
<path d="M15 2C15 2.55228 14.5523 3 14 3H6C4.34315 3 3 4.34315 3 6V18C3 19.6569 4.34315 21 6 21H18C19.6569 21 21 19.6569 21 18V10C21 9.44772 21.4477 9 22 9C22.5523 9 23 9.44772 23 10V18C23 20.7614 20.7614 23 18 23H6C3.23858 23 1 20.7614 1 18V6C1 3.23858 3.23858 1 6 1H14C14.5523 1 15 1.44772 15 2Z" fill="white" fill-opacity="0.25"/>
</svg>
