<svg width="16" height="16" viewBox="0 0 16 16" fill="none" xmlns="http://www.w3.org/2000/svg">
<path fill-rule="evenodd" clip-rule="evenodd" d="M8.23828 8C9.44652 8.00007 10.5679 8.3722 11.4941 9.00781L10.9385 9.84082C10.2339 9.35459 9.3927 9.05202 8.4834 9.00586L8.23828 9H7.76172C5.13204 9.00016 3.00018 11.132 3 13.7617C3.00007 13.8768 3.08191 13.973 3.19043 13.9951L3.23828 14H7.5V15H3.23828C2.55461 14.9999 2.00008 14.4454 2 13.7617C2.00018 10.5798 4.57976 8.00017 7.76172 8H8.23828ZM8 1C9.65685 1.00001 11 2.34315 11 4C11 5.65685 9.65685 6.99999 8 7C6.34315 7 5 5.65685 5 4C5 2.34315 6.34315 1 8 1ZM8 2C6.89543 2 6 2.89543 6 4C6 5.10457 6.89543 6 8 6C9.10456 5.99999 10 5.10456 10 4C10 2.89544 9.10456 2.00001 8 2Z" fill="white"/>
<path d="M11.9998 11.0003C12.1891 11.0003 12.3623 11.1073 12.447 11.2767L13.8083 14.0003H14.4998C14.7759 14.0003 14.9998 14.2242 14.9998 14.5003C14.9996 14.7763 14.7758 15.0003 14.4998 15.0003H13.4998C13.3105 15.0002 13.1372 14.8932 13.0525 14.724L11.9998 12.6185L10.947 14.724C10.8623 14.8931 10.689 15.0003 10.4998 15.0003C10.3105 15.0002 10.1372 14.8932 10.0525 14.724L9.19116 13.0003H8.49976C8.22383 13.0002 7.99993 12.7762 7.99976 12.5003C7.99976 12.2243 8.22372 12.0004 8.49976 12.0003H9.49976C9.68914 12.0003 9.86233 12.1073 9.94702 12.2767L10.4998 13.3822L11.5525 11.2767L11.5886 11.2161C11.6811 11.0824 11.8342 11.0004 11.9998 11.0003Z" fill="#00B2B2"/>
</svg>
