<svg width="32" height="32" viewBox="0 0 32 32" fill="none" xmlns="http://www.w3.org/2000/svg">
<path d="M16 16C18.5618 16.0001 20.9348 16.8051 22.8838 18.1729L22.3291 19.0059C20.5389 17.7438 18.3568 17.0001 16 17C9.92508 17.0001 5.00016 21.9251 5 28V28.4287L5.01172 28.5439C5.06515 28.804 5.29548 28.9998 5.57129 29H15V30H5.57129C4.7037 29.9998 4.00018 29.2963 4 28.4287V28C4.00016 21.3728 9.37279 16.0001 16 16ZM16 2C19.3137 2 22 4.68629 22 8C22 11.3137 19.3137 14 16 14C12.6863 14 10 11.3137 10 8C10 4.68629 12.6863 2 16 2ZM16 3C13.2386 3 11 5.23858 11 8C11 10.7614 13.2386 13 16 13C18.7614 13 21 10.7614 21 8C21 5.23858 18.7614 3 16 3Z" fill="white"/>
<path d="M24.4998 22C24.6891 22 24.8623 22.107 24.947 22.2764L27.8083 28H29.4998C29.7759 28 29.9998 28.2239 29.9998 28.5C29.9997 28.7761 29.7759 29 29.4998 29H27.4998C27.3105 28.9999 27.1371 28.893 27.0525 28.7236L24.4998 23.6182L21.947 28.7236C21.8673 28.8829 21.7088 28.9879 21.531 28.999C21.3532 29.01 21.1826 28.9256 21.0837 28.7773L19.2322 26H17.4998C17.2237 25.9999 16.9998 25.776 16.9998 25.5C16.9998 25.2239 17.2237 25.0001 17.4998 25H19.4998C19.6669 25 19.823 25.0836 19.9158 25.2227L21.4373 27.5049L24.0525 22.2764L24.0886 22.2158C24.1811 22.082 24.3342 22.0001 24.4998 22Z" fill="#00B2B2"/>
</svg>
