<svg width="16" height="16" viewBox="0 0 16 16" fill="none" xmlns="http://www.w3.org/2000/svg">
<path fill-rule="evenodd" clip-rule="evenodd" d="M13.7578 1.03059C14.0985 0.945513 14.4587 1.04497 14.707 1.29328C14.9552 1.5416 15.0548 1.90189 14.9697 2.2425L13.0479 9.93C12.3028 12.9095 9.62593 15.0003 6.55469 15.0003C3.48703 15.0003 1.00019 12.5132 1 9.44562C1 6.37424 3.09063 3.69738 6.07031 2.95246L13.7578 1.03059ZM6.55469 4.89191C4.46549 5.41435 3 7.29207 3 9.44562C3.00003 9.79077 3.04982 10.1242 3.1416 10.4398C5.17541 8.94101 7.20927 7.44231 9.24316 5.94367C9.37746 5.84472 9.51219 5.74575 9.64648 5.6468L10.3535 6.35383C10.2546 6.48811 10.1556 6.62287 10.0566 6.75715C8.55816 8.79083 7.05915 10.8241 5.56055 12.8577C5.8761 12.9495 6.20952 13.0003 6.55469 13.0003C8.7081 13.0003 10.5859 11.5346 11.1084 9.44562L12.626 3.37336L6.55469 4.89191Z" fill="white"/>
</svg>
