<svg width="24" height="24" viewBox="0 0 32 32" fill="none" xmlns="http://www.w3.org/2000/svg">
<g transform="translate(0.0000 0.0000)">
<g id="Soft-tissue">
<path id="Vector" fill-rule="evenodd" clip-rule="evenodd" d="M27.9101 6.86693C27.6953 6.62127 27.3092 6.59579 27.0237 6.89423C26.9312 6.99067 26.8959 7.02434 26.7445 7.18175C26.382 7.56025 25.1666 8.82861 24.6744 9.56014C24.3055 10.1088 23.8315 11.3899 23.585 12.3616C23.3421 13.3161 23.3765 14.4334 23.1472 15.4452C22.8771 16.6362 22.1548 18.0647 21.4886 19.0628C20.8759 19.9809 20.0494 20.7615 19.1602 21.4094C18.1651 22.1345 16.6823 23.018 15.5512 23.3774C14.9068 23.5821 14.1736 23.6567 13.4666 23.7486C12.6654 23.8542 11.8959 23.9852 11.2805 24.2836C10.1403 24.8368 8.73189 26.1707 8.20712 26.5883C7.96331 26.783 7.85002 26.8586 7.63975 27.0178C7.39957 27.1998 7.35154 27.5419 7.5319 27.783C7.71226 28.0232 8.05395 28.0714 8.29322 27.8903C8.51256 27.7248 8.62948 27.6456 8.88325 27.4436C9.37539 27.0514 10.6851 25.7858 11.7545 25.2663C12.2748 25.0133 12.9301 24.9205 13.6071 24.8314C14.3784 24.7304 15.1769 24.6421 15.8802 24.4183C17.1056 24.0289 18.7189 23.079 19.7983 22.2937C20.7908 21.5713 21.708 20.6951 22.3923 19.6706C23.1255 18.5733 23.9113 16.9974 24.2077 15.6872C24.4351 14.6845 24.3989 13.5772 24.6391 12.6319C24.8548 11.7802 25.2527 10.652 25.5762 10.1707C26.0385 9.4828 27.165 8.27177 27.5285 7.93876C27.6227 7.85232 27.7152 7.76315 27.7959 7.66307C27.9173 7.51203 28.1176 7.10441 27.9101 6.86693ZM25.8508 5.06812L25.8291 5.06903L25.8028 5.06994L25.7765 5.07267L25.7512 5.07631L25.7376 5.07904L25.7249 5.08086L25.7122 5.0845L25.6995 5.08723L25.6868 5.09087L25.6741 5.09542L25.6496 5.10361L25.6252 5.11362L25.6007 5.12544L25.5817 5.13545L25.5626 5.14637L25.5472 5.15547L25.5282 5.16821L25.5137 5.17913L25.4965 5.19368L25.482 5.20551L25.4647 5.22189C25.4086 5.27557 24.4596 6.19181 23.643 7.06437L23.5859 7.11897C23.1989 7.48837 22.772 7.85323 22.3478 8.19534C22.1149 8.35639 21.8666 8.49651 21.5765 8.62025C20.7364 8.97783 19.3352 9.26261 18.2195 9.46188C17.0186 9.67569 15.9944 10.0305 14.9059 10.5255C13.8065 11.0241 12.6183 11.9658 12.0137 12.519C11.4101 13.0713 10.3406 14.4179 9.58113 15.8865C8.82343 17.3513 8.74458 19.4686 8.65576 20.1619C8.57691 20.7724 8.19353 22.2928 7.59534 23.1281C7.39141 23.4129 7.10139 23.7459 6.8032 24.0653L6.79414 24.0744C6.01106 24.8214 5.68115 25.1744 5.51257 25.35L5.5026 25.3609C5.48991 25.3737 5.47813 25.3882 5.46725 25.4028L5.4591 25.4146L5.45094 25.4264L5.43916 25.4446L5.43009 25.4592L5.42375 25.471L5.4174 25.4837L5.41197 25.4956L5.40653 25.5074L5.40109 25.5201L5.39565 25.532L5.39293 25.5411C5.38206 25.5702 5.3739 25.5993 5.36846 25.6293L5.36574 25.6466L5.36393 25.6594L5.36212 25.673L5.36121 25.6857L5.36031 25.6985L5.3594 25.7249V25.7467L5.36121 25.7667L5.36212 25.7858L5.36484 25.804L5.36665 25.8168C5.37118 25.8468 5.37843 25.8768 5.3884 25.9059L5.39293 25.9187L5.40109 25.9396L5.40925 25.9578L5.41922 25.9796L5.42556 25.9915L5.43281 26.0024L5.43916 26.0142L5.44641 26.026L5.45366 26.0369L5.46 26.046C5.46997 26.0606 5.48176 26.0752 5.49354 26.0888L5.50532 26.1015L5.51801 26.1152L5.53342 26.1298L5.53614 26.1316C5.54882 26.1443 5.56333 26.1561 5.57783 26.1671L5.58961 26.1752L5.60139 26.1834L5.61952 26.1953L5.63402 26.2044L5.6458 26.2107L5.65759 26.2171L5.67027 26.2226L5.68206 26.228L5.69474 26.2335L5.70653 26.2389L5.71559 26.2417C5.74459 26.2526 5.7736 26.2608 5.80351 26.2662L5.82073 26.269L5.83342 26.2708L5.84701 26.2726L5.8597 26.2735L5.87239 26.2744L5.89867 26.2753H5.92042L5.94036 26.2744L5.9594 26.2726L5.97752 26.2699L5.99021 26.2681C6.02012 26.2635 6.05003 26.2562 6.07903 26.2462L6.09172 26.2417L6.10532 26.2362L6.12435 26.228L6.13976 26.2207L6.15245 26.2153L6.16423 26.2089L6.17511 26.2025L6.18689 26.1953L6.19867 26.188L6.20955 26.1807L6.21861 26.1743C6.23311 26.1643 6.24761 26.1525 6.26121 26.1407L6.2748 26.1279C6.32284 26.0833 6.90652 25.5374 7.49927 24.9114L7.53371 24.875L7.54277 24.8659C7.93069 24.4965 8.35757 24.1317 8.78174 23.7896C9.01376 23.6285 9.2621 23.4884 9.55213 23.3647C10.3923 23.0071 11.7944 22.7214 12.9092 22.523C14.1101 22.3083 15.1343 21.9535 16.2228 21.4594C17.3222 20.9599 18.5104 20.0191 19.1158 19.465C19.7185 18.9136 20.788 17.5661 21.5485 16.0975C22.3062 14.6336 22.385 12.5163 22.4738 11.823C22.5509 11.2188 22.927 9.72756 23.5125 8.88684C24.2919 8.07615 26.1708 6.0617 26.2379 5.98891L26.2533 5.97162L26.265 5.95797L26.2741 5.94705L26.2823 5.93614L26.2977 5.91339L26.3122 5.89064L26.3221 5.87245L26.3339 5.84879L26.343 5.82786L26.3502 5.81148L26.3575 5.79056L26.3638 5.77054L26.3702 5.7487L26.3747 5.72687L26.3792 5.70048L26.3829 5.675L26.3856 5.64862L26.3865 5.62223V5.60039L26.3847 5.57401L26.382 5.54762L26.3783 5.52215L26.3765 5.50941L26.3738 5.49576L26.3711 5.48302L26.3675 5.47028L26.3638 5.45755L26.3602 5.44481L26.3511 5.42024L26.3412 5.39567L26.3294 5.37111L26.3203 5.35291L26.3086 5.33289L26.2995 5.31743L26.2868 5.29923L26.2759 5.28467L26.2614 5.26647L26.2496 5.25283L26.2342 5.23554L26.2143 5.21552L26.1953 5.19823L26.1844 5.19004L26.1744 5.18095L26.1635 5.17276L26.1409 5.15729L26.1182 5.14364L26.1001 5.13272L26.0756 5.12089L26.0557 5.1118L26.0394 5.10543L26.0185 5.09724L25.9986 5.09087L25.9768 5.08541L25.9551 5.07995L25.9288 5.0754L25.9025 5.07176L25.8771 5.06994L25.8508 5.06812ZM4.92889 24.2718C4.92889 24.2718 6.08991 23.0935 6.4461 22.5476C6.81226 21.9871 7.37691 20.7088 7.54096 19.7061C7.70773 18.6907 7.7757 17.5961 8.0476 16.507C8.32404 15.3969 8.97298 14.024 9.62645 13.054C10.2437 12.1378 11.0657 11.3526 11.9567 10.7048C12.9527 9.97959 14.6249 9.04061 15.5675 8.7358C16.5418 8.4219 19.2237 8.00336 19.7376 7.86779C20.2977 7.71948 21.6907 7.03344 22.2472 6.60216C22.7784 6.1909 24.1333 5.03901 24.2448 4.91981C24.4496 4.69963 24.4388 4.35388 24.2203 4.14734C24.001 3.9417 23.6566 3.95262 23.4509 4.1719C23.3475 4.28382 22.0787 5.35382 21.5829 5.73778C21.1125 6.10264 19.9352 6.68678 19.4611 6.81143C18.94 6.94882 16.2228 7.37737 15.234 7.69673C14.2134 8.0261 12.3971 9.03515 11.3177 9.82127C10.3261 10.5428 9.41346 11.4208 8.72555 12.4417C8.00682 13.509 7.29625 15.0212 6.99262 16.2413C6.71347 17.3614 6.63915 18.485 6.46785 19.5296C6.32828 20.383 5.84792 21.4721 5.53614 21.9498C5.21438 22.443 4.1585 23.5011 4.1585 23.5011C3.94641 23.715 3.94732 24.0607 4.16031 24.2736C4.37239 24.4856 4.71771 24.4847 4.92889 24.2718ZM21.553 11.6328C21.2068 12.3398 20.4953 14.1268 20.072 14.7728C19.1874 16.1221 18.388 16.9292 17.7019 17.678C17.1518 18.2776 16.1412 19.1547 15.1379 19.8116C14.0956 20.494 12.2639 21.2419 11.0911 21.8334C11.3168 21.7897 11.537 21.7487 11.7473 21.7114C12.8557 21.5131 14.7708 20.9208 15.7751 20.4649C16.7675 20.0136 17.837 19.1583 18.3826 18.6579C18.9309 18.1575 19.8935 16.9273 20.5832 15.5944C21.0717 14.6499 21.4705 12.5063 21.553 11.6328ZM19.8491 11.1051C18.8249 11.6283 17.527 12.4708 16.5853 13.0877C15.6636 13.6919 14.7328 14.4953 14.227 15.0466C13.5727 15.76 12.8086 16.5261 11.9657 17.8126C11.4573 18.5879 10.2962 20.6878 9.98174 21.3784C10.1132 21.2465 10.2527 21.1045 10.4032 20.9499C10.9252 20.413 12.2974 18.7398 13.1231 17.819C13.879 16.9774 14.6358 16.345 15.1642 15.7691C15.8421 15.0303 16.7874 14.0121 17.9421 12.9221C18.4352 12.4572 19.4358 11.5455 19.8491 11.1051ZM20.8578 11.1642C20.3938 11.6592 19.2962 13.1423 18.688 13.7173C17.556 14.7864 16.6288 15.7845 15.9645 16.5079C15.4379 17.082 14.6838 17.7117 13.9307 18.5506C13.3434 19.2057 12.2675 20.1501 11.7944 20.6114C12.5857 20.1929 13.763 19.4076 14.5433 18.8972C15.4651 18.2931 16.3959 17.4887 16.9016 16.9383C17.556 16.2249 18.321 15.4588 19.1639 14.1723C19.5753 13.5435 20.5297 11.8403 20.8578 11.1642ZM20.1989 10.1215C19.9741 10.1652 19.7539 10.2061 19.5427 10.2435C18.4352 10.4418 16.3587 11.0642 15.3545 11.52C14.3612 11.9704 13.2926 12.8266 12.7461 13.3261C12.1986 13.8274 11.2361 15.0567 10.5464 16.3905C10.057 17.335 9.61104 19.4668 9.52856 20.3403C9.87479 19.6333 10.6334 17.8581 11.0567 17.2121C11.9412 15.8619 12.7406 15.0557 13.4276 14.3069C13.9769 13.7073 14.9884 12.8302 15.9908 12.1733C17.0331 11.4909 19.027 10.7129 20.1989 10.1215Z" fill="white"/>
</g>
</g>
</svg>
