<svg width="16" height="16" viewBox="0 0 16 16" fill="none" xmlns="http://www.w3.org/2000/svg">
<path d="M12 2.00003C13.1046 2.00003 14 2.89546 14 4.00003V12C14 13.1046 13.1046 14 12 14H4C2.89544 14 2.00002 13.1046 2 12V4.00003C2 2.89546 2.89543 2.00003 4 2.00003H12ZM4 12H12V4.00003H4V12Z" fill="white"/>
<path fill-rule="evenodd" clip-rule="evenodd" d="M6.27197 5.056C6.43843 4.97052 6.63921 4.98433 6.7915 5.09311L10.2915 7.59311C10.4226 7.687 10.5005 7.8391 10.5005 8.00034C10.5004 8.16159 10.4227 8.31376 10.2915 8.40757L6.7915 10.9076C6.63929 11.0163 6.43838 11.03 6.27197 10.9447C6.10553 10.859 5.99963 10.6875 5.99951 10.5003V5.50034C5.99951 5.31305 6.10544 5.14171 6.27197 5.056Z" fill="#00B2B2"/>
</svg>
