<svg width="32" height="32" viewBox="0 0 24 24" fill="none" xmlns="http://www.w3.org/2000/svg">
<path d="M18 3C19.6569 3 21 4.34315 21 6V18C21 19.6569 19.6569 21 18 21H6C4.34315 21 3 19.6569 3 18V6C3 4.34315 4.34315 3 6 3H18ZM6 5C5.44772 5 5 5.44772 5 6V18C5 18.5523 5.44772 19 6 19H18C18.5523 19 19 18.5523 19 18V6C19 5.44772 18.5523 5 18 5H6Z" fill="white"/>
<path fill-rule="evenodd" clip-rule="evenodd" d="M9.50684 8.12984C9.82034 7.95233 10.2057 7.95717 10.5146 8.14253L15.5146 11.1425C15.8158 11.3233 16 11.6488 16 12C16 12.3511 15.8158 12.6766 15.5146 12.8574L10.5146 15.8574C10.2057 16.0427 9.82034 16.0476 9.50684 15.8701C9.19356 15.6925 9.00001 15.3601 9 15V8.99995C9 8.63984 9.19356 8.3074 9.50684 8.12984Z" fill="#00B2B2"/>
</svg>
