<svg width="16" height="16" viewBox="0 0 24 24" fill="none" xmlns="http://www.w3.org/2000/svg">
<path fill-rule="evenodd" clip-rule="evenodd" d="M17.4999 5.20708L9.52038 13.1866C9.46562 13.2414 9.42381 13.3084 9.39928 13.3819L8.79089 15.209L10.618 14.6006C10.6915 14.5761 10.7585 14.5343 10.8133 14.4795L18.7928 6.50005L19.4999 7.20708L11.5204 15.1866C11.3559 15.351 11.1551 15.4753 10.9344 15.5489L9.10632 16.1583C8.32496 16.4182 7.5817 15.675 7.84167 14.8936L8.45104 13.0655C8.52467 12.8448 8.64888 12.6441 8.81335 12.4795L16.7928 4.50005L17.4999 5.20708ZM18.9393 2.35357C19.5251 1.76788 20.4746 1.76789 21.0604 2.35357L21.6464 2.93951C22.232 3.52527 22.232 4.47483 21.6464 5.0606L20.2069 6.50005L19.4999 5.79302L20.9393 4.35357C21.1345 4.15832 21.1345 3.84178 20.9393 3.64654L20.3534 3.0606C20.1581 2.86544 19.8416 2.86544 19.6464 3.0606L18.2069 4.50005L17.4999 3.79302L18.9393 2.35357Z" fill="white"/>
<path d="M15 1.5C15 1.77614 14.7761 2 14.5 2H6C3.79086 2 2 3.79086 2 6V18L2.00488 18.2061C2.10865 20.2512 3.7488 21.8913 5.79395 21.9951L6 22H18L18.2061 21.9951C20.3194 21.8879 22 20.14 22 18V9.5C22 9.22386 22.2239 9 22.5 9C22.7761 9 23 9.22386 23 9.5V18C23 20.7614 20.7614 23 18 23H6C3.23858 23 1 20.7614 1 18V6C1 3.23858 3.23858 1 6 1H14.5C14.7761 1 15 1.22386 15 1.5Z" fill="white" fill-opacity="0.25"/>
</svg>
