<svg width="32" height="32" viewBox="0 0 32 32" fill="none" xmlns="http://www.w3.org/2000/svg">
<path d="M19.9996 2.49976C19.9996 2.7759 19.7758 2.99976 19.4996 2.99976H8.99963C5.68624 2.99995 2.99986 5.68637 2.99963 8.99976V22.9998L3.00745 23.3083C3.163 26.3762 5.62321 28.8363 8.69104 28.9919L8.99963 28.9998H22.9996L23.3082 28.9919C26.3762 28.8365 28.8363 26.3763 28.9918 23.3083L28.9996 22.9998V12.4998C28.9996 12.2236 29.2235 11.9998 29.4996 11.9998C29.7758 11.9998 29.9996 12.2236 29.9996 12.4998V22.9998C29.9995 26.8656 26.8655 29.9998 22.9996 29.9998H8.99963C5.13389 29.9996 1.99977 26.8655 1.99963 22.9998V8.99976C1.99986 5.13408 5.13395 1.99995 8.99963 1.99976H19.4996C19.7758 1.99976 19.9996 2.22361 19.9996 2.49976Z" fill="white" fill-opacity="0.25"/>
<path d="M23.9998 5.70664L12.571 17.1363C12.4754 17.232 12.3996 17.3467 12.3494 17.4723L10.8972 21.1031L14.5281 19.651C14.6537 19.6007 14.7683 19.5249 14.864 19.4293L26.2927 7.99961L26.9998 8.70664L15.571 20.1363C15.3796 20.3277 15.1505 20.4782 14.8992 20.5787L11.2683 22.0318C10.4525 22.3574 9.64299 21.5478 9.96851 20.732L11.4216 17.1012C11.5222 16.8498 11.6726 16.6208 11.864 16.4293L23.2927 4.99961L23.9998 5.70664ZM25.5857 2.70762C26.3667 1.92668 27.6328 1.9267 28.4138 2.70762L29.2927 3.58652C30.0734 4.36758 30.0736 5.6337 29.2927 6.41465L27.7068 7.99961L26.9998 7.29258L28.5857 5.70762C28.9761 5.31719 28.9759 4.68409 28.5857 4.29356L27.7068 3.41465C27.3163 3.02426 26.6832 3.02424 26.2927 3.41465L24.7068 4.99961L23.9998 4.29258L25.5857 2.70762Z" fill="white"/>
</svg>
