<svg width="16" height="16" viewBox="0 0 16 16" fill="none" xmlns="http://www.w3.org/2000/svg">
<path d="M9.85352 2.65318C10.5236 2.47463 11.3118 2.70557 11.7217 3.36803L11.8037 3.51744L13.5537 7.10631C12.753 6.77563 11.9049 6.57913 11.043 6.52037L10.1377 4.66393C9.44893 4.88487 8.72835 4.99974 8.00098 4.99986C7.27334 4.99996 6.55234 4.88579 5.86328 4.6649L2.78125 10.9891C3.71776 11.3654 4.69092 11.6385 5.68359 11.8055L7.87695 13.9979C5.71288 13.9813 3.57653 13.5275 1.59668 12.6629C0.733418 12.2859 0.415303 11.2792 0.803711 10.4823L4.19824 3.51842L4.28027 3.369C4.7193 2.65949 5.5919 2.44451 6.28906 2.6981C6.83619 2.89728 7.41606 2.99994 8.00098 2.99986C8.58576 2.99972 9.16496 2.8974 9.71191 2.6981L9.85352 2.65318Z" fill="white"/>
<path fill-rule="evenodd" clip-rule="evenodd" d="M10.5002 8C11.3538 8.00001 12.1989 8.16847 12.9875 8.49512C13.6217 8.7578 14.2093 9.11864 14.729 9.56377C14.9388 9.7434 14.9376 10.0616 14.7424 10.2569L10.8538 14.1464C10.6585 14.3417 10.3419 14.3417 10.1466 14.1464L6.25708 10.2569C6.06181 10.0616 6.06063 9.74338 6.27039 9.56378C6.79037 9.11857 7.37854 8.75788 8.01289 8.49512C8.80149 8.16848 9.64663 8 10.5002 8Z" fill="#00B2B2"/>
</svg>
