<svg width="48" height="48" viewBox="0 0 48 48" fill="none" xmlns="http://www.w3.org/2000/svg">
<path d="M30.6777 7.93092C31.8876 7.45417 33.3596 7.91027 33.9727 9.16725L41.0088 23.593C40.8667 23.5299 40.7239 23.468 40.5801 23.4085C39.8424 23.1029 39.087 22.847 38.3193 22.6399L32.1758 10.0432C32.0626 9.81151 31.7422 9.66094 31.4111 9.79128C29.0566 10.7199 26.5434 11.2 24.0029 11.2005C21.4625 11.2008 18.9486 10.7211 16.5938 9.79323C16.2625 9.663 15.9431 9.8143 15.8301 10.0462L4.52637 33.2376C4.40176 33.4933 4.51638 33.7725 4.73828 33.8723C10.7919 36.592 17.3593 38.0012 24.0068 38.0003C24.8996 38.0001 25.7909 37.9729 26.6797 37.9221L28.5459 39.7883C27.0401 39.9287 25.5255 40 24.0068 40.0003C17.0764 40.0012 10.2301 38.5319 3.91895 35.6965C2.62966 35.1173 2.12738 33.5951 2.72852 32.3616L14.0322 9.17018C14.645 7.91287 16.1171 7.45619 17.3271 7.93288C19.4488 8.76889 21.714 9.20078 24.0029 9.20045C26.2917 9.20004 28.5564 8.76755 30.6777 7.93092Z" fill="white"/>
<path d="M33.5 35C34.6595 35 35.7349 35.359 36.6217 35.9717C37.0761 36.2857 37.0721 36.9279 36.6816 37.3184L34.2071 39.7929C33.8166 40.1834 33.1834 40.1834 32.7929 39.7929L30.3184 37.3184C29.9279 36.9279 29.9239 36.2857 30.3783 35.9717C31.2651 35.359 32.3405 35 33.5 35ZM33.5 30C36.0399 30 38.3693 30.9017 40.1853 32.4026C40.611 32.7544 40.6082 33.3918 40.2177 33.7823L39.5108 34.4892C39.1203 34.8797 38.4906 34.8735 38.0518 34.5381C36.7896 33.5731 35.2116 33 33.5 33C31.7884 33 30.2104 33.5731 28.9482 34.5381C28.5094 34.8735 27.8797 34.8797 27.4892 34.4892L26.7823 33.7823C26.3918 33.3918 26.389 32.7544 26.8147 32.4026C28.6307 30.9017 30.9601 30 33.5 30ZM33.5 25C35.5354 25 37.5511 25.4008 39.4316 26.1797C41.0037 26.8309 42.4557 27.7359 43.7306 28.8562C44.1454 29.2208 44.1434 29.8566 43.7529 30.2471L43.046 30.954C42.6554 31.3446 42.0247 31.3411 41.6044 30.9829C39.4221 29.1228 36.5922 28 33.5 28C30.4078 28 27.5779 29.1228 25.3956 30.9829C24.9753 31.3411 24.3446 31.3446 23.954 30.954L23.2472 30.2472C22.8566 29.8566 22.8546 29.2208 23.2695 28.8562C24.5443 27.7359 25.9962 26.8309 27.5684 26.1797C29.4489 25.4008 31.4646 25 33.5 25Z" fill="#00B2B2"/>
</svg>
