<svg width="16" height="16" viewBox="0 0 16 16" fill="none" xmlns="http://www.w3.org/2000/svg">
<path fill-rule="evenodd" clip-rule="evenodd" d="M7.36955 9.22484C7.76232 8.90464 8.34138 8.92714 8.70744 9.2932L12.2074 12.7932C12.5975 13.1837 12.5977 13.8169 12.2074 14.2073C11.817 14.5977 11.1839 14.5974 10.7934 14.2073L8.00041 11.4143L5.20744 14.2073C4.81704 14.5977 4.18393 14.5974 3.79338 14.2073C3.40286 13.8167 3.40286 13.1837 3.79338 12.7932L7.29338 9.2932L7.36955 9.22484ZM10.7934 1.7932C11.1839 1.40268 11.8169 1.40268 12.2074 1.7932C12.5977 2.18374 12.5979 2.81683 12.2074 3.20726L8.70744 6.70726C8.31702 7.09768 7.68393 7.09748 7.29338 6.70726L3.79338 3.20726C3.40286 2.81674 3.40286 2.18372 3.79338 1.7932C4.1839 1.40267 4.81692 1.40267 5.20744 1.7932L8.00041 4.58617L10.7934 1.7932Z" fill="white"/>
</svg>
