<svg width="48" height="48" viewBox="0 0 48 48" fill="none" xmlns="http://www.w3.org/2000/svg">
<path d="M26.999 2C28.6553 2.00038 29.999 3.34307 29.999 5V7.67188C29.9989 8.46746 29.6824 9.2306 29.1201 9.79297L29.1182 9.79492L29.0039 9.91016C29.0142 10.2167 29.0688 10.5193 29.1729 10.8057C30.38 14.1255 31 17.6311 31 21.1641V28.0615C30.5018 28.021 30.0014 28 29.5 28C29.3329 28 29.1659 28.0023 28.999 28.0068V25H14.999V41.1455C14.999 42.2092 15.3827 43.2143 16.0469 44H22.7578L24.7578 46H15.7119C15.4269 45.9998 15.1421 45.9015 14.9141 45.7109L14.8203 45.624L14.6104 45.3984C13.5917 44.2452 12.999 42.7415 12.999 41.1455V21.1641C12.999 17.6314 13.617 14.1256 14.8242 10.8057C14.9286 10.5185 14.9846 10.2162 14.9951 9.91113L14.877 9.79297C14.3139 9.22975 13.9991 8.4661 13.999 7.67188V5C13.999 3.34331 15.3424 2.00026 16.999 2H26.999ZM16.999 4C16.447 4.00026 15.999 4.44787 15.999 5V7.67188C15.9991 7.93696 16.1038 8.19047 16.2891 8.37695L16.5049 8.5918L16.5068 8.59375C16.8211 8.90817 16.9988 9.33556 16.999 9.78125V9.81152L16.9941 10.0254C16.9723 10.5248 16.8742 11.0187 16.7031 11.4893C15.5756 14.5901 14.999 17.8646 14.999 21.1641V23H28.999V21.1641C28.999 17.8647 28.4216 14.5904 27.2939 11.4893C27.098 10.9503 26.999 10.382 26.999 9.81152V9.78125C26.9992 9.33933 27.1736 8.9107 27.4902 8.59375L27.4922 8.5918L27.708 8.37695C27.8943 8.18958 27.9989 7.93586 27.999 7.67188V5C27.999 4.44818 27.5514 4.00025 26.999 4H16.999Z" fill="white"/>
<path fill-rule="evenodd" clip-rule="evenodd" d="M29.4998 41C30.6593 41 31.7347 41.359 32.6215 41.9717C33.0759 42.2857 33.0719 42.9279 32.6814 43.3184L30.2069 45.7929C29.8164 46.1834 29.1832 46.1834 28.7927 45.7929L26.3183 43.3184C25.9277 42.9279 25.9237 42.2857 26.3781 41.9717C27.2649 41.359 28.3404 41 29.4998 41ZM29.4998 36C32.0397 36 34.3692 36.9017 36.1851 38.4026C36.6108 38.7544 36.608 39.3918 36.2175 39.7823L35.5106 40.4892C35.1201 40.8797 34.4904 40.8735 34.0517 40.5381C32.7894 39.5731 31.2114 39 29.4998 39C27.7882 39 26.2103 39.5731 24.948 40.5381C24.5092 40.8735 23.8795 40.8797 23.489 40.4892L22.7821 39.7823C22.3916 39.3918 22.3888 38.7544 22.8145 38.4026C24.6305 36.9017 26.9599 36 29.4998 36ZM29.4998 31C31.5353 31 33.551 31.4008 35.4315 32.1797C37.0036 32.8309 38.4555 33.7359 39.7304 34.8562C40.1452 35.2208 40.1432 35.8566 39.7527 36.2471L39.0458 36.954C38.6553 37.3446 38.0245 37.3411 37.6042 36.9829C35.422 35.1228 32.592 34 29.4998 34C26.4076 34 23.5777 35.1228 21.3954 36.9829C20.9751 37.3411 20.3444 37.3446 19.9539 36.954L19.247 36.2472C18.8564 35.8566 18.8544 35.2208 19.2693 34.8562C20.5442 33.7359 21.9961 32.8309 23.5682 32.1797C25.4487 31.4008 27.4644 31 29.4998 31Z" fill="#00B2B2"/>
</svg>
