<svg width="32" height="32" viewBox="0 0 32 32" fill="none" xmlns="http://www.w3.org/2000/svg">
<path d="M19.7637 4C20.8998 4 21.939 4.64181 22.4473 5.6582L23.1182 7H28C29.6569 7 31 8.34315 31 10V24C31 25.6569 29.6569 27 28 27H4C2.34315 27 1 25.6569 1 24V10C1 8.34315 2.34315 7 4 7H8.88184L9.55273 5.6582C10.061 4.64181 11.1002 4 12.2363 4H19.7637ZM12.2363 6C11.8574 6 11.5111 6.21414 11.3418 6.55273L10.6709 7.89453C10.3321 8.57207 9.63936 9 8.88184 9H4C3.44772 9 3 9.44772 3 10V24C3 24.5523 3.44772 25 4 25H28C28.5523 25 29 24.5523 29 24V10C29 9.44772 28.5523 9 28 9H23.1182C22.3606 9 21.6679 8.57207 21.3291 7.89453L20.6582 6.55273C20.4889 6.21414 20.1426 6 19.7637 6H12.2363ZM16 10C19.3137 10 22 12.6863 22 16C22 19.3137 19.3137 22 16 22C12.6863 22 10 19.3137 10 16C10 12.6863 12.6863 10 16 10ZM16 12C13.7909 12 12 13.7909 12 16C12 18.2091 13.7909 20 16 20C18.2091 20 20 18.2091 20 16C20 13.7909 18.2091 12 16 12Z" fill="white"/>
</svg>
