<svg width="32" height="32" viewBox="0 0 32 32" fill="none" xmlns="http://www.w3.org/2000/svg">
<path d="M24 14C26.2091 14 28 15.7909 28 18V20C29.1046 20 30 20.8954 30 22V28C30 29.1046 29.1046 30 28 30H20C18.8954 30 18 29.1046 18 28V22C18 20.8954 18.8954 20 20 20V18C20 15.7909 21.7909 14 24 14ZM24 16C22.8954 16 22 16.8954 22 18V20H26V18C26 16.8954 25.1046 16 24 16Z" fill="#00B2B2"/>
<path d="M16 16C16.6815 16 17.3495 16.0579 18 16.167V17.1719C17.9999 17.7022 17.7891 18.2109 17.4141 18.5859L17.1719 18.8281C16.4217 19.5783 16 20.5964 16 21.6572V30H5.57129C4.70352 29.9999 4.00008 29.2965 4 28.4287V28C4.00007 21.3726 9.37262 16 16 16ZM16 2C19.3137 2 22 4.68629 22 8C22 11.3137 19.3137 14 16 14C12.6863 14 10 11.3137 10 8C10 4.68629 12.6863 2 16 2Z" fill="white"/>
</svg>
