<svg width="16" height="16" viewBox="0 0 24 24" fill="none" xmlns="http://www.w3.org/2000/svg">
<path fill-rule="evenodd" clip-rule="evenodd" d="M14.9462 3.08046C15.884 2.73872 17.0515 3.076 17.5458 4.08925L22.9813 15.2348C23.4602 16.2171 23.0656 17.4476 22.0136 17.9076C18.8603 19.286 15.4526 19.9998 12.0038 20.0004C8.55475 20.0009 5.14591 19.2872 1.99209 17.9096C0.940269 17.4497 0.545711 16.22 1.02431 15.2377L6.45693 4.0912C6.95102 3.07771 8.11854 2.7388 9.05654 3.08046C9.99803 3.42341 10.9943 3.6001 12.0009 3.59999C13.0076 3.59985 14.0047 3.42372 14.9462 3.08046ZM16.6464 4.52772C16.4042 4.0315 15.8068 3.83081 15.288 4.01991L14.8915 4.15468C13.9592 4.44918 12.9842 4.59985 12.0009 4.59999C11.0178 4.60009 10.0434 4.44978 9.11123 4.15565L8.71377 4.02089C8.19496 3.83201 7.59736 4.03245 7.35537 4.5287L1.92275 15.6752C1.68085 16.1715 1.88668 16.7723 2.39248 16.9935C5.23084 18.2334 8.28401 18.9129 11.3827 18.9926L12.0028 19.0004C15.107 18.9999 18.1769 18.3976 21.0429 17.2318L21.6132 16.9906C22.0873 16.7832 22.2978 16.2427 22.1229 15.767L22.0829 15.6723L16.6464 4.52772Z" fill="white"/>
<path d="M13.9354 7.44931C14.312 7.39074 14.6961 7.54611 14.9188 7.85849L15.0037 8.00107L17.8973 13.9356C18.1671 14.4891 17.8774 15.1704 17.2615 15.3302C15.5501 15.7731 13.783 15.9998 12.0037 16.0001C10.224 16.0003 8.45687 15.7738 6.74493 15.3311C6.12864 15.1718 5.83752 14.4904 6.10724 13.9366L8.99982 8.00302C9.198 7.59654 9.63705 7.38264 10.0672 7.44931C10.7057 7.54859 11.3535 7.59979 12.0027 7.5997C12.6511 7.59956 13.2975 7.54874 13.9354 7.44931ZM14.0897 8.43661C13.4017 8.54388 12.7038 8.59956 12.0027 8.5997C11.3013 8.5998 10.6026 8.54469 9.91388 8.43759C9.90864 8.43681 9.90409 8.4382 9.90118 8.43954L9.89923 8.44052L7.01056 14.3653C8.63658 14.7844 10.3142 15.0003 12.0037 15.0001C13.6924 14.9998 15.3689 14.7835 16.994 14.3643L14.1043 8.43954L14.1033 8.43857C14.1005 8.43712 14.0952 8.43585 14.0897 8.43661Z" fill="white"/>
</svg>
