<svg width="32" height="32" viewBox="0 0 32 32" fill="none" xmlns="http://www.w3.org/2000/svg">
<path d="M19.9827 5.25391C20.9328 4.88504 22.1054 5.23622 22.5979 6.24609L29.6116 20.627C30.0916 21.6114 29.6935 22.8346 28.6536 23.2998C24.6776 25.0775 20.3672 25.9994 16.0042 26C11.6413 26.0006 7.33109 25.0802 3.35474 23.3037C2.31447 22.8389 1.91607 21.6156 2.39575 20.6309L9.40552 6.24805C9.89786 5.23805 11.0706 4.88615 12.0208 5.25488C13.2877 5.7465 14.6379 6.00019 16.0022 6C17.3663 5.99973 18.716 5.74585 19.9827 5.25391ZM21.6995 6.68457C21.4575 6.18838 20.8596 5.98601 20.345 6.18555L19.8225 6.375C18.5946 6.7876 17.3044 6.99976 16.0022 7L15.4446 6.9873C14.3321 6.93574 13.2336 6.72939 12.1809 6.37598L11.6594 6.1875C11.1447 5.98777 10.5471 6.18947 10.3049 6.68555L3.29517 21.0684C3.0532 21.5648 3.25869 22.1653 3.76294 22.3906C7.37049 24.0023 11.2619 24.8856 15.2131 24.9893L16.0042 25C20.2264 24.9994 24.3977 24.1071 28.2454 22.3867C28.7178 22.1753 28.9282 21.6348 28.7532 21.1592L28.7131 21.0654L21.6995 6.68457Z" fill="white"/>
<path d="M18.4623 10.8071C18.8392 10.7483 19.2211 10.9058 19.4427 11.2163L19.5277 11.3589L23.1439 18.772C23.4154 19.3285 23.1206 20.01 22.5052 20.1694C20.3887 20.7169 18.2041 20.9992 16.0033 20.9995C13.8023 20.9998 11.6174 20.7184 9.50037 20.1714C8.88507 20.0121 8.58967 19.3314 8.86072 18.7749L12.475 11.3599C12.6721 10.9562 13.1096 10.7411 13.5404 10.8081C14.3524 10.9347 15.1754 10.9996 16.0013 10.9995C16.8271 10.9994 17.6502 10.9339 18.4623 10.8071ZM18.6166 11.7954C17.7544 11.93 16.8797 11.9994 16.0013 11.9995C15.123 11.9996 14.2484 11.9308 13.3861 11.7964C13.3818 11.7958 13.3777 11.7962 13.3754 11.7974L13.3744 11.7983L9.76208 19.2056C11.7947 19.7297 13.8916 19.9998 16.0033 19.9995C18.1143 19.9992 20.2097 19.7281 22.2416 19.2036L18.6283 11.7974V11.7964H18.6273C18.6249 11.7954 18.6208 11.7948 18.6166 11.7954Z" fill="white"/>
</svg>
