<svg width="48" height="48" viewBox="0 0 48 48" fill="none" xmlns="http://www.w3.org/2000/svg">
<path d="M30.6778 7.93076C31.8876 7.45407 33.3597 7.91013 33.9727 9.16708L45.2833 32.3556C45.8845 33.5887 45.3825 35.1108 44.0938 35.6905C37.7834 38.5278 30.9373 39.9991 24.0069 40.0001C17.0765 40.0011 10.2302 38.5318 3.91901 35.6964C2.62969 35.1171 2.12738 33.5949 2.72858 32.3614L14.0323 9.17001C14.6451 7.91275 16.1172 7.45603 17.3272 7.93271C19.4489 8.76873 21.7141 9.20061 24.003 9.20029C26.2918 9.19987 28.5565 8.76738 30.6778 7.93076ZM33.0743 9.60556C32.7112 8.86109 31.8146 8.55772 31.044 8.86142L30.6231 9.02158C28.5078 9.79896 26.2667 10.1999 24.003 10.2003L23.5499 10.1944C21.4404 10.145 19.3563 9.74848 17.3819 9.02353L16.961 8.86337C16.1903 8.55966 15.2937 8.86289 14.9307 9.60751L3.62701 32.7999L3.56744 32.9405C3.30474 33.6544 3.62057 34.4659 4.32916 34.7843C10.3181 37.4749 16.799 38.91 23.3702 38.9962L24.0069 39.0001C30.5837 38.9991 37.0829 37.6466 43.1026 35.0352L43.6837 34.7784C44.3915 34.4599 44.7066 33.649 44.4444 32.9356L44.3839 32.794L33.0743 9.60556Z" fill="white"/>
<path d="M27.6812 16.9396C28.3273 16.8479 28.9768 17.1714 29.27 17.7726L34.6265 28.756C35.0359 29.5962 34.5847 30.6203 33.6558 30.8459C30.5067 31.6091 27.2675 31.9997 24.0063 32.0002C20.7448 32.0006 17.5047 31.6113 14.355 30.8488C13.4257 30.6236 12.9749 29.5994 13.3843 28.759L18.7378 17.7736C19.0311 17.1726 19.6796 16.848 20.3257 16.9396C21.541 17.1121 22.7706 17.2005 24.0044 17.2004C25.2376 17.2002 26.4665 17.1123 27.6812 16.9396ZM27.8218 17.9289C26.561 18.1081 25.2852 18.2002 24.0044 18.2004C22.723 18.2005 21.4464 18.1089 20.1851 17.9299C19.9521 17.8969 19.7323 18.0153 19.6362 18.2121L14.2827 29.1965C14.1435 29.4822 14.3022 29.8073 14.5903 29.8771C17.6634 30.621 20.8244 31.0006 24.0063 31.0002C27.1878 30.9997 30.3481 30.6188 33.4204 29.8742C33.7081 29.804 33.8662 29.479 33.7271 29.1935L28.3706 18.2111C28.2746 18.0144 28.0547 17.8959 27.8218 17.9289Z" fill="white"/>
</svg>
