<svg width="16" height="16" viewBox="0 0 16 16" fill="none" xmlns="http://www.w3.org/2000/svg">
<path fill-rule="evenodd" clip-rule="evenodd" d="M6.09135 2.43337C6.90933 0.914279 9.08852 0.914605 9.90678 2.43337L14.9537 11.8054C15.7309 13.2489 14.6858 14.9997 13.0464 14.9998H2.95268C1.31346 14.9995 0.26825 13.2488 1.04545 11.8054L6.09135 2.43337ZM8.14604 3.38161C8.08297 3.26515 7.91595 3.26495 7.85307 3.38161L2.8062 12.7537C2.74647 12.8646 2.82682 12.9995 2.95268 12.9998H13.0464C13.1725 12.9997 13.2527 12.8647 13.1929 12.7537L8.14604 3.38161Z" fill="white"/>
<path fill-rule="evenodd" clip-rule="evenodd" d="M8.99982 11C8.99982 11.5523 8.55209 12 7.99982 12C7.44766 11.9999 6.99983 11.5522 6.99982 11V10H8.99982V11ZM7.99982 6C8.55211 6 8.99981 6.44771 8.99982 7V9H6.99982V7C6.99983 6.44778 7.44761 6.0001 7.99982 6Z" fill="white"/>
</svg>
