<svg width="24" height="24" viewBox="0 0 24 24" fill="none" xmlns="http://www.w3.org/2000/svg">
<path fill-rule="evenodd" clip-rule="evenodd" d="M9.5378 3.40175C10.6053 1.46081 13.3941 1.46081 14.4616 3.40175L22.4011 17.8363C23.4308 19.7088 22.076 22.0001 19.9392 22.0004H4.06026C1.92361 22 0.56893 19.7087 1.59834 17.8363L9.5378 3.40175ZM12.7097 4.36562C12.402 3.80621 11.5974 3.80622 11.2897 4.36562L3.35127 18.8002C3.05496 19.3396 3.44481 20 4.06026 20.0004H19.9392C20.5548 20.0001 20.9447 19.3398 20.6481 18.8002L12.7097 4.36562Z" fill="white"/>
<path d="M12 16C12.8284 16 13.5 16.6716 13.5 17.5C13.4999 18.3284 12.8284 19 12 19C11.1717 18.9999 10.5001 18.3283 10.5 17.5C10.5 16.6716 11.1716 16.0001 12 16ZM12 7C12.8128 7 13.457 7.68581 13.4062 8.49707L13.0625 14.002C13.0274 14.5629 12.5621 15 12 15C11.4379 15 10.9726 14.5629 10.9375 14.002L10.5938 8.49707C10.543 7.68581 11.1872 7 12 7Z" fill="white"/>
</svg>
