<svg width="32" height="32" viewBox="0 0 32 32" fill="none" xmlns="http://www.w3.org/2000/svg">
<path fill-rule="evenodd" clip-rule="evenodd" d="M13.0653 4.34051C14.3241 2.00401 17.6758 2.00402 18.9345 4.34051L29.0282 23.0856C30.224 25.3063 28.6158 27.9995 26.0937 27.9997H5.90617C3.38407 27.9995 1.77584 25.3063 2.9716 23.0856L13.0653 4.34051ZM17.1737 5.28875C16.6702 4.3545 15.3296 4.3545 14.8261 5.28875L4.73234 24.0339C4.25407 24.9221 4.89742 25.9995 5.90617 25.9997H26.0937C27.1024 25.9995 27.7458 24.9221 27.2675 24.0339L17.1737 5.28875Z" fill="white"/>
<path d="M16 20.999C17.1044 20.999 17.9997 21.8947 18 22.999C18 24.1036 17.1046 24.999 16 24.999C14.8955 24.999 14 24.1036 14 22.999C14.0003 21.8947 14.8956 20.9991 16 20.999ZM16 9C17.0879 9.00001 17.9545 9.91057 17.9004 10.9971L17.5752 17.502C17.5332 18.3412 16.8403 19 16 19C15.1597 19 14.4668 18.3412 14.4248 17.502L14.0996 10.9971C14.0455 9.91062 14.9122 9.00007 16 9Z" fill="white"/>
</svg>
