<svg width="48" height="48" viewBox="0 0 48 48" fill="none" xmlns="http://www.w3.org/2000/svg">
<path fill-rule="evenodd" clip-rule="evenodd" d="M19.9523 7.28445C21.7075 4.0937 26.2929 4.0937 28.0481 7.28445L43.926 36.1546C45.6188 39.2332 43.3916 43.0002 39.8781 43.0003H8.12227C4.60868 43.0003 2.38141 39.2333 4.07442 36.1546L19.9523 7.28445ZM26.2951 8.24832C25.2997 6.43937 22.7006 6.43937 21.7053 8.24832L5.82637 37.1184C4.86669 38.8642 6.12998 41.0003 8.12227 41.0003H39.8781C41.8703 41.0002 43.1336 38.8641 42.174 37.1184L26.2951 8.24832Z" fill="white"/>
<path d="M24 32C25.6569 32 27 33.3431 27 35C27 36.6569 25.6569 38 24 38C22.3431 38 21 36.6569 21 35C21 33.3431 22.3431 32 24 32ZM24 14C25.6257 14 26.9139 15.3716 26.8125 16.9941L26.125 28.0039C26.0548 29.1258 25.1242 30 24 30C22.8759 30 21.9452 29.1258 21.875 28.0039L21.1875 16.9941C21.0861 15.3716 22.3743 14 24 14Z" fill="white"/>
</svg>
