<svg width="24" height="24" viewBox="0 0 32 32" fill="none" xmlns="http://www.w3.org/2000/svg">
<g transform="translate(1.4985 4.3135)">
<g id="Group 801">
<path id="Vector 3" d="M2.75454 0.5C2.75454 1.6739 2.95658 5.14512 5.00957 7.41421" stroke="white" stroke-linecap="round"/>
<path id="Vector 6" d="M26.2484 0.5C26.2484 1.6739 26.0464 5.14512 23.9934 7.41421" stroke="white" stroke-linecap="round"/>
<path id="Vector 5" d="M19.8155 11.3305C15.3527 14.7008 13.3538 9.21553 9.17007 11.6562" stroke="white" stroke-linecap="round"/>
<path id="Vector 4" d="M0.5 0.5C0.5 1.6739 0.7972 7.03611 4.10149 9.5713" stroke="white" stroke-linecap="round"/>
<path id="Vector 7" d="M28.5029 0.5C28.5029 1.6739 28.2057 7.03611 24.9015 9.5713" stroke="white" stroke-linecap="round"/>
<path id="Ellipse 3" d="M14.3931 3.04104C8.63653 3.04104 4.37456 6.08121 4.37456 10.2615C4.08433 15.6426 10.3582 17.2924 11.755 18.8232C12.074 19.1728 12.0832 19.3779 12.1943 19.937C12.4258 21.1024 12.4963 22.6729 12.4963 22.6729" stroke="white" stroke-width="1.4" stroke-linecap="round"/>
<path id="Ellipse 5" d="M14.6099 3.04104C20.3664 3.04104 24.6284 6.08121 24.6284 10.2615C24.9186 15.6426 18.6448 17.2924 17.2479 18.8232C16.9289 19.1728 16.9198 19.3779 16.8087 19.937C16.5771 21.1024 16.5066 22.6729 16.5066 22.6729" stroke="white" stroke-width="1.4" stroke-linecap="round"/>
<path id="Ellipse 4" d="M14.5093 5.62336C8.75281 5.62336 6.86065 8.05572 6.86065 10.6022C6.86048 14.677 13.7671 15.447 14.5093 18.3342" stroke="white" stroke-linecap="round"/>
<path id="Ellipse 6" d="M14.4936 5.62336C20.2501 5.62336 22.1423 8.05572 22.1423 10.6022C22.1425 14.677 15.2895 15.4021 14.5473 18.2893" stroke="white" stroke-linecap="round"/>
</g>
</g>
</svg>
