<svg width="32" height="32" viewBox="0 0 32 32" fill="none" xmlns="http://www.w3.org/2000/svg">
<path d="M18 6C20.7614 6 23 8.23858 23 11V11.1953L27.9404 8.1084C29.2725 7.2761 31 8.23391 31 9.80469V22.1953C31 23.7661 29.2725 24.7239 27.9404 23.8916L23 20.8037V21C23 23.7614 20.7614 26 18 26H6C3.23858 26 1 23.7614 1 21V11C1 8.23858 3.23858 6 6 6H18ZM6 8C4.34315 8 3 9.34315 3 11V21C3 22.6569 4.34315 24 6 24H18C19.6569 24 21 22.6569 21 21V11C21 9.34315 19.6569 8 18 8H6ZM23.4697 13.2607C23.1776 13.4435 23 13.7638 23 14.1084V17.8916C23 18.2362 23.1776 18.5565 23.4697 18.7393L29 22.1953V9.80469L23.4697 13.2607Z" fill="white"/>
</svg>
