<svg width="16" height="16" viewBox="0 0 16 16" fill="none" xmlns="http://www.w3.org/2000/svg">
<path d="M3.04932 5.53476C5.78295 2.80139 10.2161 2.80133 12.9497 5.53476L14.7065 7.29257C15.097 7.68301 15.0968 8.31609 14.7065 8.70663L12.9497 10.4644C10.216 13.1981 5.78299 13.1981 3.04932 10.4644L1.29248 8.70663C1.10504 8.51911 0.999512 8.26475 0.999512 7.9996C0.99962 7.73453 1.10504 7.48001 1.29248 7.29257L3.04932 5.53476ZM7.99951 5.00058C6.34266 5.00058 4.99951 6.34373 4.99951 8.00058C4.99969 9.65728 6.34277 11.0006 7.99951 11.0006C9.65625 11.0006 10.9993 9.65728 10.9995 8.00058C10.9995 6.34373 9.65637 5.00058 7.99951 5.00058Z" fill="white"/>
</svg>
