<svg width="32" height="32" viewBox="0 0 32 32" fill="none" xmlns="http://www.w3.org/2000/svg">
<path d="M16 1C19.866 1 23 4.13401 23 8V10H24C25.6569 10 27 11.3431 27 13V15.5137C26.3631 15.2885 25.6936 15.1333 25 15.0566V13C25 12.4477 24.5523 12 24 12H8C7.44772 12 7 12.4477 7 13V27C7 27.5523 7.44772 28 8 28H15.9375C16.2994 28.7281 16.7561 29.4003 17.293 30H8C6.34315 30 5 28.6569 5 27V13C5 11.3431 6.34315 10 8 10H9V8C9 4.13401 12.134 1 16 1ZM16 16C16.8887 16 17.6409 16.58 17.9014 17.3818C16.6214 18.562 15.6858 20.1088 15.2588 21.8555C14.5217 21.5607 14 20.8423 14 20V18C14 16.8954 14.8954 16 16 16ZM16 3C13.2386 3 11 5.23858 11 8V10H21V8C21 5.23858 18.7614 3 16 3Z" fill="white"/>
<path d="M24 18C27.3137 18 30 20.6863 30 24C30 27.3137 27.3137 30 24 30C20.6863 30 18 27.3137 18 24C18 20.6863 20.6863 18 24 18ZM27.0996 21.7002C26.6578 21.369 26.0315 21.4586 25.7002 21.9004L23.3916 24.9775L22.207 23.793C21.8165 23.4024 21.1835 23.4024 20.793 23.793C20.4024 24.1835 20.4024 24.8165 20.793 25.207L22.793 27.207C22.998 27.412 23.2821 27.5176 23.5713 27.4971C23.8603 27.4764 24.126 27.3314 24.2998 27.0996L27.2998 23.0996C27.631 22.6578 27.5414 22.0315 27.0996 21.7002Z" fill="#00B2B2"/>
</svg>
