<svg width="16" height="16" viewBox="0 0 16 16" fill="none" xmlns="http://www.w3.org/2000/svg">
<path fill-rule="evenodd" clip-rule="evenodd" d="M8.49989 14.0002C8.49976 14.2763 8.27595 14.5002 7.99989 14.5002C7.72388 14.5002 7.50002 14.2762 7.49989 14.0002V13.0002H8.49989V14.0002ZM8.75087 1.50024C10.8212 1.50024 12.4999 3.17893 12.4999 5.24927V5.3645C12.4997 6.85743 11.5735 8.19368 10.1757 8.71802C9.2105 9.08004 8.55828 9.97932 8.50477 11.0002H7.50477C7.55902 9.56246 8.46876 8.29096 9.82411 7.78247C10.8318 7.40458 11.4997 6.4407 11.4999 5.3645V5.24927C11.4999 3.73122 10.2689 2.50024 8.75087 2.50024H8.12294C6.35398 2.50036 5.0562 4.16298 5.48524 5.87915C5.55194 6.14691 5.38874 6.41866 5.12098 6.4856C4.85328 6.55229 4.58156 6.38899 4.51454 6.12134C3.92788 3.7741 5.70349 1.50036 8.12294 1.50024H8.75087Z" fill="white"/>
</svg>
