<svg width="16" height="16" viewBox="0 0 16 16" fill="none" xmlns="http://www.w3.org/2000/svg">
<path d="M9.85303 2.65361C10.5232 2.47494 11.3113 2.70593 11.7212 3.36845L11.8032 3.51787L13.5532 7.10674C12.5849 6.70687 11.5472 6.50029 10.4995 6.50029C9.4491 6.50035 8.40844 6.70769 7.43799 7.10966C6.46766 7.5117 5.58497 8.10038 4.84229 8.84306L3.78174 9.90361L4.84229 10.9651L7.87646 13.9983C5.71253 13.9817 3.5759 13.5279 1.59619 12.6634C0.733226 12.2864 0.415141 11.2795 0.803223 10.4827L4.19775 3.51884L4.27979 3.36943C4.71873 2.65985 5.5914 2.44504 6.28857 2.69853C6.83562 2.89769 7.41565 3.00033 8.00049 3.00029C8.58519 3.00018 9.16454 2.89775 9.71143 2.69853L9.85303 2.65361Z" fill="white"/>
<path fill-rule="evenodd" clip-rule="evenodd" d="M10.5002 8C11.3537 8.00005 12.199 8.16851 12.9875 8.49512C13.6216 8.75782 14.2093 9.11865 14.7291 9.56377C14.9388 9.7434 14.9376 10.0616 14.7424 10.2569L10.8537 14.1464C10.6585 14.3417 10.3419 14.3417 10.1466 14.1464L6.25708 10.2569C6.06181 10.0616 6.06064 9.74338 6.27038 9.56374C6.79009 9.11863 7.37782 8.75783 8.01191 8.49512C8.80053 8.16846 9.6466 8 10.5002 8Z" fill="#00B2B2"/>
</svg>
