<svg width="48" height="48" viewBox="0 0 48 48" fill="none" xmlns="http://www.w3.org/2000/svg">
<path d="M30.6772 7.9305C31.8871 7.45359 33.359 7.90983 33.9722 9.16682L41.0083 23.5926C40.8662 23.5295 40.7234 23.4676 40.5796 23.408C38.3352 22.4784 35.9288 21.9998 33.4995 21.9998C31.0702 21.9999 28.6638 22.4784 26.4194 23.408C24.6606 24.1366 23.0275 25.1314 21.5767 26.3543L21.2886 26.6024C19.4755 28.1957 19.6029 30.8451 21.1255 32.368L28.5454 39.7879C27.0396 39.9282 25.525 39.9996 24.0063 39.9998C17.0758 40.0008 10.2297 38.5317 3.91846 35.6961C2.62919 35.1168 2.12684 33.5947 2.72803 32.3612L14.0317 9.16975C14.6445 7.91253 16.1167 7.45582 17.3267 7.93245C19.4485 8.76859 21.7134 9.20034 24.0024 9.20003C26.2914 9.19967 28.5558 8.76718 30.6772 7.9305Z" fill="white"/>
<path fill-rule="evenodd" clip-rule="evenodd" d="M33.4998 35C34.6593 35 35.7347 35.359 36.6215 35.9717C37.0759 36.2857 37.0719 36.9279 36.6814 37.3184L34.2069 39.7929C33.8164 40.1834 33.1832 40.1834 32.7927 39.7929L30.3183 37.3184C29.9277 36.9279 29.9237 36.2857 30.3781 35.9717C31.2649 35.359 32.3404 35 33.4998 35ZM33.4998 30C36.0397 30 38.3692 30.9017 40.1851 32.4026C40.6108 32.7544 40.608 33.3918 40.2175 33.7823L39.5106 34.4892C39.1201 34.8797 38.4904 34.8735 38.0517 34.5381C36.7894 33.5731 35.2114 33 33.4998 33C31.7882 33 30.2103 33.5731 28.948 34.5381C28.5092 34.8735 27.8795 34.8797 27.489 34.4892L26.7821 33.7823C26.3916 33.3918 26.3888 32.7544 26.8145 32.4026C28.6305 30.9017 30.9599 30 33.4998 30ZM33.4998 25C35.5353 25 37.551 25.4008 39.4315 26.1797C41.0036 26.8309 42.4555 27.7359 43.7304 28.8562C44.1452 29.2208 44.1432 29.8566 43.7527 30.2471L43.0458 30.954C42.6553 31.3446 42.0245 31.3411 41.6042 30.9829C39.422 29.1228 36.592 28 33.4998 28C30.4076 28 27.5777 29.1228 25.3954 30.9829C24.9751 31.3411 24.3444 31.3446 23.9539 30.954L23.247 30.2472C22.8564 29.8566 22.8544 29.2208 23.2693 28.8562C24.5442 27.7359 25.9961 26.8309 27.5682 26.1797C29.4487 25.4008 31.4644 25 33.4998 25Z" fill="#00B2B2"/>
</svg>
