<svg width="16" height="16" viewBox="0 0 16 16" fill="none" xmlns="http://www.w3.org/2000/svg">
<path d="M8.49963 0.500244C9.05192 0.500244 9.49963 0.947959 9.49963 1.50024V3.00024H6.49963V1.50024C6.49963 0.948081 6.94752 0.500442 7.49963 0.500244H8.49963Z" fill="white"/>
<path d="M9.5 4C9.77614 4 10 4.22386 10 4.5V7.62793L6.97852 13H6.5C6.22386 13 6 12.7761 6 12.5V4.5C6 4.22386 6.22386 4 6.5 4H9.5Z" fill="white" fill-opacity="0.25"/>
<path d="M6.97852 13H6.5C6.22386 13 6 12.7761 6 12.5V9.5C6 9.22386 6.22386 9 6.5 9H9.22852L6.97852 13Z" fill="#FF9500"/>
<path fill-rule="evenodd" clip-rule="evenodd" d="M10.6289 8.55021C11.0113 7.87067 11.9898 7.87059 12.3721 8.55021L15.1622 13.5102C15.5371 14.1768 15.0549 15.0004 14.2901 15.0004H8.71C7.94528 15.0003 7.46397 14.1767 7.83891 13.5102L10.6289 8.55021ZM11.5 13.0004C11.2239 13.0004 11.0001 13.2243 11 13.5004C11.0003 13.7763 11.2241 14.0004 11.5 14.0004C11.776 14.0004 11.9998 13.7763 12 13.5004C12 13.2243 11.7762 13.0004 11.5 13.0004ZM11.5 9.5004C11.2239 9.5004 11 9.72426 11 10.0004V11.9994C11 12.2756 11.2239 12.4994 11.5 12.4994C11.7762 12.4994 12 12.2756 12 11.9994V10.0004C12 9.72426 11.7762 9.50041 11.5 9.5004Z" fill="#FF9500"/>
<path d="M10 2C11.1046 2 12 2.89543 12 4V6.51074H11V4C11 3.48232 10.6067 3.05621 10.1025 3.00488L10 3H6C5.44772 3 5 3.44772 5 4V13L5.00488 13.1025C5.05621 13.6067 5.48232 14 6 14H6.41602L6.12891 14.5107L5.85742 14.9922C4.81949 14.919 4 14.0566 4 13V4C4 2.89543 4.89543 2 6 2H10Z" fill="white"/>
</svg>
