<svg width="24" height="24" viewBox="0 0 24 24" fill="none" xmlns="http://www.w3.org/2000/svg">
<path d="M12.5 2C13.3284 2 14 2.67157 14 3.5V5H10V3.5C10 2.67157 10.6716 2 11.5 2H12.5Z" fill="white"/>
<path d="M14.5 6C14.7761 6 15 6.22386 15 6.5V11.5342L10.3828 20H9.5C9.22386 20 9 19.7761 9 19.5V6.5C9 6.22386 9.22386 6 9.5 6H14.5Z" fill="white" fill-opacity="0.25"/>
<path d="M10.3828 20H9.5C9.22386 20 9 19.7761 9 19.5V13.5C9 13.2239 9.22386 13 9.5 13H14.2002L10.3828 20Z" fill="#FF9500"/>
<path d="M14.5 4C15.8807 4 17 5.11929 17 6.5V10.2812H16V6.5C16 5.67157 15.3284 5 14.5 5H9.5C8.67157 5 8 5.67157 8 6.5V19.5C8 20.2767 8.59028 20.9154 9.34668 20.9922L9.5 21H9.83691L9.68359 21.2812L9.29688 21.9893C8.01126 21.8858 7 20.8123 7 19.5V6.5C7 5.11929 8.11929 4 9.5 4H14.5Z" fill="white"/>
<path fill-rule="evenodd" clip-rule="evenodd" d="M16.1222 12.6099C16.5012 11.915 17.499 11.915 17.8781 12.6099L22.1935 20.521C22.557 21.1874 22.0746 22.0005 21.3156 22.0005H12.6847C11.9256 22.0005 11.4433 21.1874 11.8068 20.521L16.1222 12.6099ZM17.0001 19.0005C16.4479 19.0005 16.0002 19.4483 16.0001 20.0005C16.0003 20.5526 16.448 21.0005 17.0001 21.0005C17.5522 21.0004 17.9999 20.5525 18.0001 20.0005C18.0001 19.4482 17.5524 19.0005 17.0001 19.0005ZM17.0001 14.0005C16.4668 14.0006 16.0517 14.4636 16.1105 14.9937L16.4445 18.0034C16.4761 18.2861 16.7156 18.4995 17.0001 18.4995C17.2845 18.4994 17.5232 18.286 17.5548 18.0034L17.8898 14.9937C17.9485 14.4636 17.5334 14.0006 17.0001 14.0005Z" fill="#FF9500"/>
</svg>
