<svg width="32" height="32" viewBox="0 0 32 32" fill="none" xmlns="http://www.w3.org/2000/svg">
<path fill-rule="evenodd" clip-rule="evenodd" d="M17.0002 1.99951C18.1047 1.99964 19.0002 2.896 19.0002 4.00049V6.00049H13.0002V4.00049C13.0002 2.89592 13.8957 1.99951 15.0002 1.99951H17.0002Z" fill="white"/>
<path d="M19.5 7.5C20.0523 7.5 20.5 7.94772 20.5 8.5V14.3643L13.6738 26.5H12.5C11.9477 26.5 11.5 26.0523 11.5 25.5V8.5C11.5 7.94772 11.9477 7.5 12.5 7.5H19.5Z" fill="white" fill-opacity="0.25"/>
<path d="M13.6738 26.5H12.5C11.9477 26.5 11.5 26.0523 11.5 25.5V17.5C11.5 16.9477 11.9477 16.5 12.5 16.5H19.2988L13.6738 26.5Z" fill="#FF9500"/>
<path d="M19.4998 5C21.4328 5 22.9998 6.567 22.9998 8.5V13.0195H21.9998V8.5C21.9998 7.11929 20.8805 6 19.4998 6H12.4998C11.1192 6.00009 9.99982 7.11935 9.99982 8.5V25.5L10.0125 25.7559C10.1321 26.9322 11.0676 27.8677 12.244 27.9873L12.4998 28H12.8299L12.2723 28.9912C10.4455 28.8738 8.99982 27.3565 8.99982 25.5V8.5C8.99982 6.56706 10.5669 5.00009 12.4998 5H19.4998Z" fill="white"/>
<path fill-rule="evenodd" clip-rule="evenodd" d="M21.257 17.0993C22.0216 15.74 23.9787 15.74 24.7433 17.0993L30.3234 27.0192C31.0733 28.3524 30.1099 29.9997 28.5803 29.9997H17.4201C15.8904 29.9997 14.927 28.3524 15.6769 27.0192L21.257 17.0993ZM22.9992 25.9977C22.4471 25.9979 21.9992 26.4456 21.9992 26.9977C21.9992 27.5499 22.4471 27.9976 22.9992 27.9977C23.5514 27.9977 23.9992 27.55 23.9992 26.9977C23.9992 26.4455 23.5514 25.9977 22.9992 25.9977ZM22.9992 18.9977C22.447 18.9979 21.9992 19.4456 21.9992 19.9977V23.9977C21.9994 24.5498 22.4472 24.9976 22.9992 24.9977C23.5513 24.9977 23.999 24.5498 23.9992 23.9977V19.9977C23.9992 19.4455 23.5515 18.9977 22.9992 18.9977Z" fill="#FF9500"/>
</svg>
