<svg width="48" height="48" viewBox="0 0 48 48" fill="none" xmlns="http://www.w3.org/2000/svg">
<path d="M28 12C29.1046 12 30 12.8954 30 14V20.4893L19.4062 39.9102C18.5916 39.6572 18 38.8978 18 38V14C18 12.8954 18.8954 12 20 12H28Z" fill="white" fill-opacity="0.25"/>
<path d="M19.3584 40H19C18.4477 40 18 39.5523 18 39V27C18 26.4477 18.4477 26 19 26H26.9941L19.3584 40Z" fill="#FF9500"/>
<path fill-rule="evenodd" clip-rule="evenodd" d="M25.5 6C26.8805 6.00023 28 7.11943 28 8.5V9H29C31.2089 9.00024 33 10.791 33 13V20.042H32V13C32 11.395 30.7392 10.0844 29.1543 10.0039L29 10H19C17.3433 10.0002 16 11.3433 16 13V39C16 40.4193 16.9865 41.6061 18.3105 41.918L18.2441 42.042L17.8184 42.8223C16.1863 42.3181 15 40.7976 15 39V13C15 10.791 16.7911 9.00024 19 9H20V8.5C20 7.11943 21.1195 6.00023 22.5 6H25.5Z" fill="white"/>
<path fill-rule="evenodd" clip-rule="evenodd" d="M30.2444 24.2185C31.0026 22.8295 32.997 22.8295 33.7552 24.2185L42.387 40.0428C43.1134 41.3753 42.1489 42.9995 40.6312 42.9998H23.3694C21.8514 42.9998 20.8868 41.3755 21.6136 40.0428L30.2444 24.2185ZM32.0003 37.4998C31.1719 37.4998 30.5003 38.1714 30.5003 38.9998C30.5003 39.8282 31.1719 40.4998 32.0003 40.4998C32.8285 40.4996 33.5003 39.8281 33.5003 38.9998C33.5003 38.1715 32.8285 37.5 32.0003 37.4998ZM32.0003 27.9998C31.1875 27.9998 30.5424 28.6856 30.5931 29.4969L30.9378 35.0017C30.9729 35.5627 31.4382 35.9998 32.0003 35.9998C32.5622 35.9996 33.0268 35.5626 33.0618 35.0017L33.4066 29.4969C33.4572 28.6857 32.8129 28 32.0003 27.9998Z" fill="#FF9500"/>
</svg>
