<svg width="48" height="48" viewBox="0 0 48 48" fill="none" xmlns="http://www.w3.org/2000/svg">
<path d="M27 2C28.6562 2.00038 30 3.34307 30 5V7.67188C29.9999 8.46746 29.6834 9.23059 29.1211 9.79297L29.1191 9.79492L29.0049 9.91016C29.0152 10.2167 29.0697 10.5193 29.1738 10.8057C30.381 14.1255 31.001 17.6311 31.001 21.1641V22.4092L30.3711 23.5547L30 24.2285V24H14V41.1455C14 42.5818 14.5692 43.9301 15.5381 44.9268C15.5723 44.962 15.6166 44.9855 15.6641 44.9951L15.7129 45H18.5762L18.0264 46H15.7129C15.4279 45.9998 15.1431 45.9015 14.915 45.7109L14.8213 45.624L14.6113 45.3984C13.5927 44.2452 13 42.7415 13 41.1455V21.1641C13 17.6314 13.618 14.1256 14.8252 10.8057C14.9296 10.5185 14.9856 10.2162 14.9961 9.91113L14.8779 9.79297C14.3852 9.30008 14.0826 8.65375 14.0146 7.96777L14 7.67188V5C14 3.34331 15.3434 2.00026 17 2H27ZM17 3C15.8957 3.00026 15 3.89559 15 5V7.67188C15.0001 8.20203 15.2102 8.71097 15.585 9.08594L15.8008 9.30078C15.9281 9.42817 15.9999 9.60113 16 9.78125V9.81152C16 10.267 15.9203 10.7194 15.7646 11.1475C14.5973 14.3579 14 17.748 14 21.1641V23H30V21.1641C30 17.7479 29.4018 14.358 28.2344 11.1475C28.0788 10.7194 28 10.2669 28 9.81152V9.78125C28.0001 9.60125 28.0711 9.42815 28.1982 9.30078L28.4141 9.08594C28.789 8.71095 28.9999 8.20216 29 7.67188V5C29 3.89559 28.1044 3.00025 27 3H17Z" fill="white"/>
<path fill-rule="evenodd" clip-rule="evenodd" d="M30.5376 27.401C31.6051 25.4603 34.3938 25.4606 35.4615 27.401L43.4009 41.8356C44.4308 43.7081 43.076 45.9994 40.939 45.9997H25.0601C22.9234 45.9991 21.5684 43.708 22.5982 41.8356L30.5376 27.401ZM34.5855 27.8825C33.8977 26.6331 32.1012 26.6329 31.4136 27.8825L23.4751 42.318L23.4165 42.4313C22.866 43.6142 23.727 44.9991 25.0601 44.9997H40.939L41.066 44.9957C42.3262 44.911 43.1155 43.5763 42.5826 42.4313L42.5249 42.318L34.5855 27.8825ZM33.9995 40.9997C33.9995 41.5519 33.5518 41.9997 32.9995 41.9997C32.4475 41.9994 31.9995 41.5518 31.9995 40.9997V39.9997H33.9995V40.9997ZM32.9995 31.9997C33.5517 31.9997 33.9994 32.4475 33.9995 32.9997V37.9997H31.9995V32.9997C31.9997 32.4477 32.4476 31.9999 32.9995 31.9997Z" fill="#FF9500"/>
</svg>
