<svg width="16" height="16" viewBox="0 0 16 16" fill="none" xmlns="http://www.w3.org/2000/svg">
<g clip-path="url(#clip0_283_3500)">
<path fill-rule="evenodd" clip-rule="evenodd" d="M8.49988 12.5002C8.49975 12.7763 8.27594 13.0002 7.99988 13.0002C7.72394 13.0001 7.50001 12.7762 7.49988 12.5002V12.0002H8.49988V12.5002ZM8.83679 3.50024C10.3076 3.50026 11.4999 4.69256 11.4999 6.16333C11.4998 7.17179 10.9301 8.09401 10.0282 8.54517L9.72351 8.69751C8.97387 9.07248 8.49999 9.83881 8.49988 10.677V11.0002H7.49988V10.677C7.49999 9.46004 8.18782 8.34734 9.27624 7.80298L9.58093 7.65063C10.1441 7.36887 10.4998 6.79302 10.4999 6.16333C10.4999 5.24484 9.75528 4.50026 8.83679 4.50024H8.16199C6.94778 4.50053 6.09049 5.69007 6.47449 6.84204C6.56172 7.10398 6.42001 7.38754 6.15808 7.47485C5.89624 7.56194 5.61261 7.42023 5.52527 7.15845C4.92543 5.35894 6.26523 3.50053 8.16199 3.50024H8.83679Z" fill="white"/>
<path d="M13 0C14.6569 0 16 1.34315 16 3V13C16 14.6569 14.6569 16 13 16H3C1.34315 16 0 14.6569 0 13V3C0 1.34315 1.34315 0 3 0H13ZM3 1C1.89543 1 1 1.89543 1 3V13L1.01074 13.2041C1.1062 14.1457 1.85435 14.8938 2.7959 14.9893L3 15H13L13.2041 14.9893C14.2128 14.887 15 14.0357 15 13V3C15 1.89543 14.1046 1 13 1H3Z" fill="white"/>
</g>
<defs>
<clipPath id="clip0_283_3500">
<rect width="16" height="16" fill="white"/>
</clipPath>
</defs>
</svg>
