<svg width="18" height="18" viewBox="0 0 18 18" fill="none" xmlns="http://www.w3.org/2000/svg">
<path d="M17.5 0.5V17.5H0.5V0.5H17.5Z" stroke="white" stroke-opacity="0.1"/>
<path d="M9 2.49973C9.5522 2.49973 9.99986 2.94756 10 3.49973V14.4997C10 15.052 9.55228 15.4997 9 15.4997C8.44783 15.4996 8 15.0519 8 14.4997V3.49973C8.00014 2.94764 8.44792 2.49986 9 2.49973Z" fill="white"/>
<path d="M6.5 9.99973H3.5C2.94783 9.99959 2.5 9.55193 2.5 8.99973C2.50016 8.44766 2.94793 7.99986 3.5 7.99973H6.5V9.99973ZM14.5 7.99973C15.0522 7.99973 15.4998 8.44757 15.5 8.99973C15.5 9.55201 15.0523 9.99973 14.5 9.99973H11.5V7.99973H14.5Z" fill="white"/>
</svg>
