<svg width="16" height="16" viewBox="0 0 16 16" fill="none" xmlns="http://www.w3.org/2000/svg">
<path d="M8 1.49973C8.5522 1.49973 8.99986 1.94756 9 2.49973V13.4997C9 14.052 8.55228 14.4997 8 14.4997C7.44783 14.4996 7 14.0519 7 13.4997V2.49973C7.00014 1.94764 7.44792 1.49986 8 1.49973Z" fill="white"/>
<path d="M5.5 8.99973H2.5C1.94783 8.99959 1.5 8.55193 1.5 7.99973C1.50016 7.44766 1.94793 6.99986 2.5 6.99973H5.5V8.99973ZM13.5 6.99973C14.0522 6.99973 14.4998 7.44757 14.5 7.99973C14.5 8.55201 14.0523 8.99973 13.5 8.99973H10.5V6.99973H13.5Z" fill="white"/>
</svg>
