<svg width="16" height="16" viewBox="0 0 16 16" fill="none" xmlns="http://www.w3.org/2000/svg">
<path fill-rule="evenodd" clip-rule="evenodd" d="M11.1464 10.1466C11.3417 9.95137 11.6582 9.95137 11.8535 10.1466C12.0487 10.3418 12.0487 10.6584 11.8535 10.8536L8.35346 14.3536C8.15819 14.5489 7.84168 14.5489 7.64642 14.3536L4.14642 10.8536C3.9512 10.6584 3.95118 10.3418 4.14642 10.1466C4.34168 9.95137 4.6582 9.95138 4.85346 10.1466L7.99994 13.2931L11.1464 10.1466ZM7.72455 1.58214C7.91859 1.45401 8.18259 1.47581 8.35346 1.64659L11.8535 5.14659C12.0487 5.34185 12.0487 5.65836 11.8535 5.85362C11.6582 6.04887 11.3417 6.04887 11.1464 5.85362L7.99994 2.70714L4.85346 5.85362C4.65819 6.04887 4.34168 6.04888 4.14642 5.85362C3.95125 5.65836 3.9512 5.34182 4.14642 5.14659L7.64642 1.64659L7.72455 1.58214Z" fill="white"/>
</svg>
