<svg width="16" height="16" viewBox="0 0 24 24" fill="none" xmlns="http://www.w3.org/2000/svg">
<path d="M9 17.7109C8.99998 18.0289 8.93935 18.3444 8.82129 18.6396L7.48535 21.9785C6.94888 23.3193 5.05112 23.3193 4.51465 21.9785L3.17871 18.6396C3.06065 18.3444 3.00002 18.0289 3 17.7109V7H5V17.7109C5.00002 17.7745 5.01253 17.8385 5.03613 17.8975L6 20.3076L6.96387 17.8975C6.98747 17.8385 6.99998 17.7745 7 17.7109V7H9V17.7109ZM6.5 1C7.88071 1 9 2.11929 9 3.5V5H7V3.5C7 3.22386 6.77614 3 6.5 3H5.5C5.22386 3 5 3.22386 5 3.5V5H3V3.5C3 2.11929 4.11929 1 5.5 1H6.5Z" fill="white"/>
<path d="M18 0.999817C19.1046 0.999817 20 1.89525 20 2.99982V20.9998C20 22.1044 19.1046 22.9998 18 22.9998H14C12.8954 22.9998 12 22.1044 12 20.9998V2.99982C12 1.89525 12.8954 0.999817 14 0.999817H18ZM14 20.9998H18V17.4998H16.5C15.9477 17.4998 15.5 17.0521 15.5 16.4998C15.5001 15.9476 15.9478 15.4998 16.5 15.4998H18V12.4998H16.5C15.9477 12.4998 15.5 12.0521 15.5 11.4998C15.5001 10.9476 15.9478 10.4998 16.5 10.4998H18V7.49982H16.5C15.9477 7.49982 15.5 7.0521 15.5 6.49982C15.5001 5.94762 15.9478 5.49982 16.5 5.49982H18V2.99982H14V20.9998Z" fill="white"/>
</svg>
