<svg width="32" height="32" viewBox="0 0 32 32" fill="none" xmlns="http://www.w3.org/2000/svg">
<path d="M19.7637 4C20.8998 4 21.939 4.64181 22.4473 5.6582L23.1182 7H28C29.6569 7 31 8.34315 31 10V24C31 25.6569 29.6569 27 28 27H4C2.34315 27 1 25.6569 1 24V10C1 8.34315 2.34315 7 4 7H8.88184L9.55273 5.6582C10.061 4.64181 11.1002 4 12.2363 4H19.7637ZM12.2363 5C11.4788 5 10.7861 5.42796 10.4473 6.10547L9.77637 7.44727L9.70508 7.56836C9.52014 7.83629 9.21327 8 8.88184 8H4C2.89543 8 2 8.89543 2 10V24C2 25.1046 2.89543 26 4 26H28C29.1046 26 30 25.1046 30 24V10C30 8.89543 29.1046 8 28 8H23.1182L22.9775 7.99023C22.7013 7.9511 22.4534 7.79795 22.2949 7.56836L22.2236 7.44727L21.5527 6.10547C21.2139 5.42796 20.5212 5 19.7637 5H12.2363ZM16 10C19.3137 10 22 12.6863 22 16C22 19.3137 19.3137 22 16 22C12.6863 22 10 19.3137 10 16C10 12.6863 12.6863 10 16 10ZM16 11C13.2386 11 11 13.2386 11 16C11 18.7614 13.2386 21 16 21C18.7614 21 21 18.7614 21 16C21 13.2386 18.7614 11 16 11Z" fill="white"/>
</svg>
