<svg width="32" height="32" viewBox="0 0 32 32" fill="none" xmlns="http://www.w3.org/2000/svg">
<path d="M16 18C10.4772 18 6.00007 22.4772 6 28H16V30H5.57129C4.70352 29.9999 4.00008 29.2965 4 28.4287V28C4.00007 21.3726 9.37262 16 16 16V18ZM16 2C19.3137 2 22 4.68629 22 8C22 11.3137 19.3137 14 16 14C12.6863 14 10 11.3137 10 8C10 4.68629 12.6863 2 16 2ZM16 4C13.7909 4 12 5.79086 12 8C12 10.2091 13.7909 12 16 12C18.2091 12 20 10.2091 20 8C20 5.79086 18.2091 4 16 4Z" fill="white"/>
<path d="M24 14C26.2091 14 28 15.7909 28 18V20C29.1046 20 30 20.8954 30 22V28C30 29.1046 29.1046 30 28 30H20C18.8954 30 18 29.1046 18 28V22C18 20.8954 18.8954 20 20 20V18C20 15.7909 21.7909 14 24 14ZM20 28H28V22H20V28ZM24 16C22.8954 16 22 16.8954 22 18V20H26V18C26 16.8954 25.1046 16 24 16Z" fill="#00B2B2"/>
</svg>
