<svg width="16" height="16" viewBox="0 0 24 24" fill="none" xmlns="http://www.w3.org/2000/svg">
<path d="M8 18.7568C7.99997 19.0253 7.9569 19.2922 7.87207 19.5469L6.99609 22.1738C6.67692 23.1309 5.32308 23.1309 5.00391 22.1738L4.12793 19.5469C4.0431 19.2922 4.00003 19.0253 4 18.7568V6H5V18.7568L5.00488 18.877C5.01457 18.9973 5.03888 19.1167 5.07715 19.2314L5.95215 21.8574C5.96358 21.8914 6.00309 21.9007 6.02832 21.8838L6.04785 21.8574L6.05957 21.8213L6.92285 19.2314C6.96112 19.1167 6.98543 18.9973 6.99512 18.877L7 18.7568V6H8V18.7568ZM6 1C7.10457 1 8 1.89543 8 3V5H7V3C7 2.44772 6.55228 2 6 2C5.44772 2 5 2.44772 5 3V5H4V3C4 1.89543 4.89543 1 6 1Z" fill="white"/>
<path d="M18 0.999825C19.1046 0.999825 20 1.89526 20 2.99982V20.9998C20 22.1044 19.1046 22.9998 18 22.9998H14C12.8954 22.9998 12 22.1044 12 20.9998V2.99982C12 1.89525 12.8954 0.999825 14 0.999825H18ZM14 1.99982C13.4477 1.99982 13 2.44754 13 2.99982V20.9998C13 21.5521 13.4477 21.9998 14 21.9998H18C18.5523 21.9998 19 21.5521 19 20.9998V17.9998H16.5C16.2239 17.9998 16 17.776 16 17.4998C16.0001 17.2238 16.2239 16.9998 16.5 16.9998H19V14.9998H17.5C17.2239 14.9998 17 14.776 17 14.4998C17.0001 14.2238 17.2239 13.9998 17.5 13.9998H19V11.9998H16.5C16.2239 11.9998 16 11.776 16 11.4998C16.0001 11.2238 16.2239 10.9998 16.5 10.9998H19V8.99982H17.5C17.2239 8.99982 17 8.77597 17 8.49982C17.0001 8.22376 17.2239 7.99982 17.5 7.99982H19V5.99982H16.5C16.2239 5.99982 16 5.77597 16 5.49982C16.0001 5.22376 16.2239 4.99982 16.5 4.99982H19V2.99982C19 2.44754 18.5523 1.99982 18 1.99982H14Z" fill="white"/>
</svg>
