<svg width="16" height="16" viewBox="0 0 16 16" fill="none" xmlns="http://www.w3.org/2000/svg">
<path fill-rule="evenodd" clip-rule="evenodd" d="M2.00049 3.99957C2.55241 3.99984 3.00026 4.44765 3.00049 4.99957V9.99957C3.00049 11.6564 4.34363 12.9996 6.00049 12.9996H11.0005C11.5524 12.9998 12.0003 13.4476 12.0005 13.9996C12.0005 14.5517 11.5525 14.9993 11.0005 14.9996H6.00049C3.23906 14.9996 0.999512 12.761 0.999512 9.99957V4.99957C0.999742 4.44748 1.44835 3.99957 2.00049 3.99957Z" fill="white"/>
<path d="M13 1.00003C14.1046 1.00003 15 1.89546 15 3.00003V10C15 11.1046 14.1046 12 13 12H6C4.89544 12 4.00002 11.1046 4 10V3.00003C4 1.89546 4.89543 1.00003 6 1.00003H13ZM6.00098 10H13.001V4.00003L6.00098 10ZM7.50098 3.00003C6.67263 3.00003 6.00111 3.67172 6.00098 4.50003C6.00113 5.32833 6.67264 6.00003 7.50098 6.00003C8.32886 5.9995 9.00083 5.32801 9.00098 4.50003C9.00084 3.67204 8.32887 3.00056 7.50098 3.00003Z" fill="white"/>
</svg>
