<svg width="48" height="48" viewBox="0 0 24 24" fill="none" xmlns="http://www.w3.org/2000/svg">
<path d="M2 5C2.55206 5.00026 3 5.44788 3 6V16C3 18.7613 5.23879 20.9997 8 21H18C18.5521 21.0003 19 21.4479 19 22C19 22.5521 18.5521 22.9997 18 23H8C4.13422 22.9997 0.999023 19.8658 0.999023 16V6C0.999023 5.44787 1.44793 5.00025 2 5ZM19 2C20.6566 2.00026 22 3.34331 22 5V16C22 17.6567 20.6566 18.9997 19 19H8C6.34336 18.9997 5 17.6567 5 16V5C5 3.3433 6.34336 2.00025 8 2H19ZM15.001 8C14.6939 8 14.406 8.1412 14.2178 8.37793L14.1436 8.48535L11.9082 12.21L11.3008 11.4004C11.1121 11.1488 10.8154 11.0003 10.501 11C10.2257 11 9.9639 11.1137 9.77637 11.3105L9.70117 11.4004L8.20117 13.4004C7.97402 13.7034 7.93711 14.1085 8.10645 14.4473C8.27591 14.7858 8.62235 15 9.00098 15H18.001C18.3608 14.9997 18.6937 14.8062 18.8711 14.4932C19.0483 14.1799 19.0435 13.7941 18.8584 13.4854L15.8584 8.48535C15.6778 8.18448 15.3519 8.0003 15.001 8ZM10.501 6C9.67263 6 9.00111 6.67169 9.00098 7.5C9.00111 8.32831 9.67263 9 10.501 9C11.3289 8.99947 12.0008 8.32799 12.001 7.5C12.0008 6.67201 11.3289 6.00053 10.501 6Z" fill="white"/>
</svg>
