<svg width="16" height="16" viewBox="0 0 16 16" fill="none" xmlns="http://www.w3.org/2000/svg">
<path d="M9.79321 1.79327C10.1837 1.40283 10.8178 1.40277 11.2083 1.79327L14.2083 4.79327C14.598 5.18374 14.5982 5.817 14.2083 6.20734C13.8179 6.59773 13.1838 6.59747 12.7932 6.20734L12.0002 5.41437L5.41431 12.0003L6.20728 12.7933C6.59738 13.1838 6.59757 13.8169 6.20728 14.2073C5.81688 14.5977 5.18377 14.5975 4.79321 14.2073L1.79321 11.2073C1.4027 10.8168 1.40269 10.1838 1.79321 9.79327C2.18374 9.40285 2.81678 9.4028 3.20728 9.79327L4.00024 10.5862L10.5862 4.00031L9.79321 3.20734C9.40301 2.81687 9.40301 2.18374 9.79321 1.79327Z" fill="white"/>
</svg>
