<svg width="24" height="24" viewBox="0 0 32 32" fill="none" xmlns="http://www.w3.org/2000/svg">
<g transform="translate(0.0000 0.0000)">
<g id="Vascular">
<path id="Vector" fill-rule="evenodd" clip-rule="evenodd" d="M7.52404 9.70578C7.51676 9.74048 7.51156 9.77734 7.50947 9.8142C7.46681 10.5807 7.56566 11.7408 7.85803 12.9085C8.08798 13.8247 8.397 14.4925 8.64567 15.0314C9.03481 15.8727 9.72048 16.6317 10.0846 17.0426C11.121 18.2135 12.1302 18.8456 12.7961 19.3118H12.7972C13.1364 19.5504 13.616 19.8355 14.0541 20.1814C14.4068 20.4589 14.7418 20.7679 14.8844 21.1474C15.2131 22.0223 15.2631 23.7983 15.1309 24.6027C14.9624 25.6262 14.3371 27.0856 14.3371 27.0856C14.1976 27.4141 14.3402 27.7979 14.6554 27.9443C14.9707 28.0895 15.339 27.941 15.4795 27.6125C15.4795 27.6125 16.1725 25.971 16.3608 24.8218C16.52 23.8557 16.443 21.7253 16.0476 20.6725C15.8676 20.1944 15.5201 19.7618 15.0987 19.3866C14.5701 18.9161 13.9261 18.5355 13.4922 18.232C12.8835 17.8048 11.9513 17.2334 11.0023 16.1601C10.6944 15.812 10.1003 15.1788 9.77146 14.4676C9.54984 13.9873 9.271 13.3953 9.06602 12.5789C8.91619 11.9794 8.82255 11.383 8.77781 10.8572C9.20857 10.9711 9.73401 11.0036 10.2907 10.9158C10.8858 10.8225 11.4081 10.61 11.7962 10.3465C12.1406 11.3581 12.7264 12.9833 13.1416 13.648C13.7398 14.6064 14.9863 15.567 16.3504 15.3751C16.7083 15.3241 17.2514 15.2406 17.7009 14.8048C18.1171 14.4015 18.5 13.6653 18.448 12.2125C18.3647 9.88143 18.4969 10.1839 18.4501 9.03575C18.4303 8.54027 18.4053 7.91251 18.3835 7.35848C18.8933 7.50593 19.5415 7.56448 20.2376 7.48208C20.9888 7.39318 21.6485 7.15899 22.124 6.86734C22.2988 7.56448 22.4861 8.37547 22.5631 8.72675L22.9303 10.8561C23.1312 12.5063 23.1291 12.4813 23.1624 12.8294C23.2799 14.0816 23.2737 16.919 23.2029 17.7072C23.05 19.4181 22.2957 22.3931 21.9096 23.7625C21.6766 24.5897 21.0949 26.3342 20.8681 27.1723C20.7745 27.5171 20.967 27.877 21.2989 27.9746C21.6297 28.0722 21.9752 27.8716 22.0688 27.5258C22.2957 26.692 22.8752 24.954 23.1083 24.129C23.5088 22.7054 24.2861 19.6089 24.4453 17.8286C24.5202 17.0003 24.5285 14.0187 24.4047 12.7025C24.4047 12.7014 24.4047 12.7014 24.4047 12.7014C24.3714 12.3469 24.3735 12.3729 24.1685 10.6913C24.0645 9.83697 23.8356 8.70073 23.7898 8.48063C23.7856 8.46003 23.7814 8.4416 23.7762 8.42426L23.7804 8.43401C23.6462 7.82794 23.1967 5.93384 23.0032 5.35596C22.9522 5.02636 22.7639 4.71845 22.4247 4.481C21.9117 4.12105 20.9462 3.90963 19.863 4.03757C18.7799 4.1655 17.884 4.59701 17.4616 5.06648C17.19 5.36897 17.0714 5.70073 17.0839 6.02383C17.0829 6.04334 17.0829 6.06286 17.0839 6.08346C17.0839 6.08346 17.1578 7.94287 17.2036 9.08996C17.2483 10.236 17.1162 9.93347 17.1994 12.2602C17.2317 13.1373 17.1016 13.6089 16.8509 13.8518C16.6334 14.0621 16.3556 14.061 16.1829 14.0849H16.1818C15.3214 14.2074 14.566 13.5428 14.1883 12.9389C13.6108 12.0141 12.6973 9.0802 12.6973 9.0802C12.6733 9.00214 12.6359 8.93275 12.5891 8.87312C12.5402 8.54677 12.3633 8.24861 12.0532 8.01985C11.5933 7.68049 10.7495 7.48967 9.81725 7.63495C8.88498 7.78132 8.13376 8.22259 7.78936 8.68772C7.5563 9.00322 7.47098 9.34474 7.51884 9.67326C7.52092 9.6841 7.52196 9.69494 7.52404 9.70578ZM11.3082 9.07911C11.2687 9.12682 11.2073 9.19296 11.1522 9.23416C10.8962 9.42064 10.5258 9.5605 10.1055 9.62664C9.68406 9.69277 9.28973 9.67217 8.99319 9.57243C8.92868 9.54966 8.85169 9.50521 8.79966 9.47268C8.84024 9.42498 8.90059 9.35884 8.95677 9.31764C9.21169 9.13116 9.58314 8.99021 10.0035 8.92516C10.4238 8.85902 10.8182 8.87962 11.1147 8.97937C11.1803 9.00105 11.2573 9.04659 11.3082 9.07911ZM21.7161 5.56304C21.6568 5.62376 21.5611 5.71266 21.4747 5.76579C21.1324 5.97287 20.6455 6.12683 20.0971 6.19188C19.5488 6.25693 19.041 6.22007 18.6634 6.09755C18.5676 6.06611 18.4553 6.00106 18.3845 5.95661C18.4438 5.89589 18.5395 5.80699 18.6259 5.75386C18.9682 5.54569 19.4552 5.39174 20.0035 5.32777C20.5518 5.26272 21.0596 5.29958 21.4373 5.42209C21.533 5.45354 21.6454 5.51859 21.7161 5.56304Z" fill="white"/>
</g>
</g>
</svg>
