<svg width="16" height="16" viewBox="0 0 16 16" fill="none" xmlns="http://www.w3.org/2000/svg">
<g clip-path="url(#clip0_283_3542)">
<path d="M13 0C14.6569 0 16 1.34315 16 3V13C16 14.6569 14.6569 16 13 16H3C1.34315 16 0 14.6569 0 13V3C0 1.34315 1.34315 0 3 0H13ZM7 12V13C7.00013 13.5521 7.44788 13.9999 8 14C8.55208 13.9999 8.99987 13.5521 9 13V12H7ZM8.16211 3C5.92407 3.00023 4.34411 5.19315 5.05176 7.31641C5.22656 7.83998 5.79268 8.12268 6.31641 7.94824C6.83991 7.77338 7.12271 7.20729 6.94824 6.68359C6.67252 5.85549 7.28929 5.00023 8.16211 5H8.83691C9.47906 5.00016 9.99985 5.52094 10 6.16309C9.99991 6.60327 9.75097 7.006 9.35742 7.20312L9.05273 7.35547C7.79495 7.98447 7.0002 9.27048 7 10.6768V11H9V10.6768C9.0002 10.028 9.36705 9.43475 9.94727 9.14453L10.252 8.99219C11.3231 8.45628 11.9999 7.36082 12 6.16309C11.9999 4.41637 10.5836 3.00016 8.83691 3H8.16211Z" fill="white"/>
</g>
<defs>
<clipPath id="clip0_283_3542">
<rect width="16" height="16" fill="white"/>
</clipPath>
</defs>
</svg>
