<svg width="16" height="16" viewBox="0 0 16 16" fill="none" xmlns="http://www.w3.org/2000/svg">
<path d="M7.49994 3.5C7.49994 3.22386 7.7238 3 7.99994 3C8.27608 3 8.49994 3.22386 8.49994 3.5V11.5C8.49994 11.7761 8.27608 12 7.99994 12C7.7238 12 7.49994 11.7761 7.49994 11.5V3.5Z" fill="white" fill-opacity="0.25"/>
<path d="M7.99963 0.499176C9.38006 0.49931 10.4991 1.61909 10.4996 2.99918V9.55386C11.0691 10.1353 11.44 10.9164 11.4928 11.7853L11.4996 11.9992C11.4996 13.9322 9.93255 15.4991 7.99963 15.4992C6.06686 15.4989 4.49963 13.932 4.49963 11.9992C4.49983 11.0449 4.88384 10.1826 5.49963 9.55386V2.99918C5.50013 1.6193 6.6192 0.49944 7.99963 0.499176ZM7.99963 1.49918C7.17167 1.49944 6.50002 2.17124 6.49963 2.99918V10.0021C5.8934 10.4582 5.49984 11.1822 5.49963 11.9992C5.49963 13.3797 6.61915 14.4989 7.99963 14.4992C9.38031 14.4991 10.4996 13.3799 10.4996 11.9992C10.4994 11.1822 10.1059 10.4582 9.49963 10.0021V2.99918C9.49924 2.17113 8.82775 1.49926 7.99963 1.49918Z" fill="white"/>
<path d="M7.49997 8.99992C7.49997 8.72378 7.72383 8.49992 7.99997 8.49992C8.27611 8.49992 8.49997 8.72378 8.49997 8.99992V11.4999C8.49997 11.7761 8.27611 11.9999 7.99997 11.9999C7.72383 11.9999 7.49997 11.7761 7.49997 11.4999V8.99992Z" fill="#00B2B2"/>
<path d="M6.50003 12.0001C6.50003 11.1717 7.1716 10.5001 8.00003 10.5001C8.82846 10.5001 9.50003 11.1717 9.50003 12.0001C9.50003 12.8285 8.82846 13.5001 8.00003 13.5001C7.1716 13.5001 6.50003 12.8285 6.50003 12.0001Z" fill="#00B2B2"/>
</svg>
