<svg width="16" height="16" viewBox="0 0 16 16" fill="none" xmlns="http://www.w3.org/2000/svg">
<g clip-path="url(#clip0_216_3260)">
<path d="M8 0.5C8.55228 0.5 9 0.947715 9 1.5V2.72381C9 2.85744 9.16157 2.92437 9.25607 2.82987L10.293 1.79297C10.6835 1.40244 11.3165 1.40244 11.707 1.79297C12.0976 2.18349 12.0976 2.81651 11.707 3.20703L9.04393 5.87013C9.0158 5.89826 9 5.93641 9 5.97619V6.85C9 6.93284 9.06716 7 9.15 7H10.0238C10.0636 7 10.1017 6.9842 10.1299 6.95607L12.793 4.29297C13.1835 3.90244 13.8165 3.90244 14.207 4.29297C14.5976 4.68349 14.5976 5.31651 14.207 5.70703L13.1701 6.74393C13.0756 6.83843 13.1426 7 13.2762 7H14.5C15.0523 7 15.5 7.44772 15.5 8C15.5 8.55229 15.0523 9 14.5 9H13.2762C13.1426 9 13.0756 9.16157 13.1701 9.25607L14.207 10.293C14.5976 10.6835 14.5976 11.3165 14.207 11.707C13.8165 12.0976 13.1835 12.0976 12.793 11.707L10.1299 9.04393C10.1017 9.0158 10.0636 9 10.0238 9H9.15C9.06716 9 9 9.06716 9 9.15V10.0238C9 10.0636 9.0158 10.1017 9.04393 10.1299L11.707 12.793C12.0976 13.1835 12.0976 13.8165 11.707 14.207C11.3165 14.5976 10.6835 14.5976 10.293 14.207L9.25607 13.1701C9.16157 13.0756 9 13.1426 9 13.2762V14.5C9 15.0523 8.55228 15.5 8 15.5C7.44772 15.5 7 15.0523 7 14.5V13.2762C7 13.1426 6.83843 13.0756 6.74393 13.1701L5.70703 14.207C5.31651 14.5976 4.68349 14.5976 4.29297 14.207C3.90245 13.8165 3.90245 13.1835 4.29297 12.793L6.95607 10.1299C6.9842 10.1017 7 10.0636 7 10.0238V9.15C7 9.06716 6.93284 9 6.85 9H5.97619C5.93641 9 5.89826 9.0158 5.87013 9.04393L3.20703 11.707C2.81651 12.0976 2.18349 12.0976 1.79297 11.707C1.40245 11.3165 1.40245 10.6835 1.79297 10.293L2.82987 9.25607C2.92437 9.16157 2.85744 9 2.72381 9H1.5C0.947716 9 0.500001 8.55228 0.5 8C0.5 7.44772 0.947716 7 1.5 7H2.72381C2.85744 7 2.92437 6.83843 2.82987 6.74393L1.79297 5.70703C1.40245 5.31651 1.40245 4.68349 1.79297 4.29297C2.18349 3.90244 2.81651 3.90244 3.20703 4.29297L5.87013 6.95607C5.89826 6.9842 5.93641 7 5.97619 7H6.85C6.93284 7 7 6.93284 7 6.85V5.97619C7 5.93641 6.9842 5.89826 6.95607 5.87013L4.29297 3.20703C3.90245 2.81651 3.90245 2.18349 4.29297 1.79297C4.68349 1.40244 5.31651 1.40245 5.70703 1.79297L6.74393 2.82987C6.83843 2.92437 7 2.85744 7 2.72381V1.5C7 0.947716 7.44772 0.500001 8 0.5Z" fill="#00B2B2"/>
</g>
<defs>
<clipPath id="clip0_216_3260">
<rect width="16" height="16" fill="white"/>
</clipPath>
</defs>
</svg>
