<svg width="32" height="32" viewBox="0 0 32 32" fill="none" xmlns="http://www.w3.org/2000/svg">
<path d="M16 2C16.5523 2 17 2.44772 17 3V8.10309C17 8.28128 17.2154 8.37051 17.3414 8.24452L21.293 4.29297C21.6835 3.90244 22.3165 3.90244 22.707 4.29297C23.0976 4.68349 23.0976 5.31651 22.707 5.70703L17.0586 11.3555C17.0211 11.393 17 11.4439 17 11.4969V14.8C17 14.9105 17.0895 15 17.2 15H20.5031C20.5561 15 20.607 14.9789 20.6445 14.9414L26.293 9.29297C26.6835 8.90244 27.3165 8.90244 27.707 9.29297C28.0976 9.68349 28.0976 10.3165 27.707 10.707L23.7555 14.6586C23.6295 14.7846 23.7187 15 23.8969 15H29C29.5523 15 30 15.4477 30 16C30 16.5523 29.5523 17 29 17H23.8969C23.7187 17 23.6295 17.2154 23.7555 17.3414L27.707 21.293C28.0976 21.6835 28.0976 22.3165 27.707 22.707C27.3165 23.0976 26.6835 23.0976 26.293 22.707L20.6445 17.0586C20.607 17.0211 20.5561 17 20.5031 17H17.2C17.0895 17 17 17.0895 17 17.2V20.5031C17 20.5561 17.0211 20.607 17.0586 20.6445L22.707 26.293C23.0976 26.6835 23.0976 27.3165 22.707 27.707C22.3165 28.0976 21.6835 28.0976 21.293 27.707L17.3414 23.7555C17.2154 23.6295 17 23.7187 17 23.8969V29C17 29.5523 16.5523 30 16 30C15.4477 30 15 29.5523 15 29V23.8969C15 23.7187 14.7846 23.6295 14.6586 23.7555L10.707 27.707C10.3165 28.0976 9.68349 28.0976 9.29297 27.707C8.90244 27.3165 8.90244 26.6835 9.29297 26.293L14.9414 20.6445C14.9789 20.607 15 20.5561 15 20.5031V17.2C15 17.0895 14.9105 17 14.8 17H11.4969C11.4439 17 11.393 17.0211 11.3555 17.0586L5.70703 22.707C5.31651 23.0976 4.68349 23.0976 4.29297 22.707C3.90244 22.3165 3.90244 21.6835 4.29297 21.293L8.24452 17.3414C8.37051 17.2154 8.28128 17 8.10309 17H3C2.44772 17 2 16.5523 2 16C2 15.4477 2.44772 15 3 15H8.10309C8.28128 15 8.37051 14.7846 8.24452 14.6586L4.29297 10.707C3.90244 10.3165 3.90244 9.68349 4.29297 9.29297C4.68349 8.90244 5.31651 8.90244 5.70703 9.29297L11.3555 14.9414C11.393 14.9789 11.4439 15 11.4969 15H14.8C14.9105 15 15 14.9105 15 14.8V11.4969C15 11.4439 14.9789 11.393 14.9414 11.3555L9.29297 5.70703C8.90244 5.31651 8.90244 4.68349 9.29297 4.29297C9.68349 3.90244 10.3165 3.90244 10.707 4.29297L14.6586 8.24452C14.7846 8.37051 15 8.28128 15 8.10309V3C15 2.44772 15.4477 2 16 2Z" fill="#00B2B2"/>
</svg>
