<svg width="48" height="48" viewBox="0 0 24 24" fill="none" xmlns="http://www.w3.org/2000/svg">
<path d="M12 1C12.5523 1 13 1.44772 13 2V5.10309C13 5.28128 13.2154 5.37051 13.3414 5.24452L15.793 2.79297C16.1835 2.40244 16.8165 2.40244 17.207 2.79297C17.5976 3.18349 17.5976 3.81651 17.207 4.20703L13.0586 8.35548C13.0211 8.39299 13 8.44386 13 8.49691V10.8C13 10.9105 13.0895 11 13.2 11H15.5089C15.5614 11 15.6118 10.9794 15.6492 10.9425L19.8701 6.78711C20.2637 6.39989 20.8968 6.40532 21.2842 6.79883C21.6714 7.19243 21.666 7.82553 21.2725 8.21289L18.7893 10.6575C18.6618 10.783 18.7507 11 18.9296 11H22C22.5523 11 23 11.4477 23 12C23 12.5523 22.5523 13 22 13H18.8969C18.7187 13 18.6295 13.2154 18.7555 13.3414L21.207 15.793C21.5976 16.1835 21.5976 16.8165 21.207 17.207C20.8165 17.5976 20.1835 17.5976 19.793 17.207L15.6445 13.0586C15.607 13.0211 15.5561 13 15.5031 13H13.2C13.0895 13 13 13.0895 13 13.2V15.5031C13 15.5561 13.0211 15.607 13.0586 15.6445L17.207 19.793C17.5976 20.1835 17.5976 20.8165 17.207 21.207C16.8165 21.5976 16.1835 21.5976 15.793 21.207L13.3414 18.7555C13.2154 18.6295 13 18.7187 13 18.8969V22C13 22.5523 12.5523 23 12 23C11.4477 23 11 22.5523 11 22V18.8969C11 18.7187 10.7846 18.6295 10.6586 18.7555L8.20703 21.207C7.81651 21.5976 7.18349 21.5976 6.79297 21.207C6.40244 20.8165 6.40244 20.1835 6.79297 19.793L10.9414 15.6445C10.9789 15.607 11 15.5561 11 15.5031V13.2C11 13.0895 10.9105 13 10.8 13H8.49691C8.44386 13 8.39299 13.0211 8.35548 13.0586L4.20703 17.207C3.81651 17.5976 3.18349 17.5976 2.79297 17.207C2.40244 16.8165 2.40244 16.1835 2.79297 15.793L5.24452 13.3414C5.37051 13.2154 5.28128 13 5.10309 13H2C1.44772 13 1 12.5523 1 12C1 11.4477 1.44772 11 2 11H5.10309C5.28128 11 5.37051 10.7846 5.24452 10.6586L2.79297 8.20703C2.40244 7.81651 2.40244 7.18349 2.79297 6.79297C3.18349 6.40244 3.81651 6.40244 4.20703 6.79297L8.35548 10.9414C8.39299 10.9789 8.44386 11 8.49691 11H10.8C10.9105 11 11 10.9105 11 10.8V8.49691C11 8.44386 10.9789 8.39299 10.9414 8.35548L6.79297 4.20703C6.40244 3.81651 6.40244 3.18349 6.79297 2.79297C7.18349 2.40244 7.81651 2.40244 8.20703 2.79297L10.6586 5.24452C10.7846 5.37051 11 5.28128 11 5.10309V2C11 1.44772 11.4477 1 12 1Z" fill="#00B2B2"/>
</svg>
