<svg width="16" height="16" viewBox="0 0 16 16" fill="none" xmlns="http://www.w3.org/2000/svg">
<path fill-rule="evenodd" clip-rule="evenodd" d="M11.7931 2.79315C12.1837 2.40264 12.8167 2.40263 13.2072 2.79315C13.5975 3.18368 13.5976 3.81675 13.2072 4.20721L9.41423 8.00018L13.2072 11.7931C13.5975 12.1837 13.5976 12.8168 13.2072 13.2072C12.8167 13.5977 12.1837 13.5975 11.7931 13.2072L8.00017 9.41424L4.2072 13.2072C3.81674 13.5977 3.18367 13.5975 2.79314 13.2072C2.40262 12.8167 2.40262 12.1837 2.79314 11.7931L6.58611 8.00018L2.79314 4.20721C2.40261 3.81668 2.40261 3.18367 2.79314 2.79315C3.18366 2.40264 3.81668 2.40263 4.2072 2.79315L8.00017 6.58611L11.7931 2.79315Z" fill="white"/>
</svg>
