<svg width="24" height="24" viewBox="0 0 32 32" fill="none" xmlns="http://www.w3.org/2000/svg">
<g transform="translate(0.0000 0.0000)">
<g id="Nerve">
<path id="Vector" fill-rule="evenodd" clip-rule="evenodd" d="M16.748 8.98177C16.745 8.97669 16.7429 8.97161 16.7398 8.96653C16.7215 8.93501 16.6581 8.82625 16.6173 8.7002C16.5999 8.64937 16.5815 8.5955 16.5887 8.5467C16.6316 8.23057 16.7419 8.03641 16.7725 7.87173C16.8144 7.642 16.7868 7.44073 16.5938 7.21303C16.4488 7.04124 16.1914 7.01888 16.0188 7.16322C15.8473 7.30655 15.8238 7.56068 15.9657 7.73247C15.9586 7.7589 15.9443 7.81278 15.931 7.85039C15.8789 8.00388 15.8125 8.18889 15.7788 8.43692C15.7615 8.565 15.7819 8.70935 15.8176 8.84658C15.7788 8.83743 15.741 8.82726 15.7033 8.8171C15.2324 8.68597 14.5717 8.24886 14.2469 8.02116C14.2459 7.99575 14.2449 7.97135 14.2428 7.94797C14.2173 7.59931 14.1264 7.31062 13.9936 7.11544C13.8537 6.91112 13.6515 6.70782 13.4105 6.53095C13.5657 6.35 13.7414 6.12535 13.8772 5.89155C14.0478 5.5988 14.154 5.29079 14.153 5.02141C14.1509 4.74085 13.9222 4.51417 13.6403 4.51519C13.3584 4.5162 13.1296 4.74492 13.1317 5.02548C13.1317 5.19219 13.0061 5.37719 12.8845 5.55102C12.7467 5.74924 12.57 5.94645 12.4546 6.06843C12.3075 6.0298 12.1574 6.00439 12.0073 5.99626C11.5834 5.97389 11.1045 5.9434 10.8573 5.55C10.6776 5.26538 10.2987 5.17897 10.0127 5.35788C9.72575 5.53679 9.63894 5.91392 9.81869 6.19854C10.2915 6.94772 11.1331 7.17135 11.9419 7.21506C12.3647 7.23743 12.7865 7.519 12.9795 7.8016C13.0408 7.89105 13.0275 8.04759 13.0265 8.22243C13.0245 8.66157 12.9336 9.18813 12.8457 9.57847C12.7773 9.88139 12.5567 10.224 12.2902 10.5431C12.2554 10.5066 12.2013 10.4791 12.1217 10.4679C12.0859 10.4618 11.9613 10.4415 11.8367 10.3937C11.7867 10.3744 11.7325 10.3541 11.6988 10.3185C11.4803 10.0857 11.3986 9.87733 11.2893 9.75026C11.1382 9.57237 10.9635 9.46665 10.6643 9.47072C10.4386 9.47479 10.2589 9.65979 10.2619 9.88343C10.265 10.106 10.4488 10.285 10.6714 10.2839C10.6878 10.3063 10.7205 10.352 10.7419 10.3856C10.8277 10.5228 10.9298 10.6905 11.1024 10.8735C11.225 11.0046 11.4078 11.1053 11.5886 11.1693C11.612 11.1775 11.6366 11.1856 11.66 11.1927C11.5875 11.2588 11.5181 11.3188 11.4517 11.3736C10.9114 11.8199 9.68592 12.3017 9.68592 12.3017C9.60831 12.3322 9.5409 12.378 9.48575 12.4329C9.18244 12.3556 8.86176 12.3251 8.53801 12.3698C8.37155 12.3922 8.20916 12.4522 8.05291 12.5406C7.92729 12.3058 7.72406 12.0324 7.39725 11.7945C6.8284 11.3797 7.05819 11.6359 6.48424 11.0311C6.29019 10.8268 5.96747 10.8176 5.7622 11.0097C5.55692 11.2029 5.54773 11.5251 5.74177 11.7284C6.4056 12.4288 6.13598 12.135 6.7947 12.6148C7.16747 12.8862 7.23793 13.2379 7.23793 13.2379C7.24202 13.2644 7.24815 13.2898 7.25632 13.3142C7.07657 13.5703 6.9387 13.8174 6.85394 13.9261C6.74262 14.0684 6.48628 14.3277 6.15947 14.3033C5.82143 14.2778 5.5273 14.5299 5.50177 14.8654C5.47624 15.2008 5.72952 15.4946 6.06654 15.52C6.87232 15.58 7.54636 15.026 7.82108 14.6753C7.9181 14.5513 8.08661 14.2372 8.30925 13.9444C8.38891 13.8387 8.47674 13.735 8.57376 13.6557C8.61665 13.6202 8.6575 13.5846 8.70754 13.5775C9.17631 13.5124 9.62158 13.7533 9.94839 13.9597C10.0669 14.0339 10.1802 14.2728 10.316 14.532C10.4478 14.7841 10.5754 15.0667 10.6786 15.3269C10.6663 15.3554 10.6572 15.3869 10.652 15.4194L10.7644 15.5515L10.7654 15.5546L10.651 15.4224C10.651 15.4224 10.6071 15.6634 10.5183 15.8728C10.4682 15.9947 10.4039 16.1249 10.3038 16.2031C9.8912 16.5264 9.5266 16.6331 9.3009 16.7927C9.0415 16.9757 8.88627 17.1973 8.88422 17.5947C8.88218 17.8194 9.06397 18.0024 9.28967 18.0044C9.51537 18.0054 9.6992 17.8245 9.70124 17.5998C9.70124 17.5216 9.73494 17.4809 9.78805 17.4453C9.84728 17.4067 9.91775 17.3711 9.99537 17.3315C10.2231 17.2166 10.5029 17.0814 10.8093 16.8425C10.8869 16.7815 10.9584 16.7063 11.0228 16.624C11.128 17.2125 11.2331 17.8743 11.2331 17.8743C11.2536 18.0044 11.3148 18.1193 11.4017 18.2067C11.4313 18.285 11.4783 18.3561 11.5375 18.4171C11.2617 18.9528 10.8532 19.7701 10.744 20.1096C10.6796 20.3099 10.6572 20.4928 10.6674 20.6585C10.6102 20.7826 10.1271 21.8286 9.85239 22.7455C9.71962 23.1876 9.64099 23.6064 9.65018 23.9053C9.64099 23.9307 9.63384 23.9561 9.62771 23.9836C9.62771 23.9836 9.39282 25.115 9.31826 26.0095C9.28048 26.4619 9.29375 26.8624 9.36218 27.085C9.45818 27.394 9.76558 27.6705 10.2486 27.8199C10.9819 28.0456 12.1758 28.0303 12.7947 27.9307C13.2042 27.8646 13.4575 27.5871 13.5514 27.1145C13.6096 26.8207 13.5984 26.4181 13.5882 25.9983C13.58 25.6669 13.5719 25.3213 13.6454 25.0347C13.6485 25.0235 13.6505 25.0123 13.6525 25.0011C13.6566 24.992 13.6607 24.9828 13.6648 24.9726C13.7649 24.7409 13.8384 24.3719 13.9028 23.948C13.9824 23.4184 14.0549 22.7892 14.2183 22.3023C14.2408 22.2362 14.249 22.1681 14.2439 22.103C14.4287 21.9231 14.5809 21.6608 14.6779 21.3162C14.7759 20.9645 14.9332 20.4949 15.0956 20.0181C15.2028 20.0395 15.3203 20.0578 15.4428 20.0649C15.8401 20.0913 16.2782 20.0191 16.6469 19.7528C16.9114 19.5617 17.2893 19.3299 17.8081 19.0728C17.8295 19.2161 17.8387 19.3848 17.8009 19.5119C17.7121 19.8118 17.5946 19.9958 17.5221 20.1554C17.3996 20.4278 17.3536 20.6596 17.4884 21.0082C17.5691 21.2176 17.805 21.3223 18.0154 21.242C18.2258 21.1617 18.332 20.9269 18.2513 20.7175C18.2003 20.5843 18.2564 20.5081 18.3126 20.3953C18.3953 20.2296 18.4995 20.0303 18.5843 19.7427C18.6762 19.4346 18.6118 18.9721 18.5679 18.7312C19.1746 18.4954 19.7158 18.3744 19.7158 18.3744C19.8149 18.3521 19.9037 18.3073 19.9773 18.2453L19.9803 18.2474C20.254 18.4751 20.682 18.6509 21.164 18.6946C21.2099 18.9559 21.3254 19.2019 21.4765 19.4174C21.7604 19.823 22.1597 20.1106 22.2363 20.1635C22.4069 20.2814 22.5386 20.2621 22.5386 20.2621C22.4896 20.3322 22.8072 20.2692 22.9635 20.0354C23.1197 19.8016 23.0564 19.4865 22.8215 19.331L22.8195 19.3289C22.7684 19.2934 22.5029 19.1043 22.315 18.8359C22.2608 18.7587 22.2077 18.6733 22.1812 18.5818C22.2006 18.5747 22.22 18.5686 22.2404 18.5615C22.5264 18.4588 23.1289 18.0583 23.8489 18.1752C24.1829 18.2291 24.4974 18.0024 24.5515 17.671C24.6057 17.3386 24.379 17.0245 24.045 16.9706C23.0615 16.812 22.2179 17.2735 21.8268 17.4128C21.4193 17.5582 20.9842 17.4931 20.7647 17.3111C20.7085 17.2634 20.6911 17.181 20.6697 17.0906C20.6258 16.9035 20.6186 16.6829 20.6299 16.4481C20.6452 16.1482 20.6932 15.8291 20.7585 15.52C20.8035 15.518 20.8934 15.5017 20.9945 15.4214C21.0231 15.3991 21.1221 15.3218 21.2416 15.2639C21.2906 15.2405 21.3417 15.2141 21.3917 15.2141C21.7114 15.212 21.9208 15.2944 22.0882 15.3015C22.3221 15.3106 22.5192 15.2557 22.7194 15.0341C22.8695 14.8674 22.8562 14.6102 22.6877 14.4598C22.5213 14.3114 22.2659 14.3236 22.1148 14.4872C22.0872 14.4832 22.0311 14.4771 21.9922 14.4689C21.8329 14.4395 21.6389 14.3998 21.3876 14.4008C21.2835 14.4008 21.1742 14.4263 21.067 14.4649C21.1078 14.3602 21.1477 14.2656 21.1875 14.1843C21.5153 13.5033 21.9994 12.874 21.9994 12.874C22.0351 12.8273 22.0637 12.7754 22.0842 12.7226C22.4477 12.7409 22.799 12.7277 23.0554 12.6717C23.4057 12.5965 23.7682 12.4339 24.0736 12.2031C24.3412 12.32 25.2348 12.6697 26.0661 12.5447C26.3449 12.503 26.5369 12.2438 26.494 11.9663C26.4521 11.6888 26.1917 11.4977 25.9129 11.5393C25.4758 11.6054 25.0162 11.4794 24.7313 11.3757C24.9131 10.9193 24.908 10.3846 25.0418 9.96272C25.1439 9.6415 24.9652 9.29791 24.6424 9.19728C24.3197 9.09563 23.9756 9.27352 23.8734 9.59474C23.8091 9.79804 23.7733 10.0237 23.7396 10.2565C23.707 10.4923 23.6835 10.7393 23.5793 10.9538C23.4404 11.2415 23.0983 11.4143 22.796 11.4804C22.3548 11.5749 21.4857 11.5129 21.166 11.3472C21.0905 11.3076 21.0026 11.2608 20.9097 11.2069C20.9077 11.1642 20.8985 11.1175 20.8791 11.0667C20.8658 11.0331 20.8208 10.9152 20.8004 10.7841C20.7922 10.7312 20.782 10.6753 20.7974 10.6275C20.8903 10.3226 21.0302 10.1487 21.0874 9.99118C21.166 9.77161 21.1701 9.56831 21.0169 9.31214C20.9015 9.12002 20.6503 9.057 20.4573 9.17186C20.2653 9.28571 20.2009 9.53273 20.3133 9.72485C20.302 9.75026 20.2785 9.80109 20.2602 9.83565C20.1836 9.97898 20.0886 10.1518 20.0151 10.3907C20.01 10.41 20.0048 10.4293 20.0008 10.4486C19.9568 10.3917 19.915 10.3307 19.8772 10.2677C19.6719 9.92511 19.4789 9.49003 19.3523 9.18101C19.63 8.96653 19.8792 8.72256 20.0406 8.44505C20.2581 8.06996 20.442 7.48647 20.5226 6.9833C20.5461 6.97618 20.5696 6.96703 20.5921 6.95585C20.5921 6.95585 21.5337 6.49232 22.1281 5.88545C22.4498 5.55712 22.6663 5.18101 22.6979 4.81506C22.7214 4.53653 22.5131 4.28952 22.2322 4.26614C21.9514 4.24174 21.7042 4.45013 21.6797 4.72967C21.6726 4.81913 21.6195 4.9035 21.5572 4.98888C21.4591 5.12408 21.3274 5.25115 21.1865 5.36805C20.9271 5.58558 20.638 5.76754 20.4297 5.88749C20.3623 5.75737 20.2785 5.6608 20.1948 5.60286C20.107 5.54085 19.9538 5.34263 19.8292 5.1373C19.7812 5.05801 19.7291 4.92891 19.7026 4.86182C19.8108 4.62395 19.7567 4.33425 19.5494 4.15229C19.2961 3.92967 18.909 3.95407 18.6854 4.20616C18.4719 4.44708 18.3963 4.81201 18.5281 5.2298C18.666 5.66894 19.0581 6.19143 19.3298 6.46081C19.2992 6.67224 19.1725 7.50274 18.9795 7.83311C18.6823 8.34645 17.9347 8.64531 17.4997 8.88216C17.3649 8.95636 17.1749 8.97568 16.9676 8.98177C16.8961 8.98482 16.8226 8.98381 16.748 8.98177ZM10.4794 24.995C10.4233 25.3355 10.3661 25.735 10.3365 26.0939C10.314 26.3612 10.2966 26.6011 10.3293 26.7485C10.3528 26.7638 10.4008 26.7932 10.4366 26.8075C10.5407 26.8512 10.6663 26.8837 10.8032 26.9091C11.3608 27.0148 12.0839 27.0006 12.5353 26.9416C12.5496 26.8451 12.5771 26.6377 12.5761 26.4842C12.5751 26.1742 12.5588 25.8286 12.569 25.4941C11.9889 25.4545 11.0963 25.3051 10.4948 25.0031C10.4897 25.0001 10.4846 24.9981 10.4794 24.995ZM11.3404 21.6598C11.179 22.041 10.9748 22.5574 10.8308 23.0362C10.7317 23.3686 10.6541 23.6776 10.6725 23.888C10.6735 23.9023 10.6888 23.9094 10.699 23.9216C10.7327 23.9582 10.7766 23.9907 10.8246 24.0222C10.9411 24.0964 11.083 24.1594 11.2372 24.2133C11.7611 24.3993 12.4117 24.4908 12.7467 24.4969C12.7732 24.4095 12.81 24.2794 12.8304 24.1737C12.9295 23.6471 12.9999 22.9325 13.1501 22.3256C12.6997 22.2026 11.8439 21.9394 11.3404 21.6598ZM12.4842 18.8024C12.2279 19.2944 11.8214 20.0934 11.7162 20.4197C11.6611 20.5914 11.7305 20.7114 11.8316 20.7683C12.3116 21.0377 13.1766 21.2827 13.529 21.3752C13.5443 21.3579 13.5719 21.3274 13.5872 21.303C13.6311 21.2308 13.6658 21.1424 13.6944 21.0418C13.7996 20.6667 13.9702 20.1584 14.1438 19.6481C13.9303 19.5333 13.6199 19.3615 13.2185 19.1246C13.0336 19.0158 12.7497 18.9 12.4842 18.8024ZM14.1315 9.39346C14.1039 9.55306 14.0723 9.70554 14.0416 9.8448C13.8578 10.6631 12.9131 11.7508 12.235 12.3119C11.8857 12.6006 11.2985 12.9066 10.8349 13.1261C10.9656 13.2623 11.1045 13.4484 11.2362 13.6689C11.6223 14.3195 12.0052 15.3015 12.1033 15.7538C12.2023 16.2133 12.3484 17.0967 12.4127 17.489C12.7875 17.6141 13.4769 17.859 13.8425 18.0745C14.5329 18.4822 14.9373 18.6865 15.0149 18.7261C15.066 18.7475 15.2764 18.8319 15.5235 18.8481C15.6553 18.8573 15.8054 18.8532 15.9279 18.7648C16.3038 18.4944 16.8767 18.1467 17.7152 17.7665C18.5209 17.3996 19.3635 17.2034 19.4421 17.1851C19.4258 17.0895 19.4146 16.9889 19.4074 16.8842C19.341 15.8321 19.7444 14.3602 20.0814 13.6578C20.2959 13.2125 20.5676 12.7866 20.7637 12.4989C20.7024 12.4766 20.6472 12.4532 20.6002 12.4288C20.1039 12.1716 19.2961 11.6786 18.8253 10.8928C18.6292 10.5665 18.4423 10.165 18.3014 9.83667C18.2268 9.87733 18.1553 9.91596 18.0889 9.95255C17.4701 10.29 16.2455 10.2331 15.3744 9.9922C15.0016 9.88851 14.5288 9.63438 14.1315 9.39346ZM15.5409 11.8606C14.2255 12.0191 13.2869 13.2095 13.4462 14.5188C13.6056 15.828 14.8025 16.7612 16.1169 16.6036C17.4323 16.4451 18.3708 15.2537 18.2115 13.9444C18.0522 12.6362 16.8552 11.702 15.5409 11.8606ZM15.6879 13.0712C16.3313 12.994 16.9165 13.4504 16.9952 14.0918C17.0728 14.7322 16.6132 15.3147 15.9698 15.3919C15.3264 15.4702 14.7402 15.0128 14.6626 14.3724C14.585 13.732 15.0445 13.1485 15.6879 13.0712Z" fill="white"/>
</g>
</g>
</svg>
