<svg width="16" height="16" viewBox="0 0 16 16" fill="none" xmlns="http://www.w3.org/2000/svg">
<path d="M3.04932 5.53515C5.78295 2.80152 10.216 2.8016 12.9497 5.53515L14.7065 7.29296C15.0971 7.68348 15.0971 8.3165 14.7065 8.70702L12.9497 10.4648C10.216 13.1984 5.78295 13.1985 3.04932 10.4648L1.29248 8.70702C1.10502 8.5195 0.999512 8.26515 0.999512 7.99999C0.999515 7.73483 1.10502 7.48048 1.29248 7.29296L3.04932 5.53515ZM12.2417 6.24218C9.89866 3.89976 6.10032 3.89968 3.75732 6.24218L1.99951 7.99999L3.75732 9.7578C6.02727 12.0273 9.66291 12.0976 12.0181 9.96972L12.2417 9.7578L13.9995 7.99999L12.2417 6.24218ZM8.00049 4.99999C9.65712 5.00025 11.0005 6.3433 11.0005 7.99999C11.0005 9.65668 9.65712 10.9997 8.00049 11C6.34364 11 5.00049 9.65684 5.00049 7.99999C5.00049 6.34314 6.34363 4.99999 8.00049 4.99999ZM8.00049 5.99999C6.89592 5.99999 6.00049 6.89542 6.00049 7.99999C6.00049 9.10456 6.89592 9.99999 8.00049 9.99999C9.10483 9.99973 10.0005 9.10439 10.0005 7.99999C10.0005 6.89558 9.10483 6.00025 8.00049 5.99999Z" fill="white"/>
</svg>
