<svg width="24" height="24" viewBox="0 0 24 24" fill="none" xmlns="http://www.w3.org/2000/svg">
<path fill-rule="evenodd" clip-rule="evenodd" d="M2 5C2.55206 5.00026 3 5.44788 3 6V16C3 18.7613 5.23879 20.9997 8 21H18C18.5521 21.0003 19 21.4479 19 22C19 22.5521 18.5521 22.9997 18 23H8C4.13422 22.9997 0.999023 19.8658 0.999023 16V6C0.999023 5.44787 1.44793 5.00025 2 5ZM19 2C20.6566 2.00026 22 3.34331 22 5V16C22 17.6567 20.6566 18.9997 19 19H8C6.34336 18.9997 5 17.6567 5 16V5C5 3.3433 6.34336 2.00025 8 2H19ZM11.5732 6.18066C11.2678 5.96696 10.8687 5.94112 10.5381 6.11328C10.2075 6.28551 10 6.6272 10 7V14C10 14.3728 10.2075 14.7145 10.5381 14.8867C10.8687 15.0589 11.2678 15.033 11.5732 14.8193L16.5732 11.3193C16.8406 11.1322 17 10.8263 17 10.5C17 10.1737 16.8406 9.86779 16.5732 9.68066L11.5732 6.18066Z" fill="white"/>
</svg>
