<svg width="18" height="18" viewBox="0 0 18 18" fill="none" xmlns="http://www.w3.org/2000/svg">
<path d="M17.5 0.5V17.5H0.5V0.5H17.5Z" stroke="white" stroke-opacity="0.1"/>
<path d="M3.36084 11.1749L3.0249 11.0626C2.41281 10.8583 1.99956 10.2851 1.99951 9.63977L1.99951 7.5929C1.99951 7.29475 2.1064 7.00589 2.30029 6.77942L5.16553 3.43665C5.4029 3.15974 5.75004 3.00026 6.11475 3.00012L11.8843 3.00012C12.2491 3.00012 12.596 3.15973 12.8335 3.43665L15.6987 6.77942C15.8928 7.00594 16.0005 7.29462 16.0005 7.5929V9.63977C16.0004 10.2853 15.5864 10.8584 14.9741 11.0626L14.6392 11.1749L15.3335 15.0001H13.3022L12.6333 11.3243C12.477 10.4649 12.9766 9.62033 13.8052 9.34387L13.9995 9.27942V7.87122L11.5396 5.00012L6.45947 5.00012L3.99951 7.87122V9.27942L4.19385 9.34387C5.02275 9.62017 5.52202 10.4647 5.36572 11.3243L4.69678 15.0001H2.66553L3.36084 11.1749Z" fill="white"/>
<path d="M9.49988 5.99976C10.8805 5.99976 11.9997 7.11916 11.9999 8.49976C11.9999 9.88047 10.8806 10.9998 9.49988 10.9998H8.99988V12.9998C8.99988 13.552 8.55216 13.9998 7.99988 13.9998C7.44771 13.9996 6.99988 13.552 6.99988 12.9998V6.99976C6.99994 6.73463 7.10537 6.4802 7.29285 6.29272C7.48033 6.10525 7.73475 5.99982 7.99988 5.99976H9.49988ZM8.99988 8.99976H9.49988C9.77602 8.99976 9.99988 8.7759 9.99988 8.49976C9.99975 8.22373 9.77594 7.99976 9.49988 7.99976H8.99988V8.99976Z" fill="white"/>
</svg>
