<svg width="16" height="16" viewBox="0 0 16 16" fill="none" xmlns="http://www.w3.org/2000/svg">
<path d="M6.09204 2.43382C6.91008 0.914612 9.08935 0.914705 9.90747 2.43382L14.9543 11.8059C15.7313 13.2492 14.6862 15 13.0471 15.0002H2.95337C1.31394 15.0002 0.268936 13.2494 1.04614 11.8059L6.09204 2.43382ZM8.00024 11.0002C7.44796 11.0002 7.00024 11.4479 7.00024 12.0002C7.00037 12.5524 7.44804 13.0002 8.00024 13.0002C8.55232 13.0001 9.00012 12.5523 9.00024 12.0002C9.00024 11.448 8.5524 11.0004 8.00024 11.0002ZM8.00024 4.00023C7.46201 4.00023 7.03871 4.45997 7.08325 4.99632L7.45825 9.50218C7.48192 9.78362 7.71776 10.0002 8.00024 10.0002C8.28258 10.0001 8.51759 9.78351 8.54126 9.50218L8.91724 4.99632C8.96176 4.46004 8.53839 4.00033 8.00024 4.00023Z" fill="white"/>
</svg>
