<svg width="24" height="24" viewBox="0 0 24 24" fill="none" xmlns="http://www.w3.org/2000/svg">
<path d="M9.53781 3.40175C10.6053 1.46081 13.3941 1.46081 14.4616 3.40175L22.4011 17.8363C23.4308 19.7088 22.0761 22.0001 19.9392 22.0004H4.06027C1.92362 22 0.568947 19.7087 1.59836 17.8363L9.53781 3.40175ZM11.9997 16.0004C11.1715 16.0006 10.4997 16.6721 10.4997 17.5004C10.5 18.3285 11.1716 19.0002 11.9997 19.0004C12.828 19.0004 13.4995 18.3286 13.4997 17.5004C13.4997 16.672 12.8282 16.0004 11.9997 16.0004ZM11.9997 7.00038C11.187 7.00052 10.5428 7.68628 10.5935 8.49745L10.9372 14.0023C10.9725 14.5631 11.4379 15.0002 11.9997 15.0004C12.5617 15.0004 13.0269 14.5631 13.0622 14.0023L13.406 8.49745C13.4567 7.68619 12.8126 7.00038 11.9997 7.00038Z" fill="white"/>
</svg>
