<svg width="32" height="32" viewBox="0 0 32 32" fill="none" xmlns="http://www.w3.org/2000/svg">
<path d="M13.0653 4.34103C14.3239 2.00432 17.6758 2.00433 18.9344 4.34103L29.0282 23.0862C30.2237 25.3068 28.6156 28.0001 26.0936 28.0002H5.9061C3.38416 28 1.77609 25.3068 2.97153 23.0862L13.0653 4.34103ZM15.9998 20.9992C14.8955 20.9994 14 21.8949 13.9998 22.9992C13.9998 24.1037 14.8954 24.9991 15.9998 24.9992C17.1044 24.9992 17.9998 24.1038 17.9998 22.9992C17.9997 21.8948 17.1043 20.9992 15.9998 20.9992ZM15.9998 9.00021C14.9119 9.00029 14.0452 9.91075 14.0995 10.9973L14.4247 17.5022C14.4667 18.3412 15.1597 19.0001 15.9998 19.0002C16.84 19.0002 17.533 18.3413 17.575 17.5022L17.9002 10.9973C17.9545 9.91064 17.0879 9.00015 15.9998 9.00021Z" fill="white"/>
</svg>
