<svg width="48" height="48" viewBox="0 0 48 48" fill="none" xmlns="http://www.w3.org/2000/svg">
<path d="M19.9524 7.28445C21.7075 4.0937 26.2929 4.09371 28.0481 7.28445L43.926 36.1546C45.6189 39.2332 43.3916 43.0002 39.8781 43.0003H8.12228C4.6087 43.0003 2.38143 39.2333 4.07443 36.1546L19.9524 7.28445ZM24.0002 32.0003C22.3434 32.0003 21.0002 33.3435 21.0002 35.0003C21.0004 36.6569 22.3435 38.0002 24.0002 38.0003C25.6569 38.0003 27 36.6569 27.0002 35.0003C27.0002 33.3434 25.6571 32.0003 24.0002 32.0003ZM24.0002 14.0003C22.3745 14.0003 21.0853 15.3719 21.1867 16.9944L21.8752 28.0042C21.9455 29.126 22.8762 30.0003 24.0002 30.0003C25.1242 30.0002 26.0549 29.126 26.1252 28.0042L26.8127 16.9944C26.9141 15.3719 25.6258 14.0004 24.0002 14.0003Z" fill="white"/>
</svg>
