<svg width="32" height="32" viewBox="0 0 32 32" fill="none" xmlns="http://www.w3.org/2000/svg">
<path d="M16 17C9.92491 17 5.00007 21.9249 5 28V28.4287L5.01172 28.5439C5.06508 28.8042 5.29529 28.9999 5.57129 29H16V30H5.57129C4.70352 29.9999 4.00008 29.2965 4 28.4287V28C4.00007 21.3726 9.37262 16 16 16V17ZM16 2C19.3137 2 22 4.68629 22 8C22 11.3137 19.3137 14 16 14C12.6863 14 10 11.3137 10 8C10 4.68629 12.6863 2 16 2ZM16 3C13.2386 3 11 5.23858 11 8C11 10.7614 13.2386 13 16 13C18.7614 13 21 10.7614 21 8C21 5.23858 18.7614 3 16 3Z" fill="white"/>
<path d="M24 14C26.2091 14 28 15.7909 28 18V20C29.1046 20 30 20.8954 30 22V28C30 29.1046 29.1046 30 28 30H20C18.8954 30 18 29.1046 18 28V22C18 20.8954 18.8954 20 20 20V18C20 15.7909 21.7909 14 24 14ZM20 21C19.4477 21 19 21.4477 19 22V28C19 28.5523 19.4477 29 20 29H28C28.5523 29 29 28.5523 29 28V22C29 21.4477 28.5523 21 28 21H20ZM24 15C22.3431 15 21 16.3431 21 18V20H27V18C27 16.3431 25.6569 15 24 15Z" fill="#00B2B2"/>
</svg>
